<?xml version="1.0" encoding="UTF-8"?><svg id="b" xmlns="http://www.w3.org/2000/svg" width="46.75" height="48.14" viewBox="0 0 46.75 48.14"><g id="c"><path d="M9.37,14.88v-.64h.84v-2.59h-.84v-.64h2.45v.64h-.84v2.59h.84v.64h-2.45Z"/><path d="M13.15,11.02c.03.09.07.2.11.34.04.14.09.28.14.44.05.16.1.32.15.48.05.16.1.31.14.45.05-.15.1-.31.16-.48.05-.16.11-.32.16-.47s.1-.29.14-.43c.04-.13.08-.24.11-.33h.64c.03.34.06.67.08.99.03.32.05.64.07.95.02.31.03.63.05.95.01.32.02.64.03.98h-.7l.04-3-.47,1.63h-.56l-.46-1.63.03,3h-.7c.01-.32.03-.64.04-.99s.03-.68.05-1.02c.02-.34.04-.66.06-.98s.05-.61.08-.88h.64Z"/><path d="M16.81,14.96c-.25,0-.46-.03-.63-.1-.17-.07-.3-.17-.4-.3s-.17-.28-.21-.47-.06-.39-.06-.61v-2.46h.77v2.41c0,.16,0,.3.02.41.02.11.04.2.08.27.04.07.09.11.17.14.07.03.16.04.27.04s.2-.01.27-.04c.07-.03.13-.08.17-.15.04-.07.07-.16.09-.27.02-.11.02-.25.02-.41v-2.41h.77v2.46c0,.22-.02.43-.06.61s-.11.34-.22.47-.24.23-.41.3c-.17.07-.38.1-.64.1Z"/><path d="M22.95,14.32c.13,0,.24-.01.32-.04.08-.03.15-.06.2-.11s.08-.1.1-.16c.02-.06.03-.12.03-.18,0-.08-.02-.15-.07-.21-.05-.06-.1-.12-.17-.17s-.15-.09-.24-.13c-.09-.04-.17-.08-.26-.11-.12-.04-.24-.09-.36-.14-.12-.05-.24-.12-.34-.21-.1-.08-.19-.19-.25-.31s-.1-.28-.1-.46c0-.36.12-.64.35-.85.23-.2.56-.31.97-.31.24,0,.44.03.62.08.18.05.33.11.45.18l-.22.59c-.1-.06-.22-.11-.35-.15-.13-.04-.27-.06-.44-.06-.41,0-.61.15-.61.44,0,.07.02.14.06.2s.09.11.16.15c.06.04.14.08.22.12s.16.06.24.09c.12.05.25.1.38.15.13.06.25.13.36.22.11.09.2.21.27.35.07.14.11.31.11.53,0,.36-.12.64-.35.84-.23.2-.59.3-1.07.3-.32,0-.58-.03-.77-.1-.19-.07-.33-.13-.43-.19l.22-.62c.11.07.25.13.4.19.16.06.35.09.57.09Z"/><path d="M25.01,14.88v-3.86h2.34v.64h-1.57v.87h1.37v.64h-1.37v1.08h1.71v.64h-2.48Z"/><path d="M29.95,14.88c-.17-.43-.36-.86-.57-1.28-.21-.43-.43-.85-.66-1.28v2.56h-.69v-3.86h.62c.12.18.23.38.35.6.12.21.23.43.34.64s.21.42.31.62c.09.2.17.37.24.52v-2.38h.69v3.86h-.62Z"/><path d="M32.3,14.32c.13,0,.24-.01.32-.04.08-.03.15-.06.2-.11s.08-.1.1-.16c.02-.06.03-.12.03-.18,0-.08-.02-.15-.07-.21-.05-.06-.1-.12-.17-.17s-.15-.09-.24-.13c-.09-.04-.17-.08-.26-.11-.12-.04-.24-.09-.36-.14-.12-.05-.24-.12-.34-.21-.1-.08-.19-.19-.25-.31s-.1-.28-.1-.46c0-.36.12-.64.35-.85.23-.2.56-.31.97-.31.24,0,.44.03.62.08.18.05.33.11.45.18l-.22.59c-.1-.06-.22-.11-.35-.15-.13-.04-.27-.06-.44-.06-.41,0-.61.15-.61.44,0,.07.02.14.06.2s.09.11.16.15c.06.04.14.08.22.12s.16.06.24.09c.12.05.25.1.38.15.13.06.25.13.36.22.11.09.2.21.27.35.07.14.11.31.11.53,0,.36-.12.64-.35.84-.23.2-.59.3-1.07.3-.32,0-.58-.03-.77-.1-.19-.07-.33-.13-.43-.19l.22-.62c.11.07.25.13.4.19.16.06.35.09.57.09Z"/><path d="M34.14,12.95c0-.67.12-1.17.37-1.51.25-.34.59-.51,1.02-.51s.8.17,1.04.51.36.84.36,1.51-.12,1.17-.36,1.51-.58.51-1.02.51-.8-.17-1.04-.51-.36-.84-.36-1.51ZM34.92,12.95c0,.19,0,.36.02.53s.04.31.09.43c.04.12.1.22.18.29.08.07.18.11.32.11s.23-.04.31-.11c.08-.07.14-.17.19-.29.04-.12.07-.26.09-.43s.02-.34.02-.52,0-.36-.02-.53c-.01-.16-.04-.31-.09-.43s-.1-.22-.18-.29-.19-.11-.32-.11-.24.04-.32.11c-.08.07-.14.17-.18.29-.04.12-.07.27-.09.43s-.02.34-.02.52Z"/><path d="M38.43,10.98c.22,0,.42.02.6.07s.33.13.46.23.23.24.3.4c.07.16.1.35.1.56s-.05.43-.14.61c-.09.18-.24.32-.46.42.07.11.15.23.22.36s.16.27.23.41.15.29.21.43c.07.14.13.28.18.41h-.8c-.1-.25-.21-.49-.33-.72-.13-.23-.26-.46-.41-.7h-.4v1.42h-.77v-3.8c.07-.02.16-.03.25-.05.09-.01.18-.02.27-.03.09,0,.18-.01.26-.02.08,0,.16,0,.22,0ZM39.11,12.24c0-.2-.06-.35-.19-.45-.12-.1-.29-.14-.49-.14-.03,0-.06,0-.11,0s-.08,0-.12.02v1.16h.17c.26,0,.45-.05.57-.15.12-.1.17-.25.17-.43Z"/><path d="M9.57,7.82c-.12,0-.22.02-.3.06-.08.04-.15.1-.2.18-.05.08-.09.17-.11.27-.02.1-.03.22-.03.35,0,.3.05.51.14.65s.23.21.41.21c.03,0,.06,0,.1,0,.03,0,.07,0,.1-.01v-.9h.49v1.24c-.06.02-.15.05-.27.07-.12.03-.27.04-.45.04-.15,0-.29-.03-.42-.08-.12-.05-.23-.14-.32-.24-.09-.11-.16-.24-.2-.4-.05-.16-.07-.35-.07-.56s.03-.4.08-.56c.06-.16.13-.3.23-.41.1-.11.21-.19.34-.25.13-.05.27-.08.42-.08.1,0,.18,0,.26.02s.14.03.2.05c.06.02.1.04.14.06s.06.04.08.05l-.13.39c-.06-.04-.13-.07-.22-.1-.09-.03-.17-.04-.26-.04Z"/><path d="M11.18,7.42c.14,0,.27.02.38.05.11.03.21.08.3.15.08.07.15.15.19.25.04.1.07.22.07.36s-.03.27-.09.39c-.06.12-.16.21-.29.27.05.07.09.15.14.23.05.08.1.17.15.26.05.09.09.18.14.28.04.09.08.18.11.26h-.52c-.06-.16-.13-.31-.21-.46-.08-.15-.17-.3-.26-.45h-.26v.91h-.49v-2.44s.1-.02.16-.03c.06,0,.12-.02.17-.02.06,0,.11,0,.17,0,.05,0,.1,0,.14,0ZM11.61,8.23c0-.13-.04-.23-.12-.29-.08-.06-.19-.09-.32-.09-.02,0-.04,0-.07,0-.03,0-.05,0-.08.01v.74h.11c.17,0,.29-.03.36-.1.07-.07.11-.16.11-.28Z"/><path d="M12.43,8.68c0-.43.08-.75.24-.97.16-.22.38-.33.66-.33s.51.11.66.33.23.54.23.97-.08.75-.23.97c-.15.22-.37.33-.66.33s-.51-.11-.67-.33-.23-.54-.23-.97ZM12.93,8.68c0,.12,0,.23.01.34s.03.2.06.27c.03.08.07.14.12.18s.12.07.2.07.15-.02.2-.07c.05-.05.09-.11.12-.19.03-.08.05-.17.06-.27s.01-.22.01-.34,0-.23-.01-.34c0-.1-.03-.2-.06-.27-.03-.08-.07-.14-.12-.18-.05-.05-.12-.07-.2-.07s-.15.02-.2.07-.09.11-.12.19c-.03.08-.05.17-.06.27s-.01.22-.01.34Z"/><path d="M15.06,9.92c-.06-.18-.13-.39-.2-.62-.07-.23-.14-.46-.2-.69-.06-.23-.12-.45-.17-.65-.05-.21-.09-.37-.11-.5h.52c.02.13.04.28.07.45.03.17.07.34.11.52.04.18.08.36.12.53.04.17.09.33.13.47.04-.14.09-.29.13-.47.04-.17.08-.35.12-.53.04-.18.07-.36.1-.53.03-.17.06-.32.08-.45h.52c-.03.16-.07.34-.12.54s-.1.4-.16.62-.13.44-.2.66c-.07.23-.15.44-.22.65h-.51Z"/><path d="M16.57,9.92v-2.48h1.5v.41h-1.01v.56h.88v.41h-.88v.7h1.1v.41h-1.59Z"/><path d="M21.5,9.97c-.35,0-.62-.11-.8-.34-.18-.22-.28-.54-.28-.96,0-.21.03-.39.08-.55.06-.16.13-.3.23-.41.1-.11.22-.19.36-.25.14-.06.29-.09.45-.09.09,0,.17,0,.24.02.07.01.13.03.19.05.05.02.1.04.13.06s.06.04.08.05l-.13.39c-.06-.04-.14-.07-.22-.1s-.19-.04-.3-.04c-.08,0-.15.01-.23.04s-.14.07-.2.14c-.06.07-.1.15-.14.26s-.05.25-.05.41c0,.28.05.5.15.65.1.15.26.23.48.23.13,0,.23-.01.32-.04s.15-.06.2-.09l.12.39c-.07.04-.16.08-.28.12-.12.04-.26.05-.41.05Z"/><path d="M22.43,8.68c0-.43.08-.75.24-.97.16-.22.38-.33.66-.33s.51.11.66.33.23.54.23.97-.08.75-.23.97c-.15.22-.37.33-.66.33s-.51-.11-.67-.33-.23-.54-.23-.97ZM22.93,8.68c0,.12,0,.23.01.34s.03.2.06.27c.03.08.07.14.12.18s.12.07.2.07.15-.02.2-.07c.05-.05.09-.11.12-.19.03-.08.05-.17.06-.27s.01-.22.01-.34,0-.23-.01-.34c0-.1-.03-.2-.06-.27-.03-.08-.07-.14-.12-.18-.05-.05-.12-.07-.2-.07s-.15.02-.2.07-.09.11-.12.19c-.03.08-.05.17-.06.27s-.01.22-.01.34Z"/><path d="M24.96,7.45c.02.06.04.13.07.22.03.09.06.18.09.28.03.1.06.2.1.31.03.1.06.2.09.29.03-.1.06-.2.1-.31s.07-.21.1-.3c.03-.1.06-.19.09-.27.03-.08.05-.16.07-.21h.41c.02.22.04.43.05.63.02.21.03.41.04.61.01.2.02.4.03.61,0,.2.01.41.02.63h-.45l.02-1.92-.3,1.05h-.36l-.29-1.05.02,1.92h-.45c0-.2.02-.41.03-.63,0-.22.02-.44.03-.65.01-.22.02-.43.04-.63s.03-.39.05-.56h.41Z"/><path d="M27.22,7.42c.31,0,.56.06.73.19s.26.34.26.63-.09.51-.26.64c-.17.13-.42.2-.74.2h-.18v.84h-.49v-2.44s.1-.02.16-.03c.06,0,.12-.01.18-.02.06,0,.12,0,.18,0,.06,0,.11,0,.16,0ZM27.27,7.85s-.07,0-.12,0c-.05,0-.09,0-.12.01v.8h.2c.16,0,.28-.03.36-.09s.12-.17.12-.32c0-.14-.04-.25-.12-.31s-.18-.09-.31-.09Z"/><path d="M29.76,9.92l-.12-.57h-.66l-.11.57h-.51c.12-.49.24-.93.36-1.33s.24-.78.35-1.14h.54c.12.36.23.75.35,1.15.12.41.23.85.34,1.32h-.53ZM29.32,7.93c-.03.09-.05.18-.07.27-.02.08-.04.17-.06.25s-.04.16-.06.25c-.02.08-.03.17-.05.26h.48c-.02-.09-.03-.17-.05-.26-.02-.08-.03-.16-.05-.25s-.04-.16-.06-.25c-.02-.08-.05-.17-.07-.27Z"/><path d="M32.22,7.45v.41h-.65v2.07h-.5v-2.07h-.65v-.41h1.8Z"/><path d="M32.54,9.92v-.41h.54v-1.66h-.54v-.41h1.57v.41h-.54v1.66h.54v.41h-1.57Z"/><path d="M36.2,9.17c0,.15-.03.27-.08.37-.05.1-.12.18-.21.24-.09.06-.19.1-.31.13s-.25.04-.38.04c-.11,0-.22,0-.34-.02-.12-.01-.23-.03-.35-.05v-2.4c.09-.02.2-.03.31-.04.11-.01.22-.02.33-.02.19,0,.34.02.46.06.12.04.21.09.28.15.07.06.11.13.14.21s.04.15.04.23c0,.12-.03.22-.09.31-.06.09-.13.16-.23.22.17.06.28.14.34.25s.09.21.09.33ZM35.22,8.43c.13,0,.22-.03.28-.08.06-.05.1-.13.1-.23,0-.06,0-.11-.03-.14s-.04-.06-.08-.08c-.03-.02-.07-.03-.11-.04s-.09-.01-.13-.01c-.04,0-.08,0-.12,0-.04,0-.08,0-.11.01v.57h.19ZM35.03,8.84v.67s.07,0,.11.01c.04,0,.08,0,.12,0,.06,0,.11,0,.16-.01.05,0,.1-.03.14-.05s.08-.06.1-.11c.03-.05.04-.11.04-.18,0-.12-.04-.21-.11-.26-.08-.05-.18-.08-.31-.08h-.26Z"/><path d="M38.16,9.92h-1.56v-2.48h.5v2.07h1.06v.41Z"/><path d="M38.57,9.92v-2.48h1.5v.41h-1.01v.56h.88v.41h-.88v.7h1.1v.41h-1.59Z"/><path d="M23.2,47.44c-.18.06-.39.13-.62.2-.23.07-.46.14-.69.2-.23.06-.45.12-.65.17-.21.05-.37.09-.5.11v-.52c.13-.02.28-.04.45-.07.17-.03.34-.07.52-.11.18-.04.36-.08.53-.12.17-.04.33-.09.47-.13-.14-.04-.29-.09-.47-.13-.17-.04-.35-.08-.53-.12-.18-.04-.36-.07-.53-.1-.17-.03-.32-.06-.45-.08v-.52c.16.03.34.07.54.12s.4.1.62.16.44.13.66.2c.23.07.44.15.65.22v.51Z"/><path d="M23.25,45c0,.35-.11.62-.34.8-.22.18-.54.28-.96.28-.21,0-.39-.03-.55-.08-.16-.06-.3-.13-.41-.23-.11-.1-.19-.22-.25-.36-.06-.14-.09-.29-.09-.45,0-.09,0-.17.02-.24.01-.07.03-.13.05-.19.02-.05.04-.1.06-.13s.04-.06.05-.08l.39.13c-.04.06-.07.14-.1.22s-.04.19-.04.3c0,.08.01.15.04.23s.07.14.14.2c.07.06.15.1.26.14s.25.05.41.05c.28,0,.5-.05.65-.15.15-.1.23-.26.23-.48,0-.13-.01-.23-.04-.32s-.06-.15-.09-.2l.39-.12c.04.07.08.16.12.28.04.12.05.26.05.41Z"/><path d="M23.25,43c0,.35-.11.62-.34.8-.22.18-.54.28-.96.28-.21,0-.39-.03-.55-.08-.16-.06-.3-.13-.41-.23-.11-.1-.19-.22-.25-.36-.06-.14-.09-.29-.09-.45,0-.09,0-.17.02-.24.01-.07.03-.13.05-.19.02-.05.04-.1.06-.13s.04-.06.05-.08l.39.13c-.04.06-.07.14-.1.22s-.04.19-.04.3c0,.08.01.15.04.23s.07.14.14.2c.07.06.15.1.26.14s.25.05.41.05c.28,0,.5-.05.65-.15.15-.1.23-.26.23-.48,0-.13-.01-.23-.04-.32s-.06-.15-.09-.2l.39-.12c.04.07.08.16.12.28.04.12.05.26.05.41Z"/><path d="M15.43,46.94c0,.12.02.22.06.3.04.08.1.15.18.2.08.05.17.09.27.11.1.02.22.03.35.03.3,0,.51-.05.65-.14s.21-.23.21-.41c0-.03,0-.06,0-.1,0-.03,0-.07-.01-.1h-.9v-.49h1.24c.02.06.05.15.07.27.03.12.04.27.04.45,0,.15-.03.29-.08.42-.05.12-.14.23-.24.32-.11.09-.24.16-.4.2-.16.05-.35.07-.56.07s-.4-.03-.56-.08c-.16-.06-.3-.13-.41-.23-.11-.1-.19-.21-.25-.34-.05-.13-.08-.27-.08-.42,0-.1,0-.18.02-.26s.03-.14.05-.2c.02-.06.04-.1.06-.14s.04-.06.05-.08l.39.13c-.04.06-.07.13-.1.22-.03.09-.04.17-.04.26Z"/><path d="M17.53,44.77c-.27.11-.55.23-.82.37-.27.13-.55.27-.82.43h1.64v.44h-2.48v-.4c.12-.07.24-.15.38-.22.14-.07.27-.15.41-.22.14-.07.27-.14.4-.2.13-.06.24-.11.34-.15h-1.52v-.44h2.48v.4Z"/><path d="M16.29,42.3c.23,0,.42.03.59.09.16.06.29.14.39.24s.18.22.22.36c.05.14.07.29.07.46,0,.09,0,.17-.01.26s-.02.17-.05.27h-2.42c-.02-.11-.04-.22-.05-.32,0-.1-.01-.19-.01-.28,0-.16.02-.31.07-.45.05-.13.12-.25.23-.34.1-.09.23-.17.39-.22.16-.05.35-.08.57-.08ZM17.13,43.48s0-.03,0-.04v-.04c0-.11-.02-.21-.06-.28-.04-.08-.1-.14-.18-.18-.07-.05-.16-.08-.27-.1s-.22-.03-.34-.03c-.11,0-.21,0-.31.02-.1.02-.19.04-.27.08-.08.04-.14.09-.19.16-.05.07-.07.16-.07.27,0,.02,0,.05,0,.07,0,.03,0,.05.01.07h1.66Z"/><path d="M33.47,47.26c0-.08,0-.15-.03-.21-.02-.05-.04-.1-.07-.13-.03-.03-.07-.05-.1-.07-.04-.01-.08-.02-.12-.02-.05,0-.1.01-.14.04-.04.03-.08.07-.11.11s-.06.1-.08.15-.05.11-.07.17c-.03.07-.06.15-.09.23s-.08.15-.13.22c-.05.07-.12.12-.2.16-.08.04-.18.06-.29.06-.23,0-.41-.08-.54-.23-.13-.15-.2-.36-.2-.62,0-.15.02-.28.05-.4s.07-.21.12-.29l.38.14c-.04.07-.07.14-.1.22-.03.08-.04.18-.04.28,0,.26.09.39.28.39.05,0,.09-.01.13-.04.04-.03.07-.06.1-.1.03-.04.05-.09.07-.14.02-.05.04-.1.06-.15.03-.08.06-.16.1-.24.04-.08.08-.16.14-.23.06-.07.13-.13.22-.17s.2-.07.34-.07c.23,0,.41.08.54.23.13.15.19.38.19.69,0,.21-.02.37-.07.49s-.08.21-.12.28l-.4-.14c.04-.07.08-.16.12-.26.04-.1.06-.22.06-.37Z"/><path d="M33.88,45c0,.35-.11.62-.34.8-.22.18-.54.28-.96.28-.21,0-.39-.03-.55-.08-.16-.06-.3-.13-.41-.23-.11-.1-.19-.22-.25-.36-.06-.14-.09-.29-.09-.45,0-.09,0-.17.02-.24.01-.07.03-.13.05-.19.02-.05.04-.1.06-.13s.04-.06.05-.08l.39.13c-.04.06-.07.14-.1.22s-.04.19-.04.3c0,.08.01.15.04.23s.07.14.14.2c.07.06.15.1.26.14s.25.05.41.05c.28,0,.5-.05.65-.15.15-.1.23-.26.23-.48,0-.13-.01-.23-.04-.32s-.06-.15-.09-.2l.39-.12c.04.07.08.16.12.28.04.12.05.26.05.41Z"/><path d="M33.83,42.35v1.56h-2.48v-.5h2.07v-1.06h.41Z"/><path d="M28.51,47.26c0-.08,0-.15-.03-.21-.02-.05-.04-.1-.07-.13-.03-.03-.07-.05-.1-.07-.04-.01-.08-.02-.12-.02-.05,0-.1.01-.14.04-.04.03-.08.07-.11.11s-.06.1-.08.15-.05.11-.07.17c-.03.07-.06.15-.09.23s-.08.15-.13.22c-.05.07-.12.12-.2.16-.08.04-.18.06-.29.06-.23,0-.41-.08-.54-.23-.13-.15-.2-.36-.2-.62,0-.15.02-.28.05-.4s.07-.21.12-.29l.38.14c-.04.07-.07.14-.1.22-.03.08-.04.18-.04.28,0,.26.09.39.28.39.05,0,.09-.01.13-.04.04-.03.07-.06.1-.1.03-.04.05-.09.07-.14.02-.05.04-.1.06-.15.03-.08.06-.16.1-.24.04-.08.08-.16.14-.23.06-.07.13-.13.22-.17s.2-.07.34-.07c.23,0,.41.08.54.23.13.15.19.38.19.69,0,.21-.02.37-.07.49s-.08.21-.12.28l-.4-.14c.04-.07.08-.16.12-.26.04-.1.06-.22.06-.37Z"/><path d="M27.63,44.3c.23,0,.42.03.59.09.16.06.29.14.39.24s.18.22.22.36c.05.14.07.29.07.46,0,.09,0,.17-.01.26s-.02.17-.05.27h-2.42c-.02-.11-.04-.22-.05-.32,0-.1-.01-.19-.01-.28,0-.16.02-.31.07-.45.05-.13.12-.25.23-.34.1-.09.23-.17.39-.22.16-.05.35-.08.57-.08ZM28.47,45.48s0-.03,0-.04v-.04c0-.11-.02-.21-.06-.28-.04-.08-.1-.14-.18-.18-.07-.05-.16-.08-.27-.1s-.22-.03-.34-.03c-.11,0-.21,0-.31.02-.1.02-.19.04-.27.08-.08.04-.14.09-.19.16-.05.07-.07.16-.07.27,0,.02,0,.05,0,.07,0,.03,0,.05.01.07h1.66Z"/><path d="M28.87,42.75l-.57.12v.66l.57.11v.51c-.49-.12-.93-.24-1.33-.36s-.78-.24-1.14-.35v-.54c.36-.12.75-.23,1.15-.35.41-.12.85-.23,1.32-.34v.53ZM26.87,43.19c.09.03.18.05.27.07.08.02.17.04.25.06s.16.04.25.06c.08.02.17.03.26.05v-.48c-.09.02-.17.03-.26.05-.08.02-.16.03-.25.05s-.16.04-.25.06c-.08.02-.17.05-.27.07Z"/><path d="M40.23,31.89l-.12-.57h-.66l-.11.57h-.51c.12-.49.24-.93.36-1.33s.24-.78.35-1.14h.54c.12.36.23.75.35,1.15.12.41.23.85.34,1.32h-.53ZM39.79,29.89c-.03.09-.05.18-.07.27-.02.08-.04.17-.06.25s-.04.16-.06.25c-.02.08-.03.17-.05.26h.48c-.02-.09-.03-.17-.05-.26-.02-.08-.03-.16-.05-.25s-.04-.16-.06-.25c-.02-.08-.05-.17-.07-.27Z"/><path d="M42.68,30.65c0,.23-.03.42-.09.59-.06.16-.14.29-.24.39s-.22.18-.36.22c-.14.05-.29.07-.46.07-.09,0-.17,0-.26-.01s-.17-.02-.27-.05v-2.42c.11-.02.22-.04.32-.05.1,0,.19-.01.28-.01.16,0,.31.02.45.07.13.05.25.12.34.23.09.1.17.23.22.39.05.16.08.35.08.57ZM41.5,31.49s.03,0,.04,0h.04c.11,0,.21-.02.28-.06.08-.04.14-.1.18-.18.05-.07.08-.16.1-.27s.03-.22.03-.34c0-.11,0-.21-.02-.31-.02-.1-.04-.19-.08-.27-.04-.08-.09-.14-.16-.19-.07-.05-.16-.07-.27-.07-.02,0-.05,0-.07,0-.03,0-.05,0-.07.01v1.66Z"/><path d="M44.68,30.65c0,.23-.03.42-.09.59-.06.16-.14.29-.24.39s-.22.18-.36.22c-.14.05-.29.07-.46.07-.09,0-.17,0-.26-.01s-.17-.02-.27-.05v-2.42c.11-.02.22-.04.32-.05.1,0,.19-.01.28-.01.16,0,.31.02.45.07.13.05.25.12.34.23.09.1.17.23.22.39.05.16.08.35.08.57ZM43.5,31.49s.03,0,.04,0h.04c.11,0,.21-.02.28-.06.08-.04.14-.1.18-.18.05-.07.08-.16.1-.27s.03-.22.03-.34c0-.11,0-.21-.02-.31-.02-.1-.04-.19-.08-.27-.04-.08-.09-.14-.16-.19-.07-.05-.16-.07-.27-.07-.02,0-.05,0-.07,0-.03,0-.05,0-.07.01v1.66Z"/><path d="M45.65,29.39c.14,0,.27.02.38.05.11.03.21.08.3.15.08.07.15.15.19.25.04.1.07.22.07.36s-.03.27-.09.39c-.06.12-.16.21-.29.27.05.07.09.15.14.23.05.08.1.17.15.26.05.09.09.18.14.28.04.09.08.18.11.26h-.52c-.06-.16-.13-.31-.21-.46-.08-.15-.17-.3-.26-.45h-.26v.91h-.49v-2.44s.1-.02.16-.03c.06,0,.12-.02.17-.02.06,0,.11,0,.17,0,.05,0,.1,0,.14,0ZM46.08,30.19c0-.13-.04-.23-.12-.29-.08-.06-.19-.09-.32-.09-.02,0-.04,0-.07,0-.03,0-.05,0-.08.01v.74h.11c.17,0,.29-.03.36-.1.07-.07.11-.16.11-.28Z"/><path d="M15.57,2.67h0l-.89-.89.54-.54.89.89h0l.52.52h0l.89.89-.54.54-.89-.89h0l-.52-.52Z"/><path d="M15.57,18.97h0l-.89-.89.54-.54.89.89h0l.52.52h0l.89.89-.54.54-.89-.89h0l-.52-.52Z"/><path d="M15.57,24.64h0l-.89-.89.54-.54.89.89h0l.52.52h0l.89.89-.54.54-.89-.89h0l-.52-.52Z"/><path d="M31.89,18.97h0l-.89-.89.54-.54.89.89h0l.52.52h0l.89.89-.54.54-.89-.89h0l-.52-.52Z"/><path d="M31.89,24.64h0l-.89-.89.54-.54.89.89h0l.52.52h0l.89.89-.54.54-.89-.89h0l-.52-.52Z"/><path d="M31.89,30.31h0l-.89-.89.54-.54.89.89h0l.52.52h0l.89.89-.54.54-.89-.89h0l-.52-.52Z"/><path d="M21.24,2.67h0l-.89-.89.54-.54.89.89h0l.52.52h0l.89.89-.54.54-.89-.89h0l-.52-.52Z"/><path d="M24.26,0v5.67h5.67V0h-5.67ZM27.63,2.67l-.52.52-.89.89-.54-.54.89-.89.52-.52.89-.89.54.54-.89.89Z"/><path d="M32.41,2.67h0l-.89-.89.54-.54.89.89h0l.52.52h0l.89.89-.54.54-.89-.89h0l-.52-.52Z"/><path d="M5.08,18.5c.03-.06.06-.14.1-.23.04-.09.08-.19.12-.3s.08-.21.11-.32c.04-.11.07-.2.1-.29h.51c-.05.14-.1.27-.15.4-.05.13-.1.25-.16.38-.06.13-.12.25-.18.37s-.13.25-.21.38v.94h-.5v-.94c-.15-.26-.28-.51-.39-.76-.11-.25-.22-.51-.32-.78h.53c.06.19.13.39.2.59.07.2.15.38.23.55Z"/><path d="M16.48,31.54c-.05-.14-.11-.29-.19-.45-.07-.17-.15-.33-.23-.5-.08.16-.15.32-.23.49-.08.17-.14.32-.2.46h-.53c.03-.07.07-.16.12-.26.05-.1.11-.21.17-.33s.13-.24.2-.36c.07-.12.14-.24.2-.36l-.65-1.17h.53l.39.79.41-.79h.5l-.63,1.16c.07.11.14.23.21.36s.13.25.19.37c.06.12.11.23.16.33.05.1.08.19.11.26h-.53Z"/><path d="M1.6,32.59c-.11.18-.22.34-.32.5-.1.15-.19.3-.27.44-.08.14-.16.27-.23.4s-.14.26-.21.38h1.06v.41H0v-.28c.06-.11.12-.24.19-.36.07-.13.14-.26.22-.41.08-.14.17-.3.27-.47.1-.17.2-.35.32-.55H.05v-.41h1.54v.34Z"/><rect x="5.13" y="29.26" width="7.09" height="1"/><polygon points="11.78 31.26 14.37 29.76 11.78 28.27 11.78 31.26"/><rect x="4.63" y="22.68" width="1" height="7.09"/><polygon points="6.63 23.11 5.13 20.52 3.64 23.11 6.63 23.11"/><path d="M5.13,32.74c-1.64,0-2.98-1.34-2.98-2.98s1.34-2.98,2.98-2.98,2.98,1.34,2.98,2.98-1.34,2.98-2.98,2.98ZM5.13,27.78c-1.09,0-1.98.89-1.98,1.98s.89,1.98,1.98,1.98,1.98-.89,1.98-1.98-.89-1.98-1.98-1.98Z"/></g></svg>