<?xml version="1.0" encoding="UTF-8"?>
<svg xmlns="http://www.w3.org/2000/svg" xmlns:xlink="http://www.w3.org/1999/xlink" version="1.1" viewBox="0 0 500 500">
  <defs>
    <style>
      .cls-1 {
        mask: url(#mask);
      }

      .cls-2 {
        fill: #b5b5b5;
      }

      .cls-3 {
        fill: none;
        stroke: #333;
        stroke-linecap: round;
        stroke-linejoin: round;
        stroke-width: .9px;
      }

      .cls-4 {
        fill: #d9d9d9;
      }

      .cls-5 {
        mask: url(#mask-1);
      }

      .cls-6 {
        fill: #dcdcdc;
        stroke: #919191;
        stroke-width: .3px;
      }

      .cls-7 {
        fill: #fff;
      }

      .cls-8 {
        fill-rule: evenodd;
      }

      .cls-8, .cls-9 {
        fill: #333;
      }

      .cls-10 {
        fill: #191919;
      }

      .cls-11 {
        fill: #d3d3d3;
      }

      .cls-12 {
        fill: #e6bf62;
      }
    </style>
    <mask id="mask" x="190.5" y="329.9" width="119.3" height="58.6" maskUnits="userSpaceOnUse">
      <g id="path-197-inside-1_2011_2789">
        <path class="cls-7" d="M191,330.4h18.2v9.1h78.9v-9.1h21.2v57.6h-118.3v-57.6Z"/>
      </g>
    </mask>
    <mask id="mask-1" x="196.6" y="336" width="107.1" height="46.5" maskUnits="userSpaceOnUse">
      <g id="path-199-inside-2_2011_2789">
        <path class="cls-7" d="M197.1,336.5h8.2v7.2h91v-7.2h6.9v45.5h-106.1v-45.5Z"/>
      </g>
    </mask>
  </defs>
  <!-- Generator: Adobe Illustrator 28.7.3, SVG Export Plug-In . SVG Version: 1.2.0 Build 164)  -->
  <g>
    <g id="Layer_1">
      <path class="cls-10" d="M149,115c0-8.3,6.7-15,15-15h173c8.3,0,15,6.7,15,15v274c0,8.3-6.7,15-15,15h-173c-8.3,0-15-6.7-15-15V115ZM313,378c0,7.2,5.8,13,13,13s13-5.8,13-13-5.8-13-13-13-13,5.8-13,13ZM313,124c0,7.2,5.8,13,13,13s13-5.8,13-13-5.8-13-13-13-13,5.8-13,13ZM161,378c0,7.2,5.8,13,13,13s13-5.8,13-13-5.8-13-13-13-13,5.8-13,13ZM161,124c0,7.2,5.8,13,13,13s13-5.8,13-13-5.8-13-13-13-13,5.8-13,13Z"/>
      <path class="cls-8" d="M263.5,210.1v.3c0,0-.3.3-.3.3l-.3.2h-.3c0,0-4.5,0-4.5,0h-.3c0,0-.3-.3-.3-.3l-.2-.3v-.3c0,0,0-1.8,0-1.8v-.3c0,0,.3-.3.3-.3l.3-.2h.3c0,0,4.5,0,4.5,0h.3c0,0,.3.3.3.3l.2.3v.3c0,0,0,1.8,0,1.8Z"/>
      <path class="cls-8" d="M263.5,205v.3c0,0-.3.3-.3.3l-.3.2h-.3c0,0-4.5,0-4.5,0h-.3c0,0-.3-.3-.3-.3l-.2-.3v-.3c0,0,0-1.8,0-1.8v-.3c0,0,.3-.3.3-.3l.3-.2h.3c0,0,4.5,0,4.5,0h.3c0,0,.3.3.3.3l.2.3v.3c0,0,0,1.8,0,1.8Z"/>
      <path class="cls-8" d="M263.5,199.9v.3c0,0-.3.3-.3.3l-.3.2h-.3c0,0-4.5,0-4.5,0h-.3c0,0-.3-.3-.3-.3l-.2-.3v-.3c0,0,0-1.8,0-1.8v-.3c0,0,.3-.3.3-.3l.3-.2h.3c0,0,4.5,0,4.5,0h.3c0,0,.3.3.3.3l.2.3v.3c0,0,0,1.8,0,1.8Z"/>
      <path class="cls-8" d="M263.5,194.9v.3c0,0-.3.3-.3.3l-.3.2h-.3c0,0-4.5,0-4.5,0h-.3c0,0-.3-.3-.3-.3l-.2-.3v-.3c0,0,0-1.8,0-1.8v-.3c0,0,.3-.3.3-.3l.3-.2h.3c0,0,4.5,0,4.5,0h.3c0,0,.3.3.3.3l.2.3v.3c0,0,0,1.8,0,1.8Z"/>
      <path class="cls-8" d="M255.5,194.6v.3c0,0-.3.3-.3.3l-.3.2h-.3c0,0-1.8,0-1.8,0h-.3c0,0-.3-.3-.3-.3l-.2-.3v-.3c0,0,0-4.6,0-4.6v-.3c0,0,.3-.3.3-.3l.3-.2h.3c0,0,1.8,0,1.8,0h.3c0,0,.3.3.3.3l.2.3v.3c0,0,0,4.6,0,4.6Z"/>
      <path class="cls-8" d="M250.5,194.6v.3c0,0-.3.3-.3.3l-.3.2h-.3c0,0-1.8,0-1.8,0h-.3c0,0-.3-.3-.3-.3l-.2-.3v-.3c0,0,0-4.6,0-4.6v-.3c0,0,.3-.3.3-.3l.3-.2h.3c0,0,1.8,0,1.8,0h.3c0,0,.3.3.3.3l.2.3v.3c0,0,0,4.6,0,4.6Z"/>
      <path class="cls-8" d="M245.5,194.6v.3c0,0-.3.3-.3.3l-.3.2h-.3c0,0-1.8,0-1.8,0h-.3c0,0-.3-.3-.3-.3l-.2-.3v-.3c0,0,0-4.6,0-4.6v-.3c0,0,.3-.3.3-.3l.3-.2h.3c0,0,1.8,0,1.8,0h.3c0,0,.3.3.3.3l.2.3v.3c0,0,0,4.6,0,4.6Z"/>
      <path class="cls-8" d="M240.3,194.9v.3c0,0-.3.3-.3.3l-.3.2h-.3c0,0-4.5,0-4.5,0h-.3c0,0-.3-.3-.3-.3l-.2-.3v-.3c0,0,0-1.8,0-1.8v-.3c0,0,.3-.3.3-.3l.3-.2h.3c0,0,4.5,0,4.5,0h.3c0,0,.3.3.3.3l.2.3v.3c0,0,0,1.8,0,1.8Z"/>
      <path class="cls-8" d="M240.3,199.9v.3c0,0-.3.3-.3.3l-.3.2h-.3c0,0-4.5,0-4.5,0h-.3c0,0-.3-.3-.3-.3l-.2-.3v-.3c0,0,0-1.8,0-1.8v-.3c0,0,.3-.3.3-.3l.3-.2h.3c0,0,4.5,0,4.5,0h.3c0,0,.3.3.3.3l.2.3v.3c0,0,0,1.8,0,1.8Z"/>
      <path class="cls-8" d="M240.3,205v.3c0,0-.3.3-.3.3l-.3.2h-.3c0,0-4.5,0-4.5,0h-.3c0,0-.3-.3-.3-.3l-.2-.3v-.3c0,0,0-1.8,0-1.8v-.3c0,0,.3-.3.3-.3l.3-.2h.3c0,0,4.5,0,4.5,0h.3c0,0,.3.3.3.3l.2.3v.3c0,0,0,1.8,0,1.8Z"/>
      <path class="cls-8" d="M240.3,210.1v.3c0,0-.3.3-.3.3l-.3.2h-.3c0,0-4.5,0-4.5,0h-.3c0,0-.3-.3-.3-.3l-.2-.3v-.3c0,0,0-1.8,0-1.8v-.3c0,0,.3-.3.3-.3l.3-.2h.3c0,0,4.5,0,4.5,0h.3c0,0,.3.3.3.3l.2.3v.3c0,0,0,1.8,0,1.8Z"/>
      <path class="cls-8" d="M245.5,213.2v.3c0,0-.3.3-.3.3l-.3.2h-.3c0,0-1.8,0-1.8,0h-.3c0,0-.3-.3-.3-.3l-.2-.3v-.3c0,0,0-4.6,0-4.6v-.3c0,0,.3-.3.3-.3l.3-.2h.3c0,0,1.8,0,1.8,0h.3c0,0,.3.3.3.3l.2.3v.3c0,0,0,4.6,0,4.6Z"/>
      <path class="cls-8" d="M250.5,213.2v.3c0,0-.3.3-.3.3l-.3.2h-.3c0,0-1.8,0-1.8,0h-.3c0,0-.3-.3-.3-.3l-.2-.3v-.3c0,0,0-4.6,0-4.6v-.3c0,0,.3-.3.3-.3l.3-.2h.3c0,0,1.8,0,1.8,0h.3c0,0,.3.3.3.3l.2.3v.3c0,0,0,4.6,0,4.6Z"/>
      <path class="cls-8" d="M255.5,213.2v.3c0,0-.3.3-.3.3l-.3.2h-.3c0,0-1.8,0-1.8,0h-.3c0,0-.3-.3-.3-.3l-.2-.3v-.3c0,0,0-4.6,0-4.6v-.3c0,0,.3-.3.3-.3l.3-.2h.3c0,0,1.8,0,1.8,0h.3c0,0,.3.3.3.3l.2.3v.3c0,0,0,4.6,0,4.6Z"/>
      <path class="cls-8" d="M274.5,295.7h10.1v27.8h-10.1v-27.8Z"/>
      <path class="cls-8" d="M254.5,295.7h10.1v27.8h-10.1v-27.8Z"/>
      <path class="cls-8" d="M234.6,295.7h10.1v27.8h-10.1v-27.8Z"/>
      <path class="cls-8" d="M214.5,295.7h10.1v27.8h-10.1v-27.8Z"/>
      <path class="cls-8" d="M296.1,370.5h15v30.5h-15v-30.5Z"/>
      <path class="cls-8" d="M188.1,370.5h15v30.5h-15v-30.5Z"/>
      <path class="cls-8" d="M269.3,226.7v.5c-.1,0-.4.4-.4.4l-.4.3h-.5c0,.1-2.7.1-2.7.1h-.5c0-.1-.4-.4-.4-.4l-.3-.4v-.5c-.1,0-.1-3.8-.1-3.8v-.5c.1,0,.4-.4.4-.4l.4-.3h.5c0-.1,2.7-.1,2.7-.1h.5c0,.1.4.4.4.4l.3.4v.5c.1,0,.1,3.8.1,3.8Z"/>
      <path class="cls-8" d="M259.1,226.7v.5c-.1,0-.4.4-.4.4l-.4.3h-.5c0,.1-2.7.1-2.7.1h-.5c0-.1-.4-.4-.4-.4l-.3-.4v-.5c-.1,0-.1-3.8-.1-3.8v-.5c.1,0,.4-.4.4-.4l.4-.3h.5c0-.1,2.7-.1,2.7-.1h.5c0,.1.4.4.4.4l.3.4v.5c.1,0,.1,3.8.1,3.8Z"/>
      <path class="cls-8" d="M253.4,180.9l-.2.9-.5.7-.7.5-.9.2h-4.5l-.9-.2-.7-.5-.5-.7-.2-.9v-5.1l.2-.9.5-.7.7-.5.9-.2h4.5l.9.2.7.5.5.7.2.9v5.1Z"/>
      <path class="cls-8" d="M237.9,180.9l-.2.9-.5.7-.7.5-.9.2h-4.5l-.9-.2-.7-.5-.5-.7-.2-.9v-5.1l.2-.9.5-.7.7-.5.9-.2h4.5l.9.2.7.5.5.7.2.9v5.1Z"/>
      <path class="cls-8" d="M269.3,234h.5c0,.1.4.4.4.4l.3.4v.5c.1,0,.1,2.7.1,2.7v.5c-.1,0-.4.4-.4.4l-.4.3h-.5c0,.1-3.7.1-3.7.1h-.5c0-.1-.4-.4-.4-.4l-.3-.4v-.5c-.1,0-.1-2.7-.1-2.7v-.5c.1,0,.4-.4.4-.4l.4-.3h.5c0-.1,3.7-.1,3.7-.1Z"/>
      <path class="cls-8" d="M269.3,244.3h.5c0,.1.4.4.4.4l.3.4v.5c.1,0,.1,2.7.1,2.7v.5c-.1,0-.4.4-.4.4l-.4.3h-.5c0,.1-3.7.1-3.7.1h-.5c0-.1-.4-.4-.4-.4l-.3-.4v-.5c-.1,0-.1-2.7-.1-2.7v-.5c.1,0,.4-.4.4-.4l.4-.3h.5c0-.1,3.7-.1,3.7-.1Z"/>
      <path class="cls-8" d="M233.3,222.9v-.5c.1,0,.4-.4.4-.4l.4-.3h.5c0-.1,2.7-.1,2.7-.1h.5c0,.1.4.4.4.4l.3.4v.5c.1,0,.1,3.8.1,3.8v.5c-.1,0-.4.4-.4.4l-.4.3h-.5c0,.1-2.7.1-2.7.1h-.5c0-.1-.4-.4-.4-.4l-.3-.4v-.5c-.1,0-.1-3.8-.1-3.8Z"/>
      <path class="cls-8" d="M243.6,222.9v-.5c.1,0,.4-.4.4-.4l.4-.3h.5c0-.1,2.7-.1,2.7-.1h.5c0,.1.4.4.4.4l.3.4v.5c.1,0,.1,3.8.1,3.8v.5c-.1,0-.4.4-.4.4l-.4.3h-.5c0,.1-2.7.1-2.7.1h-.5c0-.1-.4-.4-.4-.4l-.3-.4v-.5c-.1,0-.1-3.8-.1-3.8Z"/>
      <path class="cls-8" d="M316.7,202.3l-5,7.6h-10v-15.2h10l5,7.6Z"/>
      <path class="cls-8" d="M326.2,209.9h-11.5l5-7.6-5-7.6h11.5v15.2Z"/>
      <path class="cls-8" d="M259.8,184.8h-.5c0-.1-.5-.4-.5-.4l-.3-.5v-.5c-.1,0-.1-2.8-.1-2.8v-.5c.1,0,.4-.5.4-.5l.5-.3h.5c0-.1,3.4-.1,3.4-.1h.5c0,.1.5.4.5.4l.3.5v.5c.1,0,.1,2.8.1,2.8v.5c-.1,0-.4.5-.4.5l-.5.3h-.5c0,.1-3.4.1-3.4.1Z"/>
      <path class="cls-8" d="M259.8,175.1h-.5c0-.1-.5-.4-.5-.4l-.3-.5v-.5c-.1,0-.1-2.8-.1-2.8v-.5c.1,0,.4-.5.4-.5l.5-.3h.5c0-.1,3.4-.1,3.4-.1h.5c0,.1.5.4.5.4l.3.5v.5c.1,0,.1,2.8.1,2.8v.5c-.1,0-.4.5-.4.5l-.5.3h-.5c0,.1-3.4.1-3.4.1Z"/>
      <path class="cls-9" d="M250.6,201.4c0-1.7-1.4-3.1-3-3.1s-3.1,1.4-3.1,3.1,1.4,3.1,3.1,3.1,3-1.4,3-3.1Z"/>
      <path class="cls-9" d="M230.1,190.9c0-1.7-1.4-3.1-3.1-3.1s-3.1,1.4-3.1,3.1,1.4,3.1,3.1,3.1,3.1-1.4,3.1-3.1Z"/>
      <path class="cls-9" d="M207.9,294.4c0-1.7-1.4-3.1-3.1-3.1s-3.1,1.4-3.1,3.1,1.4,3.1,3.1,3.1,3.1-1.4,3.1-3.1Z"/>
      <path class="cls-9" d="M246.2,266.9v-42.1,42.1Z"/>
      <path class="cls-3" d="M246.2,266.9v-42.1"/>
      <path class="cls-9" d="M248.8,210.9v11.4-11.4Z"/>
      <path class="cls-3" d="M248.8,210.9v11.4"/>
      <path class="cls-9" d="M248.8,222.3l-2.5,2.6,2.5-2.6Z"/>
      <path class="cls-3" d="M248.8,222.3l-2.5,2.6"/>
      <path class="cls-9" d="M279.6,309.6v-8.8,8.8Z"/>
      <path class="cls-3" d="M279.6,309.6v-8.8"/>
      <path class="cls-9" d="M279.6,300.8l-33.3-33.9,33.3,33.9Z"/>
      <path class="cls-3" d="M279.6,300.8l-33.3-33.9"/>
      <path class="cls-9" d="M271.3,326.8h16.6-16.6Z"/>
      <path class="cls-3" d="M271.3,326.8h16.6"/>
      <path class="cls-9" d="M253.8,210.9v11.3-11.3Z"/>
      <path class="cls-3" d="M253.8,210.9v11.3"/>
      <path class="cls-9" d="M256.4,260.3v-35.5,35.5Z"/>
      <path class="cls-3" d="M256.4,260.3v-35.5"/>
      <path class="cls-9" d="M287.9,326.8v-34.4,34.4Z"/>
      <path class="cls-3" d="M287.9,326.8v-34.4"/>
      <path class="cls-9" d="M253.8,222.2l2.6,2.6-2.6-2.6Z"/>
      <path class="cls-3" d="M253.8,222.2l2.6,2.6"/>
      <path class="cls-9" d="M259.6,314.9l11.7,11.9-11.7-11.9Z"/>
      <path class="cls-3" d="M259.6,314.9l11.7,11.9"/>
      <path class="cls-9" d="M287.9,292.4l-31.5-32,31.5,32Z"/>
      <path class="cls-3" d="M287.9,292.4l-31.5-32"/>
      <path class="cls-9" d="M259.6,309.6v5.3-5.3Z"/>
      <path class="cls-3" d="M259.6,309.6v5.3"/>
      <path class="cls-9" d="M266.6,224.8l.2-.2-.2.2Z"/>
      <path class="cls-3" d="M266.6,224.8l.2-.2"/>
      <path class="cls-9" d="M248.5,178.4h.4-.4Z"/>
      <path class="cls-3" d="M248.5,178.4h.4"/>
      <path class="cls-9" d="M237.1,194v-4.1,4.1Z"/>
      <path class="cls-3" d="M237.1,194v-4.1"/>
      <path class="cls-9" d="M292.4,290.5v38.2-38.2Z"/>
      <path class="cls-3" d="M292.4,290.5v38.2"/>
      <path class="cls-9" d="M261.5,182h-9,9Z"/>
      <path class="cls-3" d="M261.5,182h-9"/>
      <path class="cls-9" d="M233.1,194h4-4Z"/>
      <path class="cls-3" d="M233.1,194h4"/>
      <path class="cls-9" d="M253.8,183.3l-4.9-4.9,4.9,4.9Z"/>
      <path class="cls-3" d="M253.8,183.3l-4.9-4.9"/>
      <path class="cls-9" d="M267.4,236.7h0c0,.1,0,0,0,0Z"/>
      <path class="cls-3" d="M267.4,236.7h0"/>
      <path class="cls-9" d="M252.4,182l-3.5-3.6,3.5,3.6Z"/>
      <path class="cls-3" d="M252.4,182l-3.5-3.6"/>
      <path class="cls-9" d="M267.4,236.7l1.1-1.1-1.1,1.1Z"/>
      <path class="cls-3" d="M267.4,236.7l1.1-1.1"/>
      <path class="cls-9" d="M253.8,192.3v-9,9Z"/>
      <path class="cls-3" d="M253.8,192.3v-9"/>
      <path class="cls-9" d="M260.9,258.4l31.5,32-31.5-32Z"/>
      <path class="cls-3" d="M260.9,258.4l31.5,32"/>
      <path class="cls-9" d="M239.6,228.4l-3.5-3.6,3.5,3.6Z"/>
      <path class="cls-3" d="M239.6,228.4l-3.5-3.6"/>
      <path class="cls-9" d="M239.6,309.6v-81.1,81.1Z"/>
      <path class="cls-3" d="M239.6,309.6v-81.1"/>
      <path class="cls-9" d="M237.1,189.9l11.4-11.5-11.4,11.5Z"/>
      <path class="cls-3" d="M237.1,189.9l11.4-11.5"/>
      <path class="cls-9" d="M230.8,196.4l2.4-2.4-2.4,2.4Z"/>
      <path class="cls-3" d="M230.8,196.4l2.4-2.4"/>
      <path class="cls-9" d="M230.8,219.5v-23,23Z"/>
      <path class="cls-3" d="M230.8,219.5v-23"/>
      <path class="cls-9" d="M239.6,318.4v-8.8,8.8Z"/>
      <path class="cls-3" d="M239.6,318.4v-8.8"/>
      <path class="cls-9" d="M267.4,236.8l-6.5,6.6,6.5-6.6Z"/>
      <path class="cls-3" d="M267.4,236.8l-6.5,6.6"/>
      <path class="cls-9" d="M268.5,235.6v-8.8,8.8Z"/>
      <path class="cls-3" d="M268.5,235.6v-8.8"/>
      <path class="cls-9" d="M268.5,226.8l-1.9-2,1.9,2Z"/>
      <path class="cls-3" d="M268.5,226.8l-1.9-2"/>
      <path class="cls-9" d="M252.4,331.4l-12.8-13,12.8,13Z"/>
      <path class="cls-3" d="M252.4,331.4l-12.8-13"/>
      <path class="cls-9" d="M236,224.8l-5.3-5.4,5.3,5.4Z"/>
      <path class="cls-3" d="M236,224.8l-5.3-5.4"/>
      <path class="cls-9" d="M289.7,331.4h-37.3,37.3Z"/>
      <path class="cls-3" d="M289.7,331.4h-37.3"/>
      <path class="cls-9" d="M260.9,243.4v15-15Z"/>
      <path class="cls-3" d="M260.9,243.4v15"/>
      <path class="cls-9" d="M292.4,328.7l-2.6,2.7,2.6-2.7Z"/>
      <path class="cls-3" d="M292.4,328.7l-2.6,2.7"/>
      <path class="cls-9" d="M263.5,209.2h-3.1,3.1Z"/>
      <path class="cls-3" d="M263.5,209.2h-3.1"/>
      <path class="cls-9" d="M275,239.5v-18.6,18.6Z"/>
      <path class="cls-3" d="M275,239.5v-18.6"/>
      <path class="cls-9" d="M275,220.8l-11.4-11.6,11.4,11.6Z"/>
      <path class="cls-3" d="M275,220.8l-11.4-11.6"/>
      <path class="cls-9" d="M267.5,247.1l7.5-7.6-7.5,7.6Z"/>
      <path class="cls-3" d="M267.5,247.1l7.5-7.6"/>
      <path class="cls-9" d="M299.8,209.2l6.9-7-6.9,7Z"/>
      <path class="cls-3" d="M299.8,209.2l6.9-7"/>
      <path class="cls-9" d="M267.4,247.1h.1-.1Z"/>
      <path class="cls-3" d="M267.4,247.1h.1"/>
      <path class="cls-9" d="M260.4,209.2h39.4-39.4Z"/>
      <path class="cls-3" d="M260.4,209.2h39.4"/>
      <path class="cls-8" d="M242.6,196v-.2c0,0,.2-.5.2-.5v-1.7h0c0,0,0-.2,0-.2v-.2c.1,0,.2-.3.2-.3h0c0,0,0-.1,0-.1h.2c0-.1.2-.3.2-.3h.1s0,0,0,0h.3c0,0,.3,0,.3,0l.7.2.5.5v.5c.1,0,.1,4.4.1,4.4h0s.2-.1.2-.1h.7c0-.1.4,0,.4,0h.2c0,.1,0,.1,0,.1v-4.4h0c0,0,0-.2,0-.2v-.2c.1,0,.2-.3.2-.3h0c0,0,0-.1,0-.1h.2c0-.1.2-.3.2-.3h.1s0,0,0,0h.3c0,0,0,0,0,0l.7.2.5.5v.5c.1,0,.1,1.4.1,1.4v.5c0,0,.6,1.1.6,1.1l.8.9,1,.5h.1c0,0,.5.1.5.1h1s0,0,0,0h.3c0,.1.3.2.3.2h0s0,0,0,0l.2.3.2.3h0s0,0,0,0v.3c0,0,0,0,0,0v1.6c0,0,.2.4.2.4v.2s0,.2,0,.2v.2s0,.4,0,.4v.2c0,0-.2.5-.2.5v1l-.2.7-.5.5h-.5c0,.1-1,.1-1,.1h-.2s-.3,0-.3,0h-.2c0,.1-.7.2-.7.2h-.4c0-.1-.2-.2-.2-.2h-.5c0,0-2.5,0-2.5,0h-.5c0,0-.2.2-.2.2h-.7c0,.1-.2,0-.2,0l-.4-.2h-.5c0,0-1.1,0-1.1,0h0s-.3-.1-.3-.1h-.3c0,0,0-.1,0-.1h0s-.2-.3-.2-.3l-.2-.2h0c0,0,0-.1,0-.1h0c0-.1,0-.4,0-.4v-1h0c0-.1,0-.5,0-.5v-.2c0,0-.2-.7-.2-.7v-.4c.1,0,.2-.2.2-.2v-.5c0,0,0-2.6,0-2.6h0c0-.1,0-.5,0-.5v-.2c0,0-.2-.7-.2-.7v-.4Z"/>
      <path class="cls-8" d="M154,114.1v-.3s.1-1.3.1-1.3v-.2s.4-1.2.4-1.2v-.3c0,0,.2-.2.2-.2l.6-1.4v-.2c.1,0,1-1.3,1-1.3v-.2c.1,0,1.2-1.1,1.2-1.1h.2c0-.1,1.2-1,1.2-1h.2c0-.1,1.4-.8,1.4-.8h.2c0,0,1.5-.5,1.5-.5h.2s1.6-.2,1.6-.2h.1s169.9,0,169.9,0h.1s1.6.1,1.6.1h.2s1.5.4,1.5.4h.2c0,0,1.4.7,1.4.7h.2c0,.1,1.2,1,1.2,1h.2c0,.1,1.1,1.2,1.1,1.2v.2c.1,0,1,1.3,1,1.3v.2c.1,0,.8,1.4.8,1.4v.2c0,0,.5,1.5.5,1.5v.2s.2,1.6.2,1.6h0v274.3h0c0,.1-.1,1.7-.1,1.7v.2s-.4,1.5-.4,1.5v.2c0,0-.7,1.4-.7,1.4v.2c-.1,0-1,1.3-1,1.3v.2c-.1,0-1.2,1.1-1.2,1.1h-.2c0,.1-1.2,1-1.2,1h-.2c0,.1-1.4.8-1.4.8h-.2c0,0-1.2.4-1.2.4h-.3c0,0-.2.1-.2.1h-.8c0,0-.7.1-.7.1h-.1s-19.2,0-19.2,0l-.7-.2-.5-.5v-.5c-.1,0-.1-8.4-.1-8.4l.2-.7.5-.5h.7c0-.1.6.2.6.2h0c0,0,1.3,1.4,1.3,1.4l1.7,1.3,1.9,1,2,.7,2.1.3h2.1l2.1-.3h.2c0,0,1.8-.7,1.8-.7l1.9-1,1.7-1.3,1.5-1.5,1.2-1.7,1-1.9.7-2.1.3-2.1v-2.2l-.3-2.1-.7-2.1-1-1.9-.2-.2-1.1-1.5-1.5-1.5-1.7-1.3-1.9-1-2-.7-2.1-.3h-1.9v-226.3h2.1l1.9-.3h.2s1.8-.6,1.8-.6h.2c0,0,1.9-1,1.9-1l1.7-1.3,1.5-1.5,1.2-1.7,1-1.9.7-2.1.3-2.1v-2.2l-.3-2.1-.7-2.1-1-1.9-.2-.3-1-1.4-1.5-1.5-1.7-1.3-1.9-1-2-.7-2.1-.3h-2.1l-2.1.3-2,.7-1.9,1-1.7,1.3-1.5,1.5-1.2,1.7-1,1.9-.7,2.1-.3,1.6v.5c0,0,0,2.2,0,2.2v.5c0,0,.3,1.6.3,1.6l.7,2.1,1,1.9,1.2,1.7,1.5,1.5,1.7,1.3,1.9,1,2,.7,2.1.3v226.3h-.2l-2.1.3-2,.7-1.9,1-1.7,1.3-1.5,1.6-.6.3h-.7c0,0-.6-.5-.6-.5l-.2-.3h0c0-.1-.6-.9-.6-.9l-.8-.6h-.7c0-.1-5.2-.1-5.2-.1v16.5l-.2.7-.5.5h-.5c0,.1-1.3.1-1.3.1v1.3l-.2.7-.5.5h-.5c0,.1-1.3.1-1.3.1v-20.3h-6c0,.1-.8.7-.8.7l-.6.8v.7c-.1,0-.1,12.9-.1,12.9h7.5v5.1h-7.5v9.1l-.2.7-.5.5h-.5c0,.1-40.4.1-40.4.1v-63.5h38.3l1-.3.7-.4h.2c0,0,1.5-1.6,1.5-1.6l1.1-1.2.7-.7.4-.7h0c0-.1.1-.6.1-.6h0c0-.1.1-.5.1-.5v-39.7c-.1,0-.3-.5-.3-.5l-.5-.9-.7-.7-.6-.6-29.1-29.6-.3-.6v-.3s0-2.7,0-2.7l.2-.7.5-.5h.5c0-.1,3.7-.1,3.7-.1h.7c0-.1,1.2-.7,1.2-.7l.9-.9.5-1.1h0s.1-.8.1-.8v-1.5l.2-.7.2-.2,3.8-3.9.7-.7.5-.9v-.5c.1,0,.2-.1.2-.1v-.4c.1,0,.1-19.6.1-19.6v-.5c-.1,0-.3-.5-.3-.5l-.5-.9-.7-.7-.6-.6-2-2-.3-.6v-.7s.5-.6.5-.6l.7-.2h0s24.8,0,24.8,0h.4c0-.1,0-.1,0-.1h.5c0-.1.3-.3.3-.3h0s.2,0,.2,0h.2c0,0,9.6,0,9.6,0h.3s.2,0,.2,0l.9-.4.7-.7,5-7.6.4-.9v-1s-.4-.9-.4-.9l-5-7.6-.3-.4-.8-.6-1-.2h-10l-1,.2-.8.6-.6.8-.2,1v9.7c0,0-.2.3-.2.3h0c0,0,0,0,0,0l-.2.2h-.1c0,.1-.6.5-.6.5h-.3s-30.5,0-30.5,0l-.7-.2-.5-.5v-.5c-.1,0-.1-1.3-.1-1.3h0c0-.1,0-.5,0-.5v-.2c0,0-.2-.7-.2-.7v-.4c.1,0,.2-.2.2-.2v-.5c0,0,0-2.6,0-2.6h0c0-.1,0-.5,0-.5v-.2c0,0-.2-.7-.2-.7v-.4c.1,0,.2-.2.2-.2v-.5c0,0,0-2.6,0-2.6h0c0-.1,0-.5,0-.5l-.5-1.1-.8-.9-1.1-.5h0s-.5-.5-.5-.5l-.2-.7.2-.7.5-.5h.3c0,0,.6-.2.6-.2l1.1-.6.9-.9.6-1.1v-.4c0,0,.1-.6.1-.6v-3.9c0,0-.1-.5-.1-.5l-.6-1.1-.2-.2-.3-.6v-.7s.3-.5.3-.5l.2-.2.6-1.1h0v-5.2h0c0-.1-.6-1.2-.6-1.2l-.9-.9-1.1-.6h-.4c0,0,0,2.7,0,2.7h3v5.1h-8v-7.8h-.4c0,0-1.1.6-1.1.6l-.9.9-.6,1.1h0c0,.1,3,.1,3,.1v5.1h-2.3l-.7-.2-.4-.4h0c0-.1-.2-.7-.2-.7l-.8-1.1-1.1-.8-1.3-.5h-.2s-.4,0-.4,0h-6c0,0-.2.1-.2.1l-.5.2-.5.2-1.1.8-.8,1.1v.2c0,0-.1.2-.1.2l-.4.6-.7.2-.7-.2-.5-.5v-.2c0,0-.2-.3-.2-.3l-.8-1.1-1.1-.8-1.3-.5h-.6c0,0-.2,0-.2,0v14.3l-.2.7-.2.2-1.4,1.4-.5.9v.5c-.1,0-.2.4-.2.4l-.2.3-.2.3-.5.3-.8.2-.9.5h-.1c0,.1,0-5.2,0-5.2h.2v-14.7h-.8c0,0-1.3.5-1.3.5l-1.1.8-.8,1.1-.5,1.3v.6c0,0,0,.5,0,.5h4.5v5.1h-4.5v1c0,0,.5,1.3.5,1.3l.8,1.1,1.1.8,1.3.5h.6v5.4l-.6.6-2.4,2.4-.5.9v.5c-.1,0-.3.5-.3.5v24.5c.1,0,.3.5.3.5l.5.9,2.7,2.8.3.6v.3s0,1.6,0,1.6v.8c.1,0,.7,1.2.7,1.2l.9.9,1.2.6h.7c0,.1.3.1.3.1l.7.2.5.5v.5c.1,0,.1,60,.1,60l-.2.7-.5.5h-.5c0,.1-.3.1-.3.1h-.7c0,.1-.4.4-.4.4l-.5.3-.6.8v.7c-.1,0-.1,28.3-.1,28.3v.7c.1,0,.7.8.7.8l.8.6h.7c0,.1,7,.1,7,.1l.7.2.2.2,7.9,8,.9.5,1,.3v63.5h-27v-72.6h.7c0-.1.8-.7.8-.7l.6-.8v-.7c.1,0,.1-11.6.1-11.6v-17.4c-.1,0-.7-.8-.7-.8l-.8-.6h-.7c0-.1-2.8-.1-2.8-.1v13.9h5v5.1h-5v13.9h2.8v72.6h-10.6v-72.6h2.8v-32.9h-3.5c0,.1-.8.7-.8.7l-.6.8v.7c-.1,0-.1,11.6-.1,11.6h5v5.1h-5v12.4c.1,0,.7.8.7.8l.8.6h.7v72.8h-7.4l-.7-.2-.5-.5v-.5c-.1,0-.1-9.1-.1-9.1v-18.8c-.1,0-.7-.8-.7-.8l-.8-.6h-.7c0-.1-5.2-.1-5.2-.1v15.2h7.5v5.1h-8.8l-.7-.2-.5-.5v-.5c-.1,0-.1-1.3-.1-1.3h-1.3l-.7-.2-.5-.5v-.5c-.1,0-.1-16.5-.1-16.5h-6c0,.1-.8.7-.8.7l-.6.8h0c0,0-.4.6-.4.6l-.7.2-.7-.2-.2-.2-1.5-1.5-1.7-1.3-1.9-1-2-.7-2.1-.3h-1.9v-226.3h2.1l1.9-.3h.2s1.8-.6,1.8-.6h.2c0,0,1.9-1,1.9-1l1.7-1.3,1.5-1.5,1.2-1.7,1-1.9.7-2.1.3-2.1v-2.2l-.3-2.1-.7-2.1-1-1.9-.5-.7-.7-1-1.5-1.5-1.7-1.3-1.9-1-2-.7-2.1-.3h-2.1l-2.1.3-2,.7-1.9,1-1.7,1.3-1.5,1.5-1.2,1.7-1,1.9-.7,2.1-.3,1.6v.5c0,0,0,2.2,0,2.2v.5c0,0,.3,1.6.3,1.6l.7,2.1,1,1.9,1.2,1.7,1.5,1.5,1.7,1.3,1.9,1,2,.7,2.1.3v226.3h-.2l-2.1.3-2,.7-1.9,1-1.7,1.3-1.5,1.5-1.2,1.7-1,1.9-.7,2.1-.3,1.6v.5c0,0,0,2.2,0,2.2v.5c0,0,.3,1.6.3,1.6l.7,2.1,1,1.9,1.2,1.7,1.5,1.5,1.7,1.3,1.9,1,2,.7,2.1.3h2.1l2.1-.3h.2c0,0,1.8-.7,1.8-.7l1.9-1,1.7-1.3,1.3-1.3.6-.3h.7c0,0,.6.5.6.5l.2.7h0v8.5l-.2.7-.5.5h-.5c0,.1-20.3.1-20.3.1h-.1s-.8,0-.8,0h-.7c0,0-.2-.1-.2-.1l-1.5-.4h-.2c0,0-.3-.2-.3-.2l-1.1-.5h-.2c0-.1-1.2-1-1.2-1h-.2c0-.1-1.1-1.2-1.1-1.2v-.2c-.1,0-1-1.3-1-1.3v-.2c-.1,0-.8-1.4-.8-1.4v-.2c0,0-.5-1.5-.5-1.5v-.2s-.2-1.3-.2-1.3v-.3s0-.1,0-.1V114.2h0Z"/>
      <rect class="cls-12" x="264" y="227.1" width="6" height="5.7"/>
      <rect class="cls-4" x="264" y="232.9" width="6" height="3.1"/>
      <rect class="cls-4" x="264" y="224" width="6" height="3.1"/>
      <rect class="cls-12" x="238.1" y="222" width="5.7" height="6"/>
      <rect class="cls-4" x="235" y="222" width="3.1" height="6"/>
      <rect class="cls-4" x="243.9" y="222" width="3.1" height="6"/>
      <rect class="cls-12" x="236.2" y="174" width="7.7" height="8"/>
      <rect class="cls-4" x="232" y="174" width="4.2" height="8"/>
      <rect class="cls-4" x="243.8" y="174" width="4.2" height="8"/>
      <path class="cls-7" d="M195.3,167.4v-2.3h3.1v-9.5h-3.1v-2.3h9v2.3h-3.1v9.5h3.1v2.3h-9Z"/>
      <path class="cls-7" d="M209.1,153.3c.1.3.3.7.4,1.2.1.5.3,1,.5,1.6.2.6.4,1.2.5,1.8.2.6.4,1.1.5,1.6.2-.5.4-1.1.6-1.8.2-.6.4-1.2.6-1.7.2-.5.4-1.1.5-1.6.1-.5.3-.9.4-1.2h2.3c.1,1.2.2,2.4.3,3.6.1,1.2.2,2.3.3,3.5,0,1.1.1,2.3.2,3.5,0,1.2,0,2.3.1,3.6h-2.6v-11c.1,0-1.6,6-1.6,6h-2l-1.7-6v11c.1,0-2.5,0-2.5,0,0-1.2.1-2.3.1-3.6,0-1.3.1-2.5.2-3.7,0-1.2.1-2.4.2-3.6,0-1.2.2-2.2.3-3.2h2.3-.1Z"/>
      <path class="cls-7" d="M222.5,167.7c-.9,0-1.7-.1-2.3-.4-.6-.3-1.1-.6-1.5-1.1-.4-.5-.6-1-.8-1.7-.1-.7-.2-1.4-.2-2.2v-9h2.8v8.8c0,.6,0,1.1,0,1.5,0,.4.1.7.3,1s.3.4.6.5c.3.1.6.1,1,.1s.7,0,1-.1c.3-.1.5-.3.6-.5s.3-.6.3-1c0-.4,0-.9,0-1.5v-8.8h2.8v9c0,.8,0,1.6-.2,2.2-.1.7-.4,1.2-.8,1.7-.4.5-.9.8-1.5,1.1-.6.3-1.4.4-2.3.4h0Z"/>
      <path class="cls-7" d="M244.9,165.4c.5,0,.9,0,1.2-.1.3-.1.5-.2.7-.4s.3-.4.4-.6c0-.2.1-.4.1-.7s0-.5-.3-.8c-.2-.2-.4-.4-.6-.6-.3-.2-.5-.3-.9-.5-.3-.1-.6-.3-1-.4-.4-.1-.9-.3-1.3-.5-.4-.2-.9-.4-1.2-.8-.4-.3-.7-.7-.9-1.1-.2-.4-.4-1-.4-1.7,0-1.3.4-2.3,1.3-3.1.8-.7,2-1.1,3.5-1.1s1.6.1,2.3.3,1.2.4,1.6.7l-.8,2.2c-.4-.2-.8-.4-1.3-.5-.5-.1-1-.2-1.6-.2-1.5,0-2.2.5-2.2,1.6s0,.5.2.7c.1.2.3.4.6.5.2.1.5.3.8.4.3.1.6.2.9.3.4.2.9.4,1.4.5.5.2.9.5,1.3.8.4.3.7.8,1,1.3.3.5.4,1.1.4,1.9,0,1.3-.4,2.3-1.3,3.1-.8.7-2.2,1.1-3.9,1.1s-2.1-.1-2.8-.4c-.7-.3-1.2-.5-1.6-.7l.8-2.3c.4.3.9.5,1.5.7.6.2,1.3.3,2.1.3h0Z"/>
      <path class="cls-7" d="M252.5,167.4v-14.1h8.6v2.3h-5.7v3.2h5v2.3h-5v3.9h6.3v2.3h-9.1Z"/>
      <path class="cls-7" d="M270.5,167.4c-.6-1.6-1.3-3.1-2.1-4.7-.8-1.6-1.6-3.1-2.4-4.7v9.4h-2.5v-14.1h2.3c.4.7.8,1.4,1.3,2.2.4.8.8,1.6,1.2,2.3.4.8.8,1.5,1.1,2.3.3.7.6,1.4.9,1.9v-8.7h2.5v14.1h-2.3Z"/>
      <path class="cls-7" d="M279.1,165.4c.5,0,.9,0,1.2-.1.3-.1.5-.2.7-.4.2-.2.3-.4.4-.6,0-.2.1-.4.1-.7s0-.5-.3-.8c-.2-.2-.4-.4-.6-.6-.3-.2-.5-.3-.9-.5-.3-.1-.6-.3-1-.4-.4-.1-.9-.3-1.3-.5s-.9-.4-1.2-.8c-.4-.3-.7-.7-.9-1.1-.2-.4-.4-1-.4-1.7,0-1.3.4-2.3,1.3-3.1.8-.7,2-1.1,3.5-1.1s1.6.1,2.3.3,1.2.4,1.6.7l-.8,2.2c-.4-.2-.8-.4-1.3-.5-.5-.1-1-.2-1.6-.2-1.5,0-2.2.5-2.2,1.6s0,.5.2.7c.1.2.3.4.6.5.2.1.5.3.8.4.3.1.6.2.9.3.4.2.9.4,1.4.5.5.2.9.5,1.3.8.4.3.7.8,1,1.3.3.5.4,1.1.4,1.9,0,1.3-.4,2.3-1.3,3.1-.8.7-2.2,1.1-3.9,1.1s-2.1-.1-2.8-.4-1.2-.5-1.6-.7l.8-2.3c.4.3.9.5,1.5.7.6.2,1.3.3,2.1.3h0Z"/>
      <path class="cls-7" d="M285.9,160.4c0-2.5.4-4.3,1.4-5.5.9-1.2,2.2-1.9,3.7-1.9s2.9.6,3.8,1.9c.9,1.2,1.3,3.1,1.3,5.5s-.4,4.3-1.3,5.5c-.9,1.2-2.1,1.9-3.7,1.9s-2.9-.6-3.8-1.9c-.9-1.2-1.3-3.1-1.3-5.5h0ZM288.7,160.4c0,.7,0,1.3,0,1.9,0,.6.1,1.1.3,1.6.1.4.4.8.7,1.1.3.3.7.4,1.2.4s.8-.1,1.1-.4c.3-.3.5-.6.7-1.1.1-.4.3-1,.3-1.6,0-.6,0-1.2,0-1.9s0-1.3,0-1.9c0-.6-.1-1.1-.3-1.6-.2-.4-.4-.8-.7-1.1-.3-.3-.7-.4-1.2-.4s-.9.1-1.2.4c-.3.3-.5.6-.7,1.1-.1.4-.3,1-.3,1.6,0,.6,0,1.2,0,1.9Z"/>
      <path class="cls-7" d="M301.6,153.2c.8,0,1.5,0,2.2.3.7.2,1.2.5,1.7.8.5.4.8.9,1.1,1.5.3.6.4,1.3.4,2s-.2,1.6-.5,2.2c-.3.7-.9,1.2-1.7,1.5.3.4.5.8.8,1.3.3.5.6,1,.8,1.5.3.5.5,1.1.8,1.6.3.5.5,1,.7,1.5h-2.9c-.4-.9-.8-1.8-1.2-2.6-.5-.8-1-1.7-1.5-2.6h-1.5v5.2h-2.8v-13.9c.3,0,.6-.1.9-.2.3,0,.7,0,1-.1.3,0,.7,0,1,0h.8ZM304,157.8c0-.7-.2-1.3-.7-1.6-.4-.4-1.1-.5-1.8-.5h-.4c-.2,0-.3,0-.4,0v4.2h.6c1,0,1.6-.2,2.1-.5.4-.4.6-.9.6-1.6h0Z"/>
      <path class="cls-7" d="M196,141.6c-.4,0-.8,0-1.1.2-.3.1-.5.4-.7.7-.2.3-.3.6-.4,1,0,.4-.1.8-.1,1.3,0,1.1.2,1.9.5,2.4.3.5.8.8,1.5.8h.4c.1,0,.3,0,.4,0v-3.3h1.8v4.5c-.2,0-.5.2-1,.3-.4.1-1,.1-1.6.1s-1.1-.1-1.5-.3c-.4-.2-.8-.5-1.2-.9-.3-.4-.6-.9-.7-1.5-.2-.6-.3-1.3-.3-2s.1-1.5.3-2c.2-.6.5-1.1.8-1.5.4-.4.8-.7,1.2-.9.5-.2,1-.3,1.5-.3s.7,0,1,0c.3,0,.5.1.7.2.2,0,.4.1.5.2.1,0,.2.1.3.2l-.5,1.4c-.2-.1-.5-.3-.8-.4-.3-.1-.6-.1-1-.1h0Z"/>
      <path class="cls-7" d="M201.9,140.1c.5,0,1,0,1.4.2.4.1.8.3,1.1.5.3.3.5.5.7.9.1.4.3.8.3,1.3s-.1,1-.3,1.4-.6.8-1.1,1c.2.3.3.5.5.8.2.3.4.6.5,1,.2.3.3.7.5,1,.1.3.3.7.4,1h-1.9c-.2-.6-.5-1.1-.8-1.7-.3-.5-.6-1.1-1-1.6h-1v3.3h-1.8v-8.9s.4,0,.6-.1c.2,0,.4,0,.6,0h1.1ZM203.5,143.1c0-.5-.1-.8-.4-1.1-.3-.2-.7-.3-1.2-.3h-.3c-.1,0-.2,0-.3,0v2.7h.4c.6,0,1.1-.1,1.3-.4s.4-.6.4-1h0Z"/>
      <path class="cls-7" d="M206.5,144.7c0-1.6.3-2.7.9-3.5.6-.8,1.4-1.2,2.4-1.2s1.9.4,2.4,1.2c.5.8.8,2,.8,3.5s-.3,2.7-.8,3.5c-.5.8-1.4,1.2-2.4,1.2s-1.9-.4-2.5-1.2c-.6-.8-.8-2-.8-3.5ZM208.3,144.7c0,.4,0,.8,0,1.2,0,.4.1.7.2,1,.1.3.3.5.4.7.2.1.4.3.7.3s.5,0,.7-.3c.2-.2.3-.4.4-.7.1-.3.2-.6.2-1,0-.4,0-.8,0-1.2s0-.8,0-1.2c0-.4-.1-.7-.2-1-.1-.3-.3-.5-.4-.7-.2-.2-.4-.3-.7-.3s-.5,0-.7.3-.3.4-.4.7c-.1.3-.2.6-.2,1,0,.4,0,.8,0,1.2Z"/>
      <path class="cls-7" d="M216.1,149.3c-.2-.7-.5-1.4-.7-2.3s-.5-1.7-.7-2.5c-.2-.8-.4-1.6-.6-2.4-.2-.8-.3-1.4-.4-1.8h1.9c0,.5.1,1,.3,1.6s.3,1.2.4,1.9c.1.7.3,1.3.4,1.9.1.6.3,1.2.5,1.7.1-.5.3-1.1.5-1.7.1-.6.3-1.3.4-1.9.1-.7.3-1.3.4-1.9.1-.6.2-1.2.3-1.6h1.9c-.1.6-.3,1.2-.4,2-.2.7-.4,1.5-.6,2.3-.2.8-.5,1.6-.7,2.4-.3.8-.5,1.6-.8,2.4h-1.9Z"/>
      <path class="cls-7" d="M221.6,149.3v-9.1h5.5v1.5h-3.7v2h3.2v1.5h-3.2v2.6h4v1.5h-5.8Z"/>
      <path class="cls-7" d="M239.6,149.5c-1.3,0-2.3-.4-2.9-1.2-.7-.8-1-2-1-3.5s.1-1.4.3-2c.2-.6.5-1.1.8-1.5.4-.4.8-.7,1.3-.9.5-.2,1.1-.3,1.6-.3s.6,0,.9,0c.3,0,.5.1.7.2.2,0,.4.1.5.2.1,0,.2.1.3.2l-.5,1.4c-.2-.1-.5-.3-.8-.4-.3-.1-.7-.1-1.1-.1s-.5,0-.8.1c-.3.1-.5.3-.7.5-.2.3-.4.5-.5,1-.1.4-.2.9-.2,1.5,0,1,.2,1.8.5,2.4.4.5,1,.8,1.8.8s.8,0,1.2-.1c.3-.1.5-.2.7-.3l.4,1.4c-.3.1-.6.3-1,.4-.4.1-1,.2-1.5.2h0Z"/>
      <path class="cls-7" d="M243,144.7c0-1.6.3-2.7.9-3.5.6-.8,1.4-1.2,2.4-1.2s1.9.4,2.4,1.2c.5.8.8,2,.8,3.5s-.3,2.7-.8,3.5c-.5.8-1.4,1.2-2.4,1.2s-1.9-.4-2.5-1.2c-.6-.8-.8-2-.8-3.5ZM244.9,144.7c0,.4,0,.8,0,1.2,0,.4.1.7.2,1,.1.3.3.5.4.7.2.1.4.3.7.3s.5,0,.7-.3c.2-.2.3-.4.4-.7.1-.3.2-.6.2-1,0-.4,0-.8,0-1.2s0-.8,0-1.2c0-.4-.1-.7-.2-1-.1-.3-.3-.5-.4-.7-.2-.2-.4-.3-.7-.3s-.5,0-.7.3-.3.4-.4.7c-.1.3-.2.6-.2,1,0,.4,0,.8,0,1.2Z"/>
      <path class="cls-7" d="M252.3,140.2c0,.2.1.5.3.8.1.3.2.7.3,1,.1.4.2.7.4,1.1.1.4.2.7.3,1.1.1-.4.2-.7.4-1.1.1-.4.3-.8.4-1.1.1-.4.2-.7.3-1,.1-.3.2-.6.3-.8h1.5c0,.8.1,1.6.2,2.3,0,.8.1,1.5.1,2.2,0,.7,0,1.5.1,2.2,0,.7,0,1.5,0,2.3h-1.6v-7c0,0-1,3.8-1,3.8h-1.3l-1.1-3.8v7c0,0-1.6,0-1.6,0,0-.7,0-1.5.1-2.3,0-.8,0-1.6.1-2.4,0-.8,0-1.6.1-2.3,0-.7.1-1.4.2-2h1.5,0Z"/>
      <path class="cls-7" d="M260.6,140.1c1.1,0,2,.2,2.7.7.6.5,1,1.2,1,2.3s-.3,1.9-1,2.3c-.6.5-1.5.7-2.7.7h-.7v3.1h-1.8v-8.9s.4,0,.6-.1c.2,0,.4,0,.7,0h1.2ZM260.7,141.7h-.4c-.2,0-.3,0-.4,0v2.9h.7c.6,0,1-.1,1.3-.3.3-.2.4-.6.4-1.2s-.1-.9-.4-1.1c-.3-.2-.7-.3-1.1-.3h0Z"/>
      <path class="cls-7" d="M269.8,149.3l-.4-2.1h-2.4l-.4,2.1h-1.9c.4-1.8.9-3.4,1.3-4.9s.9-2.9,1.3-4.2h2c.4,1.3.8,2.7,1.3,4.2.4,1.5.8,3.1,1.2,4.8h-2ZM268.2,142c-.1.3-.2.7-.3,1,0,.3-.1.6-.2.9,0,.3-.1.6-.2.9,0,.3-.1.6-.2,1h1.8c0-.3-.1-.6-.2-1,0-.3-.1-.6-.2-.9,0-.3-.1-.6-.2-.9,0-.3-.2-.6-.3-1h0Z"/>
      <path class="cls-7" d="M278.8,140.2v1.5h-2.4v7.6h-1.8v-7.6h-2.4v-1.5h6.6Z"/>
      <path class="cls-7" d="M280,149.3v-1.5h2v-6.1h-2v-1.5h5.7v1.5h-2v6.1h2v1.5h-5.7Z"/>
      <path class="cls-7" d="M293.4,146.5c0,.5-.1,1-.3,1.4-.2.4-.4.7-.8.9-.3.2-.7.4-1.1.5s-.9.1-1.4.1-.8,0-1.2,0c-.4,0-.8-.1-1.3-.2v-8.8c.3,0,.7-.1,1.1-.1.4,0,.8,0,1.2,0,.7,0,1.2,0,1.7.2.4.1.8.3,1,.5.3.2.4.5.5.8.1.3.1.5.1.8,0,.4-.1.8-.3,1.1-.2.3-.5.6-.8.8.6.2,1,.5,1.2.9.2.4.3.8.3,1.2h0ZM289.8,143.8c.5,0,.8-.1,1-.3.2-.2.4-.5.4-.8s0-.4-.1-.5c-.1-.1-.1-.2-.3-.3-.1,0-.3-.1-.4-.1-.1,0-.3,0-.5,0h-.4c-.1,0-.3,0-.4,0v2.1h.7ZM289.1,145.3v2.5s.3,0,.4,0h.4c.2,0,.4,0,.6,0,.2,0,.4-.1.5-.2.1,0,.3-.2.4-.4.1-.2.1-.4.1-.7,0-.4-.1-.8-.4-1-.3-.2-.7-.3-1.1-.3h-1,0Z"/>
      <path class="cls-7" d="M300.6,149.3h-5.7v-9.1h1.8v7.6h3.9v1.5Z"/>
      <path class="cls-7" d="M302.1,149.3v-9.1h5.5v1.5h-3.7v2h3.2v1.5h-3.2v2.6h4v1.5h-5.8Z"/>
      <path class="cls-7" d="M245.9,286.5c-.7.2-1.4.5-2.3.7-.8.3-1.7.5-2.5.7-.8.2-1.6.4-2.4.6-.8.2-1.4.3-1.8.4v-1.9c.5,0,1-.1,1.6-.3.6-.1,1.2-.3,1.9-.4.7-.1,1.3-.3,1.9-.4.6-.1,1.2-.3,1.7-.5-.5-.1-1.1-.3-1.7-.5-.6-.1-1.3-.3-1.9-.4-.7-.1-1.3-.3-1.9-.4-.6-.1-1.2-.2-1.6-.3v-1.9c.6.1,1.2.3,2,.4.7.2,1.5.4,2.3.6.8.2,1.6.5,2.4.7.8.3,1.6.5,2.4.8v1.9h0Z"/>
      <path class="cls-7" d="M246,277.6c0,1.3-.4,2.3-1.2,2.9-.8.7-2,1-3.5,1s-1.4-.1-2-.3c-.6-.2-1.1-.5-1.5-.8-.4-.4-.7-.8-.9-1.3-.2-.5-.3-1.1-.3-1.6s0-.6,0-.9c0-.3.1-.5.2-.7,0-.2.1-.4.2-.5,0-.1.1-.2.2-.3l1.4.5c-.1.2-.3.5-.4.8-.1.3-.1.7-.1,1.1s0,.5.1.8.3.5.5.7c.3.2.5.4,1,.5.4.1.9.2,1.5.2,1,0,1.8-.2,2.4-.5.5-.4.8-1,.8-1.8s0-.8-.1-1.2c-.1-.3-.2-.5-.3-.7l1.4-.4c.1.3.3.6.4,1,.1.4.2,1,.2,1.5h0Z"/>
      <path class="cls-7" d="M246,270.3c0,1.3-.4,2.3-1.2,2.9-.8.7-2,1-3.5,1s-1.4-.1-2-.3c-.6-.2-1.1-.5-1.5-.8-.4-.4-.7-.8-.9-1.3-.2-.5-.3-1.1-.3-1.6s0-.6,0-.9c0-.3.1-.5.2-.7,0-.2.1-.4.2-.5,0-.1.1-.2.2-.3l1.4.5c-.1.2-.3.5-.4.8-.1.3-.1.7-.1,1.1s0,.5.1.8c.1.3.3.5.5.7.3.2.5.4,1,.5.4.1.9.2,1.5.2,1,0,1.8-.2,2.4-.5.5-.4.8-1,.8-1.8s0-.8-.1-1.2c-.1-.3-.2-.5-.3-.7l1.4-.4c.1.3.3.6.4,1,.1.4.2,1,.2,1.5h0Z"/>
      <path class="cls-7" d="M217.4,284.7c0,.4,0,.8.2,1.1.1.3.4.5.7.7.3.2.6.3,1,.4.4,0,.8.1,1.3.1,1.1,0,1.9-.2,2.4-.5.5-.3.8-.8.8-1.5v-.4c0-.1,0-.3,0-.4h-3.3v-1.8h4.5c0,.2.2.5.3,1,.1.4.1,1,.1,1.6s-.1,1.1-.3,1.5c-.2.4-.5.8-.9,1.2-.4.3-.9.6-1.5.7-.6.2-1.3.3-2,.3s-1.5-.1-2-.3c-.6-.2-1.1-.5-1.5-.8-.4-.4-.7-.8-.9-1.2-.2-.5-.3-1-.3-1.5s0-.7,0-1c0-.3.1-.5.2-.7,0-.2.1-.4.2-.5,0-.1.1-.2.2-.3l1.4.5c-.1.2-.3.5-.4.8-.1.3-.1.6-.1,1h0Z"/>
      <path class="cls-7" d="M225.1,276.7c-1,.4-2,.8-3,1.4-1,.5-2,1-3,1.6h6v1.6h-9.1v-1.5c.4-.3.9-.5,1.4-.8.5-.3,1-.5,1.5-.8.5-.3,1-.5,1.5-.7.5-.2.9-.4,1.2-.5h-5.6v-1.6h9.1v1.5h0Z"/>
      <path class="cls-7" d="M220.6,267.7c.8,0,1.5.1,2.2.3.6.2,1.1.5,1.4.9.4.4.7.8.8,1.3.2.5.3,1.1.3,1.7s0,.6,0,1c0,.3,0,.6-.2,1h-8.9c0-.4-.1-.8-.2-1.2,0-.4,0-.7,0-1,0-.6,0-1.1.3-1.6.2-.5.4-.9.8-1.2.4-.3.8-.6,1.4-.8.6-.2,1.3-.3,2.1-.3h0ZM223.7,272h0v-.3c0-.4,0-.8-.2-1-.1-.3-.4-.5-.7-.7-.3-.2-.6-.3-1-.4-.4,0-.8-.1-1.2-.1s-.8,0-1.1,0c-.4,0-.7.1-1,.3s-.5.3-.7.6c-.2.3-.3.6-.3,1v.3c0,.1,0,.2,0,.3h6.1Z"/>
      <path class="cls-7" d="M283.4,285.9c0-.3,0-.5-.1-.8,0-.2-.1-.4-.3-.5-.1-.1-.3-.2-.4-.3-.1,0-.3,0-.4,0s-.4,0-.5.1c-.1.1-.3.3-.4.4-.1.1-.2.4-.3.5,0,.2-.2.4-.3.6-.1.3-.2.5-.3.8-.1.3-.3.5-.5.8-.2.3-.4.4-.7.6-.3.1-.7.2-1.1.2-.8,0-1.5-.3-2-.8-.5-.5-.7-1.3-.7-2.3s0-1,.2-1.5c.1-.4.3-.8.4-1.1l1.4.5c-.1.3-.3.5-.4.8-.1.3-.1.7-.1,1,0,.9.3,1.4,1,1.4s.3,0,.5-.1c.1-.1.3-.2.4-.4.1-.1.2-.3.3-.5,0-.2.1-.4.2-.5.1-.3.2-.6.4-.9.1-.3.3-.6.5-.8.2-.3.5-.5.8-.6.3-.1.7-.3,1.2-.3.8,0,1.5.3,2,.8.5.5.7,1.4.7,2.5s0,1.4-.3,1.8c-.2.4-.3.8-.4,1l-1.5-.5c.1-.3.3-.6.4-1,.1-.4.2-.8.2-1.4h0Z"/>
      <path class="cls-7" d="M284.9,277.6c0,1.3-.4,2.3-1.2,2.9-.8.7-2,1-3.5,1s-1.4-.1-2-.3c-.6-.2-1.1-.5-1.5-.8-.4-.4-.7-.8-.9-1.3-.2-.5-.3-1.1-.3-1.6s0-.6,0-.9c0-.3.1-.5.2-.7,0-.2.1-.4.2-.5,0-.1.1-.2.2-.3l1.4.5c-.1.2-.3.5-.4.8-.1.3-.1.7-.1,1.1s0,.5.1.8c.1.3.3.5.5.7.3.2.5.4,1,.5.4.1.9.2,1.5.2,1,0,1.8-.2,2.4-.5.5-.4.8-1,.8-1.8s0-.8-.1-1.2c-.1-.3-.2-.5-.3-.7l1.4-.4c.1.3.3.6.4,1,.1.4.2,1,.2,1.5h0Z"/>
      <path class="cls-7" d="M284.7,267.9v5.7h-9.1v-1.8h7.6v-3.9h1.5Z"/>
      <path class="cls-7" d="M265.3,285.9c0-.3,0-.5-.1-.8,0-.2-.1-.4-.3-.5-.1-.1-.3-.2-.4-.3-.1,0-.3,0-.4,0s-.4,0-.5.1c-.1.1-.3.3-.4.4-.1.1-.2.4-.3.5,0,.2-.2.4-.3.6-.1.3-.2.5-.3.8-.1.3-.3.5-.5.8-.2.3-.4.4-.7.6-.3.1-.7.2-1.1.2-.8,0-1.5-.3-2-.8-.5-.5-.7-1.3-.7-2.3s0-1,.2-1.5c.1-.4.3-.8.4-1.1l1.4.5c-.1.3-.3.5-.4.8-.1.3-.1.7-.1,1,0,.9.3,1.4,1,1.4s.3,0,.5-.1c.1-.1.3-.2.4-.4.1-.1.2-.3.3-.5,0-.2.1-.4.2-.5.1-.3.2-.6.4-.9.1-.3.3-.6.5-.8.2-.3.5-.5.8-.6.3-.1.7-.3,1.2-.3.8,0,1.5.3,2,.8.5.5.7,1.4.7,2.5s0,1.4-.3,1.8c-.2.4-.3.8-.4,1l-1.5-.5c.1-.3.3-.6.4-1,.1-.4.2-.8.2-1.4h0Z"/>
      <path class="cls-7" d="M262.1,275c.8,0,1.5.1,2.2.3.6.2,1.1.5,1.4.9.4.4.7.8.8,1.3.2.5.3,1.1.3,1.7s0,.6,0,1c0,.3,0,.6-.2,1h-8.9c0-.4-.1-.8-.2-1.2,0-.4,0-.7,0-1,0-.6,0-1.1.3-1.6.2-.5.4-.9.8-1.2.4-.3.8-.6,1.4-.8.6-.2,1.3-.3,2.1-.3h0ZM265.1,279.3h0v-.3c0-.4,0-.8-.2-1-.1-.3-.4-.5-.7-.7-.3-.2-.6-.3-1-.4-.4,0-.8-.1-1.2-.1s-.8,0-1.1,0c-.4,0-.7.1-1,.3-.3.1-.5.3-.7.6-.2.3-.3.6-.3,1v.3c0,.1,0,.2,0,.3h6.1Z"/>
      <path class="cls-7" d="M266.6,269.4l-2.1.4v2.4l2.1.4v1.9c-1.8-.4-3.4-.9-4.9-1.3-1.5-.4-2.9-.9-4.2-1.3v-2c1.3-.4,2.7-.8,4.2-1.3,1.5-.4,3.1-.8,4.8-1.2v1.9h0ZM259.3,271c.3.1.7.2,1,.3.3,0,.6.1.9.2.3,0,.6.1.9.2.3,0,.6.1,1,.2v-1.8c-.3,0-.6.1-1,.2-.3,0-.6.1-.9.2-.3,0-.6.1-.9.2-.3,0-.6.2-1,.3h0Z"/>
      <path class="cls-7" d="M308.1,229.6l-.4-2.1h-2.4l-.4,2.1h-1.9c.4-1.8.9-3.4,1.3-4.9.4-1.5.9-2.9,1.3-4.2h2c.4,1.3.8,2.7,1.3,4.2.4,1.5.8,3.1,1.2,4.8h-2ZM306.5,222.3c-.1.3-.2.7-.3,1,0,.3-.1.6-.2.9s-.1.6-.2.9c0,.3-.1.6-.2,1h1.8c0-.3-.1-.6-.2-1,0-.3-.1-.6-.2-.9,0-.3-.1-.6-.2-.9,0-.3-.2-.6-.3-1h0Z"/>
      <path class="cls-7" d="M317.1,225.1c0,.8-.1,1.5-.3,2.2-.2.6-.5,1.1-.9,1.4-.4.4-.8.7-1.3.8-.5.2-1.1.3-1.7.3s-.6,0-1,0c-.3,0-.6,0-1-.2v-8.9c.4,0,.8-.1,1.2-.2.4,0,.7,0,1,0,.6,0,1.1,0,1.6.3.5.2.9.4,1.2.8.3.4.6.8.8,1.4.2.6.3,1.3.3,2.1h0ZM312.8,228.2h.3c.4,0,.8,0,1-.2.3-.1.5-.4.7-.7.2-.3.3-.6.4-1,0-.4.1-.8.1-1.2s0-.8,0-1.1c0-.4-.1-.7-.3-1-.1-.3-.3-.5-.6-.7-.3-.2-.6-.3-1-.3h-.3c-.1,0-.2,0-.3,0v6.1h0Z"/>
      <path class="cls-7" d="M324.4,225.1c0,.8-.1,1.5-.3,2.2-.2.6-.5,1.1-.9,1.4-.4.4-.8.7-1.3.8-.5.2-1.1.3-1.7.3s-.6,0-1,0c-.3,0-.6,0-1-.2v-8.9c.4,0,.8-.1,1.2-.2.4,0,.7,0,1,0,.6,0,1.1,0,1.6.3.5.2.9.4,1.2.8.3.4.6.8.8,1.4.2.6.3,1.3.3,2.1h0ZM320.1,228.2h.3c.4,0,.8,0,1-.2.3-.1.5-.4.7-.7.2-.3.3-.6.4-1,0-.4.1-.8.1-1.2s0-.8,0-1.1c0-.4-.1-.7-.3-1-.1-.3-.3-.5-.6-.7-.3-.2-.6-.3-1-.3h-.3c-.1,0-.2,0-.3,0v6.1h0Z"/>
      <path class="cls-7" d="M328,220.5c.5,0,1,0,1.4.2.4.1.8.3,1.1.5.3.3.5.5.7.9.1.4.3.8.3,1.3s-.1,1-.3,1.4c-.2.4-.6.8-1.1,1,.2.3.3.5.5.8.2.3.4.6.5,1,.2.3.3.7.5,1,.1.3.3.7.4,1h-1.9c-.2-.6-.5-1.1-.8-1.7-.3-.5-.6-1.1-1-1.6h-1v3.3h-1.8v-8.9s.4,0,.6-.1c.2,0,.4,0,.6,0h1.1ZM329.5,223.4c0-.5-.1-.8-.4-1.1-.3-.2-.7-.3-1.2-.3h-.3c-.1,0-.2,0-.3,0v2.7h.4c.6,0,1.1-.1,1.3-.4.3-.3.4-.6.4-1h0Z"/>
      <path class="cls-7" d="M217.9,122.8l-3.3-3.3,2-2,3.3,3.3,1.9,1.9,3.3,3.3-2,2-3.3-3.3-1.9-1.9Z"/>
      <path class="cls-7" d="M217.9,182.4l-3.3-3.3,2-2,3.3,3.3,1.9,1.9,3.3,3.3-2,2-3.3-3.3-1.9-1.9Z"/>
      <path class="cls-7" d="M217.9,203.1l-3.3-3.3,2-2,3.3,3.3,1.9,1.9,3.3,3.3-2,2-3.3-3.3-1.9-1.9Z"/>
      <path class="cls-7" d="M277.6,182.4l-3.3-3.3,2-2,3.3,3.3,1.9,1.9,3.3,3.3-2,2-3.3-3.3-1.9-1.9Z"/>
      <path class="cls-7" d="M277.6,203.1l-3.3-3.3,2-2,3.3,3.3,1.9,1.9,3.3,3.3-2,2-3.3-3.3-1.9-1.9Z"/>
      <path class="cls-7" d="M277.6,223.9l-3.3-3.3,2-2,3.3,3.3,1.9,1.9,3.3,3.3-2,2-3.3-3.3-1.9-1.9Z"/>
      <path class="cls-7" d="M238.7,122.8l-3.3-3.3,2-2,3.3,3.3,1.9,1.9,3.3,3.3-2,2-3.3-3.3-1.9-1.9Z"/>
      <path class="cls-7" d="M249.7,113v20.7h20.7v-20.7h-20.7ZM262.1,122.8l-1.9,1.9-3.3,3.3-2-2,3.3-3.3,1.9-1.9,3.3-3.3,2,2-3.3,3.3Z"/>
      <path class="cls-7" d="M279.5,122.8l-3.3-3.3,2-2,3.3,3.3,1.9,1.9,3.3,3.3-2,2-3.3-3.3-1.9-1.9Z"/>
      <path class="cls-7" d="M179.6,180.7c.1-.2.2-.5.4-.8s.3-.7.4-1.1c.1-.4.3-.8.4-1.2.1-.4.3-.7.4-1.1h1.9c-.2.5-.4,1-.5,1.5-.2.5-.4.9-.6,1.4-.2.5-.4.9-.7,1.4-.2.4-.5.9-.8,1.4v3.4h-1.8v-3.4c-.5-.9-1-1.9-1.4-2.8-.4-.9-.8-1.9-1.2-2.9h1.9c.2.7.5,1.4.7,2.2.3.7.5,1.4.8,2h0Z"/>
      <path class="cls-7" d="M221.3,228.4c-.2-.5-.4-1.1-.7-1.6-.3-.6-.5-1.2-.8-1.8-.3.6-.5,1.2-.8,1.8-.3.6-.5,1.2-.7,1.7h-1.9c.1-.3.3-.6.4-1,.2-.4.4-.8.6-1.2.2-.4.5-.9.7-1.3.3-.4.5-.9.7-1.3l-2.4-4.3h1.9l1.4,2.9,1.5-2.9h1.8l-2.3,4.2c.3.4.5.8.8,1.3.3.5.5.9.7,1.4.2.4.4.8.6,1.2s.3.7.4,1h-1.9Z"/>
      <path class="cls-7" d="M166.9,232.2c-.4.7-.8,1.2-1.2,1.8-.4.5-.7,1.1-1,1.6-.3.5-.6,1-.8,1.5-.3.5-.5,1-.8,1.4h3.9v1.5h-6v-1c.2-.4.4-.9.7-1.3.3-.5.5-1,.8-1.5.3-.5.6-1.1,1-1.7.4-.6.7-1.3,1.2-2h-3.5v-1.5h5.6v1.2h0Z"/>
      <path class="cls-7" d="M205.7,220h-25.9v3.7h25.9v-3.7Z"/>
      <path class="cls-7" d="M204.1,227.3l9.5-5.5-9.5-5.5v10.9Z"/>
      <path class="cls-7" d="M181.6,196h-3.7v25.9h3.7v-25.9Z"/>
      <path class="cls-7" d="M185.2,197.5l-5.5-9.5-5.4,9.5h10.9Z"/>
      <path class="cls-7" d="M179.8,232.7c-6,0-10.9-4.9-10.9-10.9s4.9-10.9,10.9-10.9,10.9,4.9,10.9,10.9-4.9,10.9-10.9,10.9ZM179.8,214.6c-4,0-7.2,3.3-7.2,7.2s3.3,7.2,7.2,7.2,7.2-3.3,7.2-7.2-3.3-7.2-7.2-7.2Z"/>
      <path class="cls-7" d="M191,330.4h18.2v9.1h78.9v-9.1h21.2v57.6h-118.3v-57.6Z"/>
      <g class="cls-1">
        <path class="cls-11" d="M191,330.4v-.5h-.5v.5h.5ZM209.2,330.4h.5v-.5h-.5v.5ZM209.2,339.5h-.5v.5h.5v-.5ZM288,339.5v.5h.5v-.5h-.5ZM288,330.4v-.5h-.5v.5h.5ZM309.3,330.4h.5v-.5h-.5v.5ZM309.3,388v.5h.5v-.5h-.5ZM191,388h-.5v.5h.5v-.5ZM191,330.4v.5h18.2v-1h-18.2v.5ZM209.2,330.4h-.5v9.1h1v-9.1h-.5ZM209.2,339.5v.5h78.9v-1h-78.9v.5ZM288,339.5h.5v-9.1h-1v9.1h.5ZM288,330.4v.5h21.2v-1h-21.2v.5ZM309.3,330.4h-.5v57.6h1v-57.6h-.5ZM309.3,388v-.5h-118.3v1h118.3v-.5ZM191,388h.5v-57.6h-1v57.6h.5Z"/>
      </g>
      <path class="cls-7" d="M197.1,336.5h8.2v7.2h91v-7.2h6.9v45.5h-106.1v-45.5Z"/>
      <g class="cls-5">
        <path class="cls-11" d="M197.1,336.5v-.5h-.5v.5h.5ZM205.3,336.5h.5v-.5h-.5v.5ZM205.3,343.6h-.5v.5h.5v-.5ZM296.3,343.6v.5h.5v-.5h-.5ZM296.3,336.5v-.5h-.5v.5h.5ZM303.2,336.5h.5v-.5h-.5v.5ZM303.2,381.9v.5h.5v-.5h-.5ZM197.1,381.9h-.5v.5h.5v-.5ZM197.1,336.5v.5h8.2v-1h-8.2v.5ZM205.3,336.5h-.5v7.2h1v-7.2h-.5ZM205.3,343.6v.5h91v-1h-91v.5ZM296.3,343.6h.5v-7.2h-1v7.2h.5ZM296.3,336.5v.5h6.9v-1h-6.9v.5ZM303.2,336.5h-.5v45.5h1v-45.5h-.5ZM303.2,381.9v-.5h-106.1v1h106.1v-.5ZM197.1,381.9h.5v-45.5h-1v45.5h.5Z"/>
      </g>
      <rect class="cls-2" x="283.2" y="362.2" width="6" height="6"/>
      <rect class="cls-6" x="284.4" y="363.4" width="3.7" height="3.7"/>
      <rect class="cls-2" x="261.3" y="362.2" width="6" height="6"/>
      <rect class="cls-2" x="239.3" y="362.2" width="6" height="6"/>
      <rect class="cls-2" x="217.3" y="362.2" width="6" height="6"/>
      <rect class="cls-6" x="262.4" y="363.4" width="3.7" height="3.7"/>
      <rect class="cls-6" x="240.4" y="363.4" width="3.7" height="3.7"/>
      <rect class="cls-6" x="218.4" y="363.4" width="3.7" height="3.7"/>
      <rect x="239" y="192" width="19" height="17"/>
    </g>
  </g>
</svg>