<?xml version="1.0" encoding="UTF-8"?>
<svg id="Layer_1" xmlns="http://www.w3.org/2000/svg" xmlns:xlink="http://www.w3.org/1999/xlink" viewBox="0 0 203 304">
  <defs>
    <style>
      .cls-1 {
        mask: url(#mask);
      }

      .cls-2 {
        fill: #b5b5b5;
      }

      .cls-3 {
        fill: none;
        stroke: #333;
        stroke-linecap: round;
        stroke-linejoin: round;
        stroke-width: .94px;
      }

      .cls-4 {
        fill: #d9d9d9;
      }

      .cls-5 {
        mask: url(#mask-1);
      }

      .cls-6 {
        fill: #dcdcdc;
        stroke: #919191;
        stroke-width: .3px;
      }

      .cls-7 {
        fill: #fff;
      }

      .cls-8 {
        fill-rule: evenodd;
      }

      .cls-8, .cls-9 {
        fill: #333;
      }

      .cls-10 {
        fill: #191919;
      }

      .cls-11 {
        fill: #d3d3d3;
      }

      .cls-12 {
        fill: #e6bf62;
      }
    </style>
    <mask id="mask" x="41.5" y="229.91" width="119.28" height="58.59" maskUnits="userSpaceOnUse">
      <g id="path-197-inside-1_2011_2789">
        <path class="cls-7" d="M42,230.41h18.2v9.09h78.85v-9.09h21.23v57.59H42v-57.59Z"/>
      </g>
    </mask>
    <mask id="mask-1" x="47.57" y="235.97" width="107.15" height="46.47" maskUnits="userSpaceOnUse">
      <g id="path-199-inside-2_2011_2789">
        <path class="cls-7" d="M48.07,236.47h8.24v7.18h90.98v-7.18h6.92v45.47H48.07v-45.47Z"/>
      </g>
    </mask>
  </defs>
  <path class="cls-10" d="M0,15C0,6.72,6.72,0,15,0h173c8.28,0,15,6.72,15,15v274c0,8.28-6.72,15-15,15H15c-8.28,0-15-6.72-15-15V15ZM164,278c0,7.18,5.82,13,13,13s13-5.82,13-13-5.82-13-13-13-13,5.82-13,13ZM164,24c0,7.18,5.82,13,13,13s13-5.82,13-13-5.82-13-13-13-13,5.82-13,13ZM12,278c0,7.18,5.82,13,13,13s13-5.82,13-13-5.82-13-13-13-13,5.82-13,13ZM12,24c0,7.18,5.82,13,13,13s13-5.82,13-13-5.82-13-13-13-13,5.82-13,13Z"/>
  <path class="cls-8" d="M114.52,110.11l-.07.34-.19.29-.28.19-.33.07h-4.5l-.33-.07-.28-.19-.19-.29-.07-.34v-1.78l.07-.34.19-.29.28-.19.33-.07h4.5l.33.07.28.19.19.29.07.34v1.78Z"/>
  <path class="cls-8" d="M114.52,105.03l-.07.34-.19.29-.28.19-.33.07h-4.5l-.33-.07-.28-.19-.19-.29-.07-.34v-1.78l.07-.34.19-.29.28-.19.33-.07h4.5l.33.07.28.19.19.29.07.34v1.78Z"/>
  <path class="cls-8" d="M114.52,99.95l-.07.34-.19.29-.28.19-.33.07h-4.5l-.33-.07-.28-.19-.19-.29-.07-.34v-1.78l.07-.34.19-.29.28-.19.33-.07h4.5l.33.07.28.19.19.29.07.34v1.78Z"/>
  <path class="cls-8" d="M114.52,94.87l-.07.34-.19.29-.28.19-.33.07h-4.5l-.33-.07-.28-.19-.19-.29-.07-.34v-1.78l.07-.34.19-.29.28-.19.33-.07h4.5l.33.07.28.19.19.29.07.34v1.78Z"/>
  <path class="cls-8" d="M106.52,94.62l-.07.34-.19.29-.28.19-.33.07h-1.75l-.34-.07-.28-.19-.19-.29-.07-.34v-4.57l.07-.34.19-.29.28-.19.34-.07h1.75l.33.07.28.19.19.29.07.34v4.57Z"/>
  <path class="cls-8" d="M101.52,94.62l-.07.34-.19.29-.28.19-.33.07h-1.75l-.34-.07-.28-.19-.19-.29-.07-.34v-4.57l.07-.34.19-.29.28-.19.34-.07h1.75l.33.07.28.19.19.29.07.34v4.57Z"/>
  <path class="cls-8" d="M96.52,94.62l-.07.34-.19.29-.28.19-.33.07h-1.75l-.34-.07-.28-.19-.19-.29-.07-.34v-4.57l.07-.34.19-.29.28-.19.34-.07h1.75l.33.07.28.19.19.29.07.34v4.57Z"/>
  <path class="cls-8" d="M91.27,94.87l-.07.34-.19.29-.28.19-.34.07h-4.5l-.33-.07-.28-.19-.19-.29-.07-.34v-1.78l.07-.34.19-.29.28-.19.33-.07h4.5l.34.07.28.19.19.29.07.34v1.78Z"/>
  <path class="cls-8" d="M91.27,99.95l-.07.34-.19.29-.28.19-.34.07h-4.5l-.33-.07-.28-.19-.19-.29-.07-.34v-1.78l.07-.34.19-.29.28-.19.33-.07h4.5l.34.07.28.19.19.29.07.34v1.78Z"/>
  <path class="cls-8" d="M91.27,105.03l-.07.34-.19.29-.28.19-.34.07h-4.5l-.33-.07-.28-.19-.19-.29-.07-.34v-1.78l.07-.34.19-.29.28-.19.33-.07h4.5l.34.07.28.19.19.29.07.34v1.78Z"/>
  <path class="cls-8" d="M91.27,110.11l-.07.34-.19.29-.28.19-.34.07h-4.5l-.33-.07-.28-.19-.19-.29-.07-.34v-1.78l.07-.34.19-.29.28-.19.33-.07h4.5l.34.07.28.19.19.29.07.34v1.78Z"/>
  <path class="cls-8" d="M96.52,113.16l-.07.34-.19.29-.28.19-.33.07h-1.75l-.34-.07-.28-.19-.19-.29-.07-.34v-4.57l.07-.34.19-.29.28-.19.34-.07h1.75l.33.07.28.19.19.29.07.34v4.57Z"/>
  <path class="cls-8" d="M101.52,113.16l-.07.34-.19.29-.28.19-.33.07h-1.75l-.34-.07-.28-.19-.19-.29-.07-.34v-4.57l.07-.34.19-.29.28-.19.34-.07h1.75l.33.07.28.19.19.29.07.34v4.57Z"/>
  <path class="cls-8" d="M106.52,113.16l-.07.34-.19.29-.28.19-.33.07h-1.75l-.34-.07-.28-.19-.19-.29-.07-.34v-4.57l.07-.34.19-.29.28-.19.34-.07h1.75l.33.07.28.19.19.29.07.34v4.57Z"/>
  <path class="cls-8" d="M125.53,195.66h10.08v27.82h-10.08v-27.82Z"/>
  <path class="cls-8" d="M105.51,195.66h10.09v27.82h-10.09v-27.82Z"/>
  <path class="cls-8" d="M85.55,195.66h10.08v27.82h-10.08v-27.82Z"/>
  <path class="cls-8" d="M65.53,195.66h10.08v27.82h-10.08v-27.82Z"/>
  <path class="cls-8" d="M147.05,270.52h15v30.48h-15v-30.48Z"/>
  <path class="cls-8" d="M39.1,270.52h15v30.48h-15v-30.48Z"/>
  <path class="cls-8" d="M120.27,126.71l-.1.53-.29.44-.44.3-.52.1h-2.7l-.52-.1-.44-.3-.29-.44-.1-.53v-3.76l.1-.52.29-.45.44-.3.52-.1h2.7l.52.1.44.3.29.45.1.52v3.76Z"/>
  <path class="cls-8" d="M110.07,126.71l-.1.53-.29.44-.44.3-.52.1h-2.7l-.52-.1-.44-.3-.29-.44-.1-.53v-3.76l.1-.52.29-.45.44-.3.52-.1h2.7l.52.1.44.3.29.45.1.52v3.76Z"/>
  <path class="cls-8" d="M104.4,80.91l-.17.88-.49.74-.73.5-.86.17h-4.5l-.86-.17-.73-.5-.49-.74-.17-.88v-5.08l.17-.88.49-.74.73-.5.86-.17h4.5l.86.17.73.5.49.74.17.88v5.08Z"/>
  <path class="cls-8" d="M88.9,80.91l-.17.88-.49.74-.73.5-.86.17h-4.5l-.86-.17-.73-.5-.49-.74-.17-.88v-5.08l.17-.88.49-.74.73-.5.86-.17h4.5l.86.17.73.5.49.74.17.88v5.08Z"/>
  <path class="cls-8" d="M120.25,133.95l.52.11.44.3.29.44.1.53v2.74l-.1.53-.29.44-.44.3-.52.1h-3.7l-.52-.1-.44-.3-.29-.44-.1-.53v-2.74l.1-.53.29-.44.44-.3.52-.11h3.7Z"/>
  <path class="cls-8" d="M120.25,144.32l.52.11.44.3.29.44.1.53v2.74l-.1.52-.29.45-.44.3-.52.1h-3.7l-.52-.1-.44-.3-.29-.45-.1-.52v-2.74l.1-.53.29-.44.44-.3.52-.11h3.7Z"/>
  <path class="cls-8" d="M84.35,122.95l.1-.52.29-.45.44-.3.52-.1h2.7l.52.1.44.3.29.45.1.52v3.76l-.1.53-.29.44-.44.3-.52.1h-2.7l-.52-.1-.44-.3-.29-.44-.1-.53v-3.76Z"/>
  <path class="cls-8" d="M94.55,122.95l.1-.52.29-.45.44-.3.52-.1h2.7l.52.1.44.3.29.45.1.52v3.76l-.1.53-.29.44-.44.3-.52.1h-2.7l-.52-.1-.44-.3-.29-.44-.1-.53v-3.76Z"/>
  <path class="cls-8" d="M167.7,102.25l-5,7.62h-10v-15.24h10l5,7.62Z"/>
  <path class="cls-8" d="M177.2,109.87h-11.5l5-7.62-5-7.62h11.5v15.24Z"/>
  <path class="cls-8" d="M110.77,84.8l-.54-.11-.45-.31-.3-.46-.11-.54v-2.85l.11-.54.3-.46.45-.31.54-.11h3.4l.54.11.45.31.3.46.11.54v2.85l-.11.54-.3.46-.45.31-.54.11h-3.4Z"/>
  <path class="cls-8" d="M110.77,75.05l-.54-.11-.45-.31-.3-.46-.11-.54v-2.85l.11-.54.3-.46.45-.31.54-.11h3.4l.54.11.45.31.3.46.11.54v2.85l-.11.54-.3.46-.45.31-.54.11h-3.4Z"/>
  <path class="cls-9" d="M101.65,101.44c0-1.71-1.36-3.1-3.05-3.1s-3.05,1.39-3.05,3.1,1.36,3.1,3.05,3.1,3.05-1.39,3.05-3.1Z"/>
  <path class="cls-9" d="M81.15,90.87c0-1.71-1.37-3.1-3.05-3.1s-3.05,1.39-3.05,3.1,1.37,3.1,3.05,3.1,3.05-1.39,3.05-3.1Z"/>
  <path class="cls-9" d="M58.95,194.41c0-1.71-1.37-3.1-3.05-3.1s-3.05,1.39-3.05,3.1,1.37,3.1,3.05,3.1,3.05-1.39,3.05-3.1Z"/>
  <path class="cls-3" d="M97.25,166.92v-42.1"/>
  <path class="cls-3" d="M99.77,110.87v11.4"/>
  <path class="cls-9" d="M99.77,122.27l-2.52,2.56,2.52-2.56Z"/>
  <path class="cls-3" d="M99.77,122.27l-2.52,2.56"/>
  <path class="cls-3" d="M130.57,209.57v-8.79"/>
  <path class="cls-9" d="M130.57,200.78l-33.32-33.86,33.32,33.86Z"/>
  <path class="cls-3" d="M130.57,200.78l-33.32-33.86"/>
  <path class="cls-3" d="M122.27,226.8h16.61"/>
  <path class="cls-3" d="M104.77,110.87v11.32"/>
  <path class="cls-3" d="M107.37,160.34v-35.51"/>
  <path class="cls-3" d="M138.88,226.8v-34.44"/>
  <path class="cls-9" d="M104.77,122.19l2.6,2.64-2.6-2.64Z"/>
  <path class="cls-3" d="M104.77,122.19l2.6,2.64"/>
  <path class="cls-9" d="M110.56,214.89l11.71,11.9-11.71-11.9Z"/>
  <path class="cls-3" d="M110.56,214.89l11.71,11.9"/>
  <path class="cls-9" d="M138.88,192.35l-31.51-32.01,31.51,32.01Z"/>
  <path class="cls-3" d="M138.88,192.35l-31.51-32.01"/>
  <path class="cls-3" d="M110.56,209.57v5.32"/>
  <path class="cls-9" d="M117.57,124.83l.21-.21-.21.21Z"/>
  <path class="cls-3" d="M117.57,124.83l.21-.21"/>
  <path class="cls-3" d="M99.51,78.37h.39"/>
  <path class="cls-3" d="M88.14,93.98v-4.06"/>
  <path class="cls-3" d="M143.39,190.45v38.24"/>
  <path class="cls-3" d="M112.47,81.96h-9.04"/>
  <path class="cls-3" d="M84.15,93.98h4"/>
  <path class="cls-9" d="M104.77,83.32l-4.87-4.95,4.87,4.95Z"/>
  <path class="cls-3" d="M104.77,83.32l-4.87-4.95"/>
  <path class="cls-3" d="M118.4,136.7v.1"/>
  <path class="cls-9" d="M103.43,81.96l-3.53-3.59,3.53,3.59Z"/>
  <path class="cls-3" d="M103.43,81.96l-3.53-3.59"/>
  <path class="cls-9" d="M118.4,136.7l1.1-1.12-1.1,1.12Z"/>
  <path class="cls-3" d="M118.4,136.7l1.1-1.12"/>
  <path class="cls-3" d="M104.77,92.33v-9.01"/>
  <path class="cls-9" d="M111.88,158.44l31.5,32.01-31.5-32.01Z"/>
  <path class="cls-3" d="M111.88,158.44l31.5,32.01"/>
  <path class="cls-9" d="M90.59,128.43l-3.54-3.6,3.54,3.6Z"/>
  <path class="cls-3" d="M90.59,128.43l-3.54-3.6"/>
  <path class="cls-3" d="M90.59,209.57v-81.14"/>
  <path class="cls-9" d="M88.14,89.92l11.36-11.55-11.36,11.55Z"/>
  <path class="cls-3" d="M88.14,89.92l11.36-11.55"/>
  <path class="cls-9" d="M81.76,96.41l2.39-2.43-2.39,2.43Z"/>
  <path class="cls-3" d="M81.76,96.41l2.39-2.43"/>
  <path class="cls-3" d="M81.76,119.45v-23.05"/>
  <path class="cls-3" d="M90.59,218.36v-8.79"/>
  <path class="cls-9" d="M118.4,136.8l-6.52,6.62,6.52-6.62Z"/>
  <path class="cls-3" d="M118.4,136.8l-6.52,6.62"/>
  <path class="cls-3" d="M119.5,135.58v-8.79"/>
  <path class="cls-9" d="M119.5,126.79l-1.93-1.96,1.93,1.96Z"/>
  <path class="cls-3" d="M119.5,126.79l-1.93-1.96"/>
  <path class="cls-9" d="M103.4,231.38l-12.81-13.02,12.81,13.02Z"/>
  <path class="cls-3" d="M103.4,231.38l-12.81-13.02"/>
  <path class="cls-9" d="M87.05,124.83l-5.29-5.38,5.29,5.38Z"/>
  <path class="cls-3" d="M87.05,124.83l-5.29-5.38"/>
  <path class="cls-3" d="M140.74,231.38h-37.34"/>
  <path class="cls-3" d="M111.88,143.42v15.02"/>
  <path class="cls-9" d="M143.39,228.69l-2.64,2.68,2.64-2.68Z"/>
  <path class="cls-3" d="M143.39,228.69l-2.64,2.68"/>
  <path class="cls-3" d="M114.52,109.22h-3.12"/>
  <path class="cls-3" d="M125.96,139.48v-18.64"/>
  <path class="cls-9" d="M125.96,120.85l-11.44-11.62,11.44,11.62Z"/>
  <path class="cls-3" d="M125.96,120.85l-11.44-11.62"/>
  <path class="cls-9" d="M118.5,147.06l7.46-7.58-7.46,7.58Z"/>
  <path class="cls-3" d="M118.5,147.06l7.46-7.58"/>
  <path class="cls-9" d="M150.84,109.22l6.86-6.97-6.86,6.97Z"/>
  <path class="cls-3" d="M150.84,109.22l6.86-6.97"/>
  <path class="cls-3" d="M118.4,147.06h.1"/>
  <path class="cls-3" d="M111.4,109.22h39.45"/>
  <path class="cls-8" d="M93.61,95.99l.1-.22.06-.5v-1.68l.03-.09v-.09s.1-.24.1-.24l.07-.26.07-.06.04-.08.22-.15.2-.18.1-.02.06-.04.35-.05h.26l.67.2.46.54.11.52v4.39h.01s.21-.1.21-.1l.69-.11.36.11.21.1h.01s0-4.39,0-4.39l.02-.09v-.09s.1-.24.1-.24l.07-.26.07-.06.04-.08.22-.15.2-.18.11-.02.06-.04.35-.05h.01l.67.2.46.54.11.52v1.43l.07.5.5,1.1.84.85.97.46.12.05.49.07h1.04s.01,0,.01,0l.32.1.32.1h0s.01.01.01.01l.22.26.22.26h0s.01.07.01.07l.08.3v.08s0,1.12,0,1.12l.07.5.18.4.02.2-.03.16.02.16-.1.36-.1.22-.07.5v1.04l-.2.68-.53.46-.51.11h-1.03l-.21.03-.28.04-.21.1-.69.11-.36-.11-.21-.1-.49-.07h-2.54l-.49.07-.21.1-.68.11-.19-.02-.39-.19-.49-.07h-1.18s-.25-.12-.25-.12l-.26-.08-.05-.06-.07-.03-.15-.23-.18-.21-.02-.09-.04-.05v-.12s-.06-.26-.06-.26v-1.04l-.02-.14-.05-.36-.1-.22-.1-.7.1-.36.1-.22.06-.5v-2.58l-.02-.14-.05-.36-.1-.22-.1-.7.1-.36Z"/>
  <path class="cls-8" d="M5.01,14.1l.03-.31.11-1.29.04-.22.31-1.19.08-.31.07-.21.64-1.4.11-.19.88-1.27.14-.17,1.08-1.1.16-.14,1.25-.89.19-.11,1.38-.66.2-.07,1.47-.4.21-.04,1.57-.14h.11s169.9,0,169.9,0h.11s1.57.14,1.57.14l.21.04,1.47.4.2.07,1.38.66.19.11,1.25.89.17.14,1.08,1.1.14.17.88,1.27.11.19.64,1.4.07.21.4,1.5.04.22.14,1.6v.11s0,274.24,0,274.24v.11s-.14,1.6-.14,1.6l-.04.22-.4,1.5-.07.21-.64,1.4-.11.19-.88,1.27-.14.17-1.08,1.1-.17.14-1.25.89-.19.11-1.38.65-.2.08-1.21.33-.26.07-.21.04-.83.07-.74.07h-.11s-19.16,0-19.16,0l-.67-.2-.46-.54-.11-.52v-8.45l.2-.68.53-.46.69-.1.64.3.07.06,1.34,1.36,1.72,1.27,1.89.98,2.02.67,2.1.34h2.13l2.1-.34.2-.07,1.82-.6,1.89-.98,1.72-1.27,1.5-1.53,1.25-1.75.97-1.92.66-2.05.33-2.13v-2.16l-.33-2.13-.66-2.06-.97-1.92-.16-.22-1.09-1.52-1.5-1.53-1.72-1.27-1.89-.98-2.02-.67-2.1-.34h-1.93V38.95h2.13l1.9-.31.2-.03,1.82-.6.2-.07,1.89-.98,1.72-1.27,1.5-1.53,1.25-1.75.97-1.92.66-2.05.33-2.13v-2.16l-.33-2.13-.66-2.05-.96-1.92-.24-.33-1.01-1.42-1.5-1.53-1.72-1.27-1.89-.98-2.02-.67-2.1-.34h-2.13l-2.1.34-2.02.67-1.89.98-1.72,1.27-1.5,1.53-1.25,1.75-.97,1.92-.66,2.05-.26,1.64-.08.5v2.16l.08.49.26,1.64.66,2.05.97,1.92,1.25,1.75,1.5,1.53,1.72,1.27,1.89.98,2.02.67,2.1.34v226.28h-.2l-2.1.34-2.02.67-1.89.98-1.72,1.27-1.53,1.56-.61.34-.7-.05-.56-.43-.15-.27-.04-.1-.55-.84-.83-.56-.73-.15h-5.25v16.52l-.2.68-.53.47-.52.11h-1.26v1.28l-.2.68-.53.47-.52.11h-1.26v-20.32h-5.25l-.73.15-.83.56-.55.84-.14.74v12.95h7.5v5.08h-7.5v9.1l-.2.68-.53.47-.51.11h-40.4v-63.47h38.33l.95-.26.7-.41.16-.09,1.5-1.53,1.14-1.16.7-.71.42-.73.08-.14.13-.48.03-.1.1-.38v-39.24l-.13-.49-.13-.48-.49-.87-.7-.71-.59-.59-29.11-29.58-.33-.62-.03-.27v-2.73l.2-.68.53-.47.52-.11h3.74l.75-.11,1.16-.57.91-.93.54-1.13.02-.05.11-.76v-1.52l.2-.68.17-.21,3.8-3.86.7-.71.49-.87.13-.49.03-.1.1-.38v-19.64l-.13-.49-.13-.49-.49-.87-.7-.71-.59-.59-1.98-2.01-.33-.62.05-.71.42-.57.65-.25h.09s24.76,0,24.76,0l.42-.11.06-.02.48-.13.32-.19.09-.04.2-.02.25-.07h9.55l.33-.03.18-.02.92-.39.7-.72,5-7.62.38-.93v-1.01s-.38-.94-.38-.94l-5-7.62-.32-.4-.83-.56-.98-.2h-10l-.98.2-.83.56-.55.84-.19.99v9.38l-.09.3-.07.3-.04.05v.03s-.17.21-.17.21l-.13.14-.61.34-.26.03h-30.51l-.67-.2-.46-.54-.11-.52v-1.3l-.02-.14-.05-.36-.1-.22-.11-.7.11-.36.1-.22.07-.5v-2.58l-.02-.14-.05-.36-.1-.22-.11-.7.11-.36.1-.22.07-.5v-2.58l-.02-.14-.05-.36-.5-1.1-.84-.86-1.08-.51-.08-.04-.52-.47-.19-.68.2-.68.53-.46.31-.09.61-.1,1.1-.57.88-.89.56-1.12.06-.36.09-.57v-3.47l-.07-.47-.07-.46-.56-1.12-.2-.21-.33-.62.05-.71.29-.45.2-.2.56-1.12.02-.12v-5.08l-.02-.12-.56-1.12-.87-.89-1.1-.57-.42-.07v2.76h2.97v5.08h-7.98v-7.85l-.42.07-1.1.57-.87.89-.56,1.12-.02.12h2.97v5.08h-2.28l-.67-.2-.37-.38-.07-.11-.21-.56-.82-1.11-1.1-.83-1.28-.49-.21-.02-.35-.04h-5.41l-.57.06-.23.09-.52.2-.53.2-1.1.83-.82,1.11-.07.18-.06.16-.42.57-.65.25-.68-.15-.49-.5-.07-.16-.12-.34-.82-1.11-1.09-.83-1.28-.48-.57-.06h-.2v14.26l-.2.68-.17.21-1.4,1.42-.49.87-.13.49-.1.37-.21.35-.16.26-.51.29-.84.23-.86.5-.15.15v-5.34h.2v-14.73h-.2l-.57.06-1.28.48-1.09.83-.82,1.11-.48,1.3-.06.57v.46h4.5v5.08h-4.5v.46l.06.57.48,1.3.82,1.11,1.09.83,1.28.49.57.06v5.34l-.55.56-2.39,2.43-.49.87-.13.49-.13.49v24.05l.13.49.13.49.49.87,2.73,2.77.33.62.03.27v1.62l.11.76.57,1.18.91.93,1.16.57.75.11h.26l.67.2.46.54.11.52v59.97l-.2.68-.53.47-.51.11h-.29l-.73.15-.36.25-.47.32-.55.84-.15.74v28.32l.15.74.55.84.83.56.73.15h7.01l.67.2.21.17,7.91,8.03.86.5.96.26v63.47h-27.04v-72.64l.73-.15.83-.56.55-.84.14-.74v-28.32l-.14-.74-.55-.84-.83-.56-.73-.15h-2.79v13.91h5.04v5.08h-5.04v13.91h2.79v72.64h-10.58v-72.64h2.79v-32.9h-2.79l-.73.15-.83.56-.55.84-.15.74v11.62h5.04v5.08h-5.04v11.62l.15.74.55.84.83.56.73.15v72.64h-7.45l-.67-.2-.46-.54-.11-.52v-27.13l-.15-.74-.55-.84-.83-.56-.73-.15h-5.25v15.24h7.5v5.08h-8.76l-.67-.2-.46-.54-.11-.52v-1.28h-1.26l-.67-.2-.46-.54-.11-.52v-16.52h-5.25l-.73.15-.83.56-.55.84-.03.07-.44.55-.66.23-.68-.18-.24-.19-1.5-1.52-1.72-1.27-1.89-.98-2.02-.67-2.1-.34h-1.93V38.95h2.13l1.9-.31.2-.03,1.82-.6.2-.07,1.89-.98,1.72-1.27,1.5-1.53,1.25-1.75.97-1.92.66-2.05.33-2.13v-2.16l-.33-2.13-.66-2.05-.97-1.92-.53-.75-.72-1-1.5-1.53-1.72-1.27-1.89-.98-2.02-.67-2.1-.34h-2.13l-2.1.34-2.02.67-1.89.98-1.72,1.27-1.5,1.53-1.25,1.75-.97,1.92-.66,2.05-.26,1.64-.08.5v2.16l.08.49.26,1.64.66,2.05.97,1.92,1.25,1.75,1.5,1.53,1.72,1.27,1.89.98,2.02.67,2.1.34v226.28h-.2l-2.1.34-2.02.67-1.89.98-1.72,1.27-1.5,1.53-1.25,1.75-.97,1.92-.66,2.06-.26,1.64-.08.49v2.16l.08.49.26,1.64.66,2.05.97,1.93,1.25,1.75,1.5,1.53,1.72,1.27,1.89.98,2.02.67,2.1.34h2.13l2.1-.34.2-.07,1.82-.6,1.89-.98,1.72-1.27,1.29-1.3.61-.34.7.05.56.42.24.67v.09s0,8.39,0,8.39l-.2.68-.53.47-.51.11H14.94s-.85-.08-.85-.08l-.73-.06-.21-.04-1.47-.4-.2-.08-.25-.12-1.13-.53-.19-.11-1.25-.89-.16-.14-1.08-1.1-.14-.17-.88-1.27-.11-.19-.64-1.4-.07-.21-.4-1.5-.04-.22-.12-1.35-.02-.25v-.11s0-.61,0-.61V14.1Z"/>
  <rect class="cls-12" x="115" y="127.13" width="6" height="5.74"/>
  <rect class="cls-4" x="115" y="132.87" width="6" height="3.13"/>
  <rect class="cls-4" x="115" y="124" width="6" height="3.13"/>
  <rect class="cls-12" x="89.13" y="122" width="5.74" height="6"/>
  <rect class="cls-4" x="86" y="122" width="3.13" height="6"/>
  <rect class="cls-4" x="94.87" y="122" width="3.13" height="6"/>
  <rect class="cls-12" x="87.17" y="74" width="7.65" height="8"/>
  <rect class="cls-4" x="83" y="74" width="4.17" height="8"/>
  <rect class="cls-4" x="94.83" y="74" width="4.17" height="8"/>
  <path class="cls-7" d="M46.27,67.42v-2.34h3.07v-9.47h-3.07v-2.34h8.96v2.34h-3.07v9.47h3.07v2.34h-8.96Z"/>
  <path class="cls-7" d="M60.1,53.31c.11.33.26.73.4,1.24.15.51.33,1.03.51,1.61.18.59.37,1.17.55,1.76.18.59.37,1.13.51,1.65.18-.55.37-1.13.59-1.76.18-.59.4-1.17.59-1.72.18-.55.37-1.06.51-1.57.15-.48.29-.88.4-1.21h2.34c.11,1.24.22,2.45.29,3.62.11,1.17.18,2.34.26,3.47.07,1.13.11,2.3.18,3.48.04,1.17.07,2.34.11,3.58h-2.56l.15-10.97-1.72,5.96h-2.05l-1.68-5.96.11,10.97h-2.56c.04-1.17.11-2.34.15-3.62.04-1.28.11-2.49.18-3.73.07-1.24.15-2.41.22-3.58.07-1.17.18-2.23.29-3.22h2.34-.11Z"/>
  <path class="cls-7" d="M73.48,67.72c-.91,0-1.68-.11-2.3-.37-.62-.26-1.1-.62-1.46-1.1-.37-.48-.62-1.02-.77-1.72-.15-.69-.22-1.43-.22-2.23v-9h2.82v8.81c0,.59,0,1.1.07,1.5.07.4.15.73.29.99s.33.4.62.51c.26.11.59.15.99.15s.73-.04.99-.15c.26-.11.48-.29.62-.55s.26-.59.33-.99c.07-.4.07-.91.07-1.5v-8.82h2.82v9c0,.8-.07,1.57-.22,2.23-.15.66-.4,1.24-.81,1.72-.4.48-.88.84-1.5,1.1-.62.26-1.39.37-2.34.37v.04Z"/>
  <path class="cls-7" d="M95.94,65.38c.48,0,.88-.04,1.17-.15.29-.11.55-.22.73-.4s.29-.37.37-.58c.07-.22.11-.44.11-.66,0-.29-.07-.55-.26-.77-.18-.22-.37-.44-.62-.62-.26-.18-.55-.33-.88-.48-.33-.15-.62-.29-.95-.4-.44-.15-.88-.33-1.32-.51-.44-.18-.88-.44-1.24-.77-.37-.29-.69-.69-.91-1.13-.22-.44-.37-1.02-.37-1.68,0-1.32.44-2.34,1.28-3.11.84-.73,2.05-1.13,3.55-1.13.88,0,1.61.11,2.27.29s1.21.4,1.65.66l-.8,2.16c-.37-.22-.8-.4-1.28-.55-.48-.15-.99-.22-1.61-.22-1.5,0-2.23.55-2.23,1.61,0,.26.07.51.22.73.15.22.33.4.59.55.22.15.51.29.8.44.29.15.59.22.88.33.44.18.91.37,1.39.55.47.22.91.47,1.32.8.4.33.73.77.99,1.28.26.51.4,1.13.4,1.94,0,1.32-.44,2.34-1.28,3.07-.84.73-2.16,1.1-3.91,1.1-1.17,0-2.12-.11-2.82-.37-.7-.26-1.21-.48-1.57-.69l.8-2.27c.4.26.92.48,1.46.69.59.22,1.28.33,2.09.33v-.04Z"/>
  <path class="cls-7" d="M103.48,67.42v-14.12h8.56v2.34h-5.74v3.18h5.01v2.34h-5.01v3.95h6.25v2.34h-9.07v-.04Z"/>
  <path class="cls-7" d="M121.54,67.42c-.62-1.57-1.32-3.15-2.08-4.68-.77-1.57-1.57-3.11-2.41-4.68v9.36h-2.52v-14.12h2.27c.44.66.84,1.39,1.28,2.19.44.77.84,1.57,1.24,2.34.4.77.77,1.54,1.13,2.27.33.73.62,1.35.88,1.9v-8.71h2.52v14.12h-2.3Z"/>
  <path class="cls-7" d="M130.14,65.38c.48,0,.88-.04,1.17-.15.29-.11.55-.22.73-.4.18-.18.29-.37.37-.58.07-.22.11-.44.11-.66,0-.29-.07-.55-.26-.77-.18-.22-.37-.44-.62-.62-.26-.18-.55-.33-.88-.48-.33-.15-.62-.29-.95-.4-.44-.15-.88-.33-1.32-.51s-.88-.44-1.24-.77c-.36-.29-.69-.69-.91-1.13-.22-.44-.37-1.02-.37-1.68,0-1.32.44-2.34,1.28-3.11.84-.73,2.05-1.13,3.55-1.13.88,0,1.61.11,2.27.29s1.21.4,1.65.66l-.8,2.16c-.37-.22-.8-.4-1.28-.55-.48-.15-.99-.22-1.61-.22-1.5,0-2.23.55-2.23,1.61,0,.26.07.51.22.73.15.22.33.4.58.55.22.15.51.29.81.44.29.15.58.22.88.33.44.18.91.37,1.39.55.48.22.91.47,1.32.8.4.33.73.77.99,1.28.26.51.4,1.13.4,1.94,0,1.32-.44,2.34-1.28,3.07-.84.73-2.16,1.1-3.91,1.1-1.17,0-2.12-.11-2.82-.37s-1.21-.48-1.57-.69l.8-2.27c.4.26.91.48,1.46.69.58.22,1.28.33,2.08.33v-.04Z"/>
  <path class="cls-7" d="M136.87,60.37c0-2.45.44-4.28,1.35-5.52.91-1.24,2.16-1.86,3.73-1.86s2.93.62,3.8,1.86c.88,1.24,1.32,3.07,1.32,5.52s-.44,4.28-1.32,5.52c-.88,1.24-2.12,1.87-3.73,1.87s-2.93-.62-3.8-1.87c-.88-1.24-1.32-3.07-1.32-5.52h-.04ZM139.72,60.37c0,.69,0,1.32.07,1.94.07.62.15,1.13.33,1.57.15.44.37.8.66,1.06.29.26.66.4,1.17.4s.84-.15,1.13-.4c.29-.26.51-.62.7-1.06.15-.44.26-.95.33-1.57.07-.62.07-1.24.07-1.9s0-1.32-.07-1.94c-.04-.58-.15-1.13-.33-1.57-.18-.44-.36-.8-.66-1.06-.29-.26-.7-.4-1.17-.4s-.88.15-1.17.4c-.29.26-.51.62-.66,1.06-.15.44-.26.99-.33,1.57-.07.59-.07,1.24-.07,1.9Z"/>
  <path class="cls-7" d="M152.56,53.16c.8,0,1.54.07,2.19.26.66.18,1.21.48,1.68.84.48.37.84.88,1.1,1.46.26.58.37,1.28.37,2.05s-.18,1.57-.51,2.23c-.33.66-.88,1.17-1.68,1.54.26.4.55.84.8,1.32.26.47.58.99.84,1.5.26.51.55,1.06.77,1.57.26.51.47,1.02.66,1.5h-2.93c-.37-.91-.77-1.79-1.21-2.63-.48-.84-.95-1.68-1.5-2.56h-1.46v5.19h-2.82v-13.9c.26-.07.59-.11.91-.18.33-.04.66-.07.99-.11.33,0,.66-.04.95-.07h.84ZM155.05,57.77c0-.73-.22-1.28-.69-1.65-.44-.37-1.06-.51-1.79-.51h-.4c-.18,0-.29,0-.44.07v4.24h.62c.95,0,1.65-.18,2.09-.55.44-.37.62-.91.62-1.57v-.04Z"/>
  <path class="cls-7" d="M47,41.6c-.44,0-.8.07-1.1.22-.29.15-.55.37-.73.66-.18.29-.33.62-.4.99-.07.37-.11.81-.11,1.28,0,1.1.18,1.87.51,2.38.33.51.84.77,1.5.77h.37c.11,0,.26,0,.37-.04v-3.29h1.79v4.54c-.22.07-.55.18-.99.26-.44.11-.99.15-1.65.15-.55,0-1.06-.11-1.54-.29-.44-.18-.84-.51-1.17-.88-.33-.4-.58-.88-.73-1.46-.18-.59-.26-1.28-.26-2.05s.11-1.46.29-2.05c.22-.59.48-1.1.84-1.5.37-.4.77-.69,1.24-.91.48-.18.99-.29,1.54-.29.37,0,.66,0,.95.07.29.07.51.11.73.18.22.07.37.15.51.22.15.07.22.15.29.18l-.48,1.43c-.22-.15-.48-.26-.8-.37-.33-.11-.62-.15-.95-.15l-.04-.04Z"/>
  <path class="cls-7" d="M52.89,40.14c.51,0,.99.07,1.39.18.4.11.77.29,1.1.55.29.26.55.55.69.91.15.37.26.81.26,1.32s-.11.99-.33,1.43-.59.77-1.06.99c.18.26.33.55.51.84.18.29.37.62.55.95.18.33.33.66.51,1.02.15.33.29.66.4.95h-1.9c-.22-.58-.47-1.13-.77-1.68-.29-.55-.62-1.1-.95-1.65h-.95v3.33h-1.79v-8.92s.37-.07.58-.11c.22,0,.44-.07.62-.07h1.13v-.04ZM54.46,43.1c0-.47-.15-.84-.44-1.06-.29-.22-.69-.33-1.17-.33h-.26c-.11,0-.18,0-.29.04v2.71h.4c.62,0,1.06-.11,1.32-.36s.4-.59.4-1.02l.04.04Z"/>
  <path class="cls-7" d="M57.46,44.75c0-1.57.29-2.74.88-3.55.58-.8,1.39-1.21,2.41-1.21s1.86.4,2.41,1.21c.55.8.84,1.98.84,3.55s-.29,2.74-.84,3.55c-.55.81-1.35,1.21-2.41,1.21s-1.87-.4-2.45-1.21c-.59-.8-.84-1.97-.84-3.55ZM59.29,44.75c0,.44,0,.84.04,1.24.04.4.11.73.22.99.11.29.26.51.44.66.18.15.44.26.73.26s.55-.07.73-.26c.18-.18.33-.4.44-.69.11-.29.18-.62.22-.99.04-.37.04-.8.04-1.24s0-.84-.04-1.24c0-.37-.11-.73-.22-.99-.11-.29-.26-.51-.44-.66-.18-.18-.44-.26-.73-.26s-.55.07-.73.26-.33.4-.44.7c-.11.29-.18.62-.22.99-.04.37-.04.8-.04,1.24Z"/>
  <path class="cls-7" d="M67.08,49.28c-.22-.66-.48-1.43-.73-2.27s-.51-1.68-.73-2.52c-.22-.84-.44-1.65-.62-2.38-.18-.77-.33-1.35-.4-1.83h1.9c.07.48.15,1.02.26,1.65s.26,1.24.4,1.9c.15.66.29,1.32.44,1.94.15.62.33,1.21.48,1.72.15-.51.33-1.06.47-1.72.15-.62.29-1.28.44-1.94.15-.66.26-1.32.37-1.94.11-.62.22-1.17.29-1.65h1.9c-.11.59-.26,1.24-.44,1.98-.18.73-.37,1.46-.59,2.27-.22.81-.48,1.61-.73,2.41-.26.84-.55,1.61-.81,2.38h-1.9Z"/>
  <path class="cls-7" d="M72.6,49.28v-9.07h5.49v1.5h-3.69v2.05h3.22v1.5h-3.22v2.56h4.02v1.5h-5.82v-.04Z"/>
  <path class="cls-7" d="M90.64,49.46c-1.28,0-2.27-.4-2.93-1.24-.66-.8-1.02-1.98-1.02-3.51,0-.77.11-1.43.29-2.01.22-.59.48-1.1.84-1.5.37-.4.8-.69,1.32-.91.51-.22,1.06-.33,1.65-.33.33,0,.62,0,.88.07.26.04.48.11.7.18.18.07.36.15.47.22.11.07.22.15.29.18l-.48,1.43c-.22-.15-.51-.26-.8-.37-.29-.11-.69-.15-1.1-.15-.29,0-.55.04-.84.15-.29.11-.51.26-.73.51-.22.26-.37.55-.51.95-.15.4-.18.91-.18,1.5,0,1.03.18,1.83.55,2.38.37.55.95.84,1.76.84.47,0,.84-.04,1.17-.15.33-.11.55-.22.73-.33l.44,1.43c-.26.15-.58.29-1.02.44-.44.15-.95.18-1.5.18l.04.04Z"/>
  <path class="cls-7" d="M94.04,44.75c0-1.57.29-2.74.88-3.55.59-.8,1.39-1.21,2.41-1.21s1.87.4,2.41,1.21c.55.8.84,1.98.84,3.55s-.29,2.74-.84,3.55c-.55.81-1.35,1.21-2.41,1.21s-1.87-.4-2.45-1.21c-.58-.8-.84-1.97-.84-3.55ZM95.87,44.75c0,.44,0,.84.04,1.24.04.4.11.73.22.99.11.29.26.51.44.66.18.15.44.26.73.26s.55-.07.73-.26c.18-.18.33-.4.44-.69.11-.29.18-.62.22-.99.04-.37.04-.8.04-1.24s0-.84-.04-1.24c0-.37-.11-.73-.22-.99-.11-.29-.26-.51-.44-.66-.18-.18-.44-.26-.73-.26s-.55.07-.73.26-.33.4-.44.7c-.11.29-.18.62-.22.99-.04.37-.04.8-.04,1.24Z"/>
  <path class="cls-7" d="M103.29,40.25c.07.22.15.48.26.8.11.33.22.66.33,1.02.11.37.22.73.37,1.13.11.37.22.73.33,1.06.11-.37.22-.73.37-1.13.15-.4.26-.77.36-1.1.11-.37.22-.7.33-.99.11-.29.18-.58.26-.77h1.5c.07.8.15,1.57.18,2.3.07.77.11,1.5.15,2.23.04.73.07,1.46.11,2.23,0,.73.04,1.5.07,2.3h-1.65l.07-7.02-1.1,3.84h-1.32l-1.06-3.84.07,7.02h-1.65c0-.73.07-1.5.11-2.3,0-.81.07-1.61.11-2.38.04-.8.07-1.57.15-2.3.07-.73.11-1.43.18-2.05h1.5l-.04-.07Z"/>
  <path class="cls-7" d="M111.56,40.14c1.13,0,2.05.22,2.67.69.62.48.95,1.24.95,2.3s-.33,1.87-.95,2.34c-.62.47-1.54.73-2.71.73h-.66v3.07h-1.79v-8.92s.36-.07.58-.11c.22,0,.44-.04.66-.07h1.24v-.04ZM111.74,41.71h-.44c-.18,0-.33,0-.44.04v2.93h.73c.58,0,1.02-.11,1.32-.33.29-.22.44-.62.44-1.17,0-.51-.15-.91-.44-1.13-.29-.22-.66-.33-1.13-.33h-.04Z"/>
  <path class="cls-7" d="M120.85,49.28l-.44-2.09h-2.41l-.4,2.09h-1.87c.44-1.79.88-3.4,1.32-4.87s.88-2.85,1.28-4.17h1.98c.44,1.32.84,2.74,1.28,4.21.44,1.5.84,3.11,1.24,4.83h-1.98ZM119.24,42c-.11.33-.18.66-.26.99-.07.29-.15.62-.22.91-.07.29-.15.58-.22.91-.07.29-.11.62-.18.95h1.76c-.07-.33-.11-.62-.18-.95-.07-.29-.11-.59-.18-.91-.07-.33-.15-.59-.22-.91-.07-.29-.18-.62-.26-.99h-.04Z"/>
  <path class="cls-7" d="M129.85,40.25v1.5h-2.38v7.57h-1.83v-7.57h-2.38v-1.5h6.58Z"/>
  <path class="cls-7" d="M131.02,49.28v-1.5h1.98v-6.07h-1.98v-1.5h5.74v1.5h-1.98v6.07h1.98v1.5h-5.74Z"/>
  <path class="cls-7" d="M144.4,46.54c0,.55-.11.99-.29,1.35-.18.36-.44.66-.77.88-.33.22-.7.37-1.13.48s-.92.15-1.39.15c-.4,0-.8,0-1.24-.07-.44-.04-.84-.11-1.28-.18v-8.78c.33-.07.73-.11,1.13-.15.4-.04.8-.07,1.21-.07.69,0,1.24.07,1.68.22.44.15.77.33,1.03.55.26.22.4.48.51.77.11.29.15.55.15.84,0,.44-.11.8-.33,1.13-.22.33-.48.59-.84.8.62.22,1.02.51,1.24.92.22.4.33.77.33,1.21v-.04ZM140.82,43.83c.48,0,.8-.11,1.02-.29.22-.18.37-.47.37-.84,0-.22,0-.4-.11-.51-.11-.11-.15-.22-.29-.29-.11-.07-.26-.11-.4-.15-.15-.04-.33-.04-.48-.04h-.44c-.15,0-.29,0-.4.04v2.08h.73ZM140.12,45.33v2.45s.26,0,.4.04h.44c.22,0,.4,0,.59-.04.18,0,.37-.11.51-.18.15-.07.29-.22.37-.4.11-.18.15-.4.15-.66,0-.44-.15-.77-.4-.95-.29-.18-.66-.29-1.13-.29h-.95l.04.04Z"/>
  <path class="cls-7" d="M151.57,49.28h-5.71v-9.07h1.83v7.57h3.88v1.5Z"/>
  <path class="cls-7" d="M153.07,49.28v-9.07h5.49v1.5h-3.69v2.05h3.22v1.5h-3.22v2.56h4.02v1.5h-5.81v-.04Z"/>
  <path class="cls-7" d="M96.85,186.51c-.66.22-1.43.48-2.27.73-.84.26-1.68.51-2.52.73-.84.22-1.65.44-2.38.62-.77.18-1.35.33-1.83.4v-1.9c.48-.07,1.02-.15,1.65-.26.62-.11,1.24-.26,1.9-.4.66-.15,1.32-.29,1.94-.44.62-.15,1.21-.33,1.72-.48-.51-.15-1.06-.33-1.72-.48-.62-.15-1.28-.29-1.94-.44-.66-.15-1.32-.26-1.94-.37-.62-.11-1.17-.22-1.65-.29v-1.9c.59.11,1.24.26,1.97.44.73.18,1.46.37,2.27.59.8.22,1.61.47,2.41.73.84.26,1.61.55,2.38.8v1.9Z"/>
  <path class="cls-7" d="M97.04,177.59c0,1.28-.4,2.27-1.24,2.93-.81.66-1.98,1.02-3.51,1.02-.77,0-1.43-.11-2.01-.29-.58-.22-1.1-.48-1.5-.84-.4-.37-.69-.8-.91-1.32-.22-.51-.33-1.06-.33-1.65,0-.33,0-.62.07-.88.04-.26.11-.48.18-.7.07-.18.15-.36.22-.47.07-.11.15-.22.18-.29l1.43.48c-.15.22-.26.51-.37.8-.11.29-.15.69-.15,1.1,0,.29.04.55.15.84s.26.51.51.73c.26.22.55.36.95.51.4.15.91.18,1.5.18,1.02,0,1.83-.18,2.38-.55.55-.37.84-.95.84-1.76,0-.47-.04-.84-.15-1.17-.11-.33-.22-.55-.33-.73l1.43-.44c.15.26.29.59.44,1.02.15.44.18.95.18,1.5l.04-.04Z"/>
  <path class="cls-7" d="M97.04,170.27c0,1.28-.4,2.27-1.24,2.93-.81.66-1.98,1.02-3.51,1.02-.77,0-1.43-.11-2.01-.29-.58-.22-1.1-.48-1.5-.84-.4-.37-.69-.8-.91-1.32-.22-.51-.33-1.06-.33-1.65,0-.33,0-.62.07-.88.04-.26.11-.48.18-.7.07-.18.15-.36.22-.47.07-.11.15-.22.18-.29l1.43.48c-.15.22-.26.51-.37.8-.11.29-.15.69-.15,1.1,0,.29.04.55.15.84.11.29.26.51.51.73.26.22.55.37.95.51.4.15.91.18,1.5.18,1.02,0,1.83-.18,2.38-.55.55-.37.84-.95.84-1.76,0-.48-.04-.84-.15-1.17-.11-.33-.22-.55-.33-.73l1.43-.44c.15.26.29.58.44,1.02.15.44.18.95.18,1.5l.04-.04Z"/>
  <path class="cls-7" d="M68.44,184.68c0,.44.07.81.22,1.1.15.29.37.55.66.73.29.18.62.33.99.4.37.07.81.11,1.28.11,1.1,0,1.87-.18,2.38-.51.51-.33.77-.84.77-1.5v-.37c0-.11,0-.26-.04-.36h-3.29v-1.79h4.54c.07.22.18.55.26.99.11.44.15.99.15,1.65,0,.55-.11,1.06-.29,1.54-.18.44-.51.84-.88,1.17-.4.33-.88.59-1.46.73-.58.18-1.28.26-2.05.26s-1.46-.11-2.05-.29c-.59-.22-1.1-.47-1.5-.84-.4-.37-.7-.77-.91-1.24-.18-.48-.29-.99-.29-1.54,0-.37,0-.66.07-.95.07-.29.11-.51.18-.73.07-.22.15-.37.22-.51.07-.15.15-.22.18-.29l1.43.48c-.15.22-.26.48-.37.8-.11.33-.15.62-.15.95l-.04.04Z"/>
  <path class="cls-7" d="M76.12,176.75c-.99.4-2.01.84-3,1.35-.99.47-2.01.99-3,1.57h6v1.61h-9.07v-1.46c.44-.26.88-.55,1.39-.8.51-.26.99-.55,1.5-.81.51-.26.99-.51,1.46-.73.48-.22.88-.4,1.24-.55h-5.56v-1.61h9.07v1.46l-.04-.04Z"/>
  <path class="cls-7" d="M71.58,167.71c.84,0,1.54.11,2.16.33.59.22,1.06.51,1.43.88.37.37.66.8.81,1.32.18.51.26,1.06.26,1.68,0,.33,0,.62-.04.95-.04.33-.07.62-.18.99h-8.85c-.07-.4-.15-.8-.18-1.17,0-.37-.04-.7-.04-1.02,0-.58.07-1.13.26-1.65.18-.48.44-.91.84-1.24.37-.33.84-.62,1.43-.8.58-.18,1.28-.29,2.08-.29l.04.04ZM74.65,172.03v-.29c0-.4-.07-.77-.22-1.02-.15-.29-.37-.51-.66-.66-.26-.18-.58-.29-.99-.37-.4-.07-.8-.11-1.24-.11-.4,0-.77,0-1.13.07-.37.07-.69.15-.99.29s-.51.33-.7.58c-.18.26-.26.59-.26.99v.26c0,.11,0,.18.04.26h6.14Z"/>
  <path class="cls-7" d="M134.42,185.85c0-.29,0-.55-.11-.77-.07-.18-.15-.36-.26-.48-.11-.11-.26-.18-.36-.26-.15-.04-.29-.07-.44-.07-.18,0-.37.04-.51.15-.15.11-.29.26-.4.4-.11.15-.22.37-.29.55-.07.18-.18.4-.26.62-.11.26-.22.55-.33.84-.11.29-.29.55-.48.8-.18.26-.44.44-.73.58-.29.15-.66.22-1.06.22-.84,0-1.5-.29-1.98-.84-.48-.55-.73-1.32-.73-2.27,0-.55.07-1.02.18-1.46.11-.44.26-.77.44-1.06l1.39.51c-.15.26-.26.51-.37.8-.11.29-.15.66-.15,1.02,0,.95.33,1.43,1.02,1.43.18,0,.33-.04.48-.15.15-.11.26-.22.36-.37.11-.15.18-.33.26-.51.07-.18.15-.37.22-.55.11-.29.22-.58.37-.88.15-.29.29-.59.51-.84.22-.26.48-.48.8-.62.33-.15.73-.26,1.24-.26.84,0,1.5.29,1.97.84.48.55.7,1.39.7,2.52,0,.77-.07,1.35-.26,1.79-.18.44-.29.77-.44,1.02l-1.46-.51c.15-.26.29-.59.44-.95.15-.37.22-.81.22-1.35v.07Z"/>
  <path class="cls-7" d="M135.92,177.59c0,1.28-.4,2.27-1.24,2.93-.8.66-1.98,1.02-3.51,1.02-.77,0-1.43-.11-2.01-.29-.58-.22-1.1-.48-1.5-.84-.4-.37-.7-.8-.92-1.32-.22-.51-.33-1.06-.33-1.65,0-.33,0-.62.07-.88.04-.26.11-.48.18-.7.07-.18.15-.36.22-.47.07-.11.15-.22.18-.29l1.43.48c-.15.22-.26.51-.37.8-.11.29-.15.69-.15,1.1,0,.29.04.55.15.84.11.29.26.51.51.73.26.22.55.36.95.51.4.15.92.18,1.5.18,1.02,0,1.83-.18,2.38-.55.55-.37.84-.95.84-1.76,0-.47-.04-.84-.15-1.17-.11-.33-.22-.55-.33-.73l1.43-.44c.15.26.29.59.44,1.02.15.44.18.95.18,1.5l.04-.04Z"/>
  <path class="cls-7" d="M135.73,167.9v5.71h-9.07v-1.83h7.57v-3.88h1.5Z"/>
  <path class="cls-7" d="M116.28,185.85c0-.29,0-.55-.11-.77-.07-.18-.15-.36-.26-.48-.11-.11-.26-.18-.37-.26-.15-.04-.29-.07-.44-.07-.18,0-.37.04-.51.15-.15.11-.29.26-.4.4-.11.15-.22.37-.29.55-.07.18-.18.4-.26.62-.11.26-.22.55-.33.84-.11.29-.29.55-.47.8-.18.26-.44.44-.73.58-.29.15-.66.22-1.06.22-.84,0-1.5-.29-1.97-.84-.48-.55-.73-1.32-.73-2.27,0-.55.07-1.02.18-1.46.11-.44.26-.77.44-1.06l1.39.51c-.15.26-.26.51-.37.8-.11.29-.15.66-.15,1.02,0,.95.33,1.43,1.02,1.43.18,0,.33-.04.48-.15.15-.11.26-.22.37-.37.11-.15.18-.33.26-.51.07-.18.15-.37.22-.55.11-.29.22-.58.37-.88.15-.29.29-.59.51-.84.22-.26.48-.48.8-.62.33-.15.73-.26,1.24-.26.84,0,1.5.29,1.98.84.48.55.7,1.39.7,2.52,0,.77-.07,1.35-.26,1.79-.18.44-.29.77-.44,1.02l-1.46-.51c.15-.26.29-.59.44-.95.15-.37.22-.81.22-1.35v.07Z"/>
  <path class="cls-7" d="M113.06,175.03c.84,0,1.54.11,2.16.33.58.22,1.06.51,1.43.88.36.37.66.81.8,1.32.18.51.26,1.06.26,1.68,0,.33,0,.62-.04.95-.04.33-.07.62-.18.99h-8.85c-.07-.4-.15-.8-.18-1.17,0-.37-.04-.7-.04-1.02,0-.58.07-1.13.26-1.65.18-.48.44-.91.84-1.24.37-.33.84-.62,1.43-.8.58-.18,1.28-.29,2.08-.29l.04.04ZM116.13,179.34v-.29c0-.4-.07-.77-.22-1.02-.15-.29-.37-.51-.66-.66-.26-.18-.59-.29-.99-.37-.4-.07-.8-.11-1.24-.11-.4,0-.77,0-1.13.07-.37.07-.7.15-.99.29-.29.15-.51.33-.69.58-.18.26-.26.59-.26.99v.26c0,.11,0,.18.04.26h6.15Z"/>
  <path class="cls-7" d="M117.59,169.36l-2.08.44v2.41l2.08.4v1.87c-1.79-.44-3.4-.88-4.86-1.32-1.46-.44-2.85-.88-4.17-1.28v-1.98c1.32-.44,2.74-.84,4.21-1.28,1.5-.44,3.11-.84,4.83-1.24v1.98ZM110.28,170.97c.33.11.66.18.99.26.29.07.62.15.91.22.29.07.59.15.92.22.29.07.62.11.95.18v-1.76c-.33.07-.62.11-.95.18-.29.07-.58.11-.92.18-.33.07-.58.15-.91.22-.29.07-.62.18-.99.26v.04Z"/>
  <path class="cls-7" d="M159.14,129.64l-.44-2.09h-2.41l-.4,2.09h-1.87c.44-1.79.88-3.4,1.32-4.86.44-1.46.88-2.85,1.28-4.17h1.97c.44,1.32.84,2.74,1.28,4.21.44,1.5.84,3.11,1.24,4.83h-1.98ZM157.53,122.32c-.11.33-.18.66-.26.99-.07.29-.15.62-.22.91s-.15.58-.22.91c-.07.29-.11.62-.18.95h1.76c-.07-.33-.11-.62-.18-.95-.07-.29-.11-.59-.18-.91-.07-.33-.15-.59-.22-.91-.07-.29-.18-.62-.26-.99h-.04Z"/>
  <path class="cls-7" d="M168.1,125.1c0,.84-.11,1.54-.33,2.16-.22.58-.51,1.06-.88,1.43-.37.37-.8.66-1.32.81-.51.18-1.06.26-1.68.26-.33,0-.62,0-.95-.04-.33-.04-.62-.07-.99-.18v-8.85c.4-.07.8-.15,1.17-.18.36,0,.7-.04,1.02-.04.58,0,1.13.07,1.65.26.47.18.91.44,1.24.84.33.37.62.84.8,1.43.18.59.29,1.28.29,2.08l-.04.04ZM163.79,128.18h.29c.4,0,.77-.07,1.02-.22.29-.15.51-.37.66-.66.18-.26.29-.59.37-.99.07-.4.11-.8.11-1.24,0-.4,0-.77-.07-1.13-.07-.37-.15-.69-.29-.99-.15-.29-.33-.51-.59-.7-.26-.18-.59-.26-.99-.26h-.26c-.11,0-.18,0-.26.04v6.14Z"/>
  <path class="cls-7" d="M175.42,125.1c0,.84-.11,1.54-.33,2.16-.22.58-.51,1.06-.88,1.43-.37.37-.8.66-1.32.81-.51.18-1.06.26-1.68.26-.33,0-.62,0-.95-.04-.33-.04-.62-.07-.99-.18v-8.85c.4-.07.8-.15,1.17-.18.37,0,.7-.04,1.02-.04.59,0,1.13.07,1.65.26.47.18.91.44,1.24.84.33.37.62.84.8,1.43.18.59.29,1.28.29,2.08l-.04.04ZM171.1,128.18h.29c.4,0,.77-.07,1.02-.22.29-.15.51-.37.66-.66.18-.26.29-.59.37-.99.07-.4.11-.8.11-1.24,0-.4,0-.77-.07-1.13-.07-.37-.15-.69-.29-.99-.15-.29-.33-.51-.59-.7-.26-.18-.58-.26-.99-.26h-.26c-.11,0-.18,0-.26.04v6.14Z"/>
  <path class="cls-7" d="M178.97,120.49c.51,0,.99.07,1.39.18.4.11.77.29,1.1.55.29.26.55.55.7.91.15.37.26.81.26,1.32s-.11.99-.33,1.43c-.22.44-.59.77-1.06.99.18.26.33.55.51.84.18.29.37.62.55.95.18.33.33.66.51,1.02.15.33.29.66.4.95h-1.9c-.22-.59-.48-1.13-.77-1.68-.29-.55-.62-1.1-.95-1.65h-.95v3.33h-1.79v-8.92s.37-.07.58-.11c.22,0,.44-.07.62-.07h1.13v-.04ZM180.54,123.42c0-.48-.15-.84-.44-1.06-.29-.22-.7-.33-1.17-.33h-.26c-.11,0-.18,0-.29.04v2.71h.4c.62,0,1.06-.11,1.32-.37.26-.26.4-.59.4-1.02l.04.04Z"/>
  <path class="cls-7" d="M68.95,22.77l-3.26-3.26,1.98-1.97,3.26,3.26,1.9,1.9,3.26,3.26-1.98,1.97-3.26-3.26-1.9-1.9Z"/>
  <path class="cls-7" d="M68.95,82.38l-3.26-3.25,1.98-1.98,3.26,3.26,1.9,1.9,3.26,3.26-1.98,1.97-3.26-3.25-1.9-1.9Z"/>
  <path class="cls-7" d="M68.95,103.12l-3.26-3.26,1.98-1.97,3.26,3.25,1.9,1.9,3.26,3.26-1.98,1.98-3.26-3.26-1.9-1.9Z"/>
  <path class="cls-7" d="M128.64,82.38l-3.26-3.25,1.98-1.98,3.26,3.26,1.9,1.9,3.25,3.26-1.97,1.97-3.26-3.25-1.9-1.9Z"/>
  <path class="cls-7" d="M128.64,103.12l-3.26-3.26,1.98-1.97,3.26,3.25,1.9,1.9,3.25,3.25-1.97,1.98-3.26-3.26-1.9-1.9Z"/>
  <path class="cls-7" d="M128.64,123.86l-3.26-3.25,1.98-1.98,3.26,3.26,1.9,1.9,3.25,3.26-1.97,1.97-3.26-3.26-1.9-1.9Z"/>
  <path class="cls-7" d="M89.69,22.77l-3.26-3.26,1.98-1.97,3.25,3.26,1.9,1.9,3.25,3.26-1.97,1.97-3.26-3.26-1.9-1.9Z"/>
  <path class="cls-7" d="M100.73,13v20.74h20.74V13h-20.74ZM113.06,22.77l-1.9,1.9-3.26,3.26-1.97-1.97,3.25-3.26,1.9-1.9,3.26-3.26,1.98,1.97-3.26,3.26Z"/>
  <path class="cls-7" d="M130.54,22.77l-3.26-3.26,1.98-1.97,3.26,3.26,1.9,1.9,3.26,3.26-1.98,1.97-3.26-3.26-1.9-1.9Z"/>
  <path class="cls-7" d="M30.58,80.66c.11-.22.22-.51.37-.84s.29-.69.44-1.1c.15-.4.29-.77.4-1.17.15-.4.26-.73.37-1.06h1.87c-.18.51-.37.99-.55,1.46-.18.48-.37.91-.59,1.39-.22.48-.44.91-.66,1.35-.22.44-.47.91-.77,1.39v3.44h-1.83v-3.44c-.55-.95-1.02-1.86-1.43-2.78-.4-.92-.81-1.87-1.17-2.85h1.94c.22.7.48,1.43.73,2.16.26.73.55,1.39.84,2.01l.04.04Z"/>
  <path class="cls-7" d="M72.28,128.36c-.18-.51-.4-1.06-.7-1.65-.26-.62-.55-1.21-.84-1.83-.29.59-.55,1.17-.84,1.79-.29.62-.51,1.17-.73,1.68h-1.94c.11-.26.26-.59.44-.95.18-.37.4-.77.62-1.21.22-.44.48-.88.73-1.32.26-.44.51-.88.73-1.32l-2.38-4.28h1.94l1.43,2.89,1.5-2.89h1.83l-2.3,4.24c.26.4.51.84.77,1.32.26.48.48.91.7,1.35.22.44.4.84.58,1.21s.29.7.4.95h-1.94Z"/>
  <path class="cls-7" d="M17.85,132.2c-.4.66-.81,1.24-1.17,1.83-.37.55-.7,1.1-.99,1.61-.29.51-.59.99-.84,1.46-.26.47-.51.95-.77,1.39h3.88v1.5h-5.96v-1.02c.22-.4.44-.88.7-1.32.26-.47.51-.95.8-1.5.29-.51.62-1.1.99-1.72.37-.62.73-1.28,1.17-2.01h-3.48v-1.5h5.63v1.24l.04.04Z"/>
  <path class="cls-7" d="M56.7,120.02h-25.93v3.66h25.93v-3.66Z"/>
  <path class="cls-7" d="M55.09,127.33l9.47-5.49-9.47-5.45v10.94Z"/>
  <path class="cls-7" d="M32.59,95.95h-3.66v25.93h3.66v-25.93Z"/>
  <path class="cls-7" d="M36.25,97.52l-5.49-9.47-5.45,9.47h10.94Z"/>
  <path class="cls-7" d="M30.76,132.75c-6,0-10.9-4.9-10.9-10.9s4.9-10.9,10.9-10.9,10.9,4.9,10.9,10.9-4.9,10.9-10.9,10.9ZM30.76,114.61c-3.99,0-7.24,3.25-7.24,7.24s3.26,7.24,7.24,7.24,7.24-3.25,7.24-7.24-3.26-7.24-7.24-7.24Z"/>
  <path class="cls-7" d="M42,230.41h18.2v9.09h78.85v-9.09h21.23v57.59H42v-57.59Z"/>
  <g class="cls-1">
    <path class="cls-11" d="M42,230.41v-.5h-.5v.5h.5ZM60.2,230.41h.5v-.5h-.5v.5ZM60.2,239.5h-.5v.5h.5v-.5ZM139.05,239.5v.5h.5v-.5h-.5ZM139.05,230.41v-.5h-.5v.5h.5ZM160.28,230.41h.5v-.5h-.5v.5ZM160.28,288v.5h.5v-.5h-.5ZM42,288h-.5v.5h.5v-.5ZM42,230.41v.5h18.2v-1h-18.2v.5ZM60.2,230.41h-.5v9.09h1v-9.09h-.5ZM60.2,239.5v.5h78.85v-1H60.2v.5ZM139.05,239.5h.5v-9.09h-1v9.09h.5ZM139.05,230.41v.5h21.23v-1h-21.23v.5ZM160.28,230.41h-.5v57.59h1v-57.59h-.5ZM160.28,288v-.5H42v1h118.28v-.5ZM42,288h.5v-57.59h-1v57.59h.5Z"/>
  </g>
  <path class="cls-7" d="M48.07,236.47h8.24v7.18h90.98v-7.18h6.92v45.47H48.07v-45.47Z"/>
  <g class="cls-5">
    <path class="cls-11" d="M48.07,236.47v-.5h-.5v.5h.5ZM56.31,236.47h.5v-.5h-.5v.5ZM56.31,243.65h-.5v.5h.5v-.5ZM147.29,243.65v.5h.5v-.5h-.5ZM147.29,236.47v-.5h-.5v.5h.5ZM154.21,236.47h.5v-.5h-.5v.5ZM154.21,281.94v.5h.5v-.5h-.5ZM48.07,281.94h-.5v.5h.5v-.5ZM48.07,236.47v.5h8.24v-1h-8.24v.5ZM56.31,236.47h-.5v7.18h1v-7.18h-.5ZM56.31,243.65v.5h90.98v-1H56.31v.5ZM147.29,243.65h.5v-7.18h-1v7.18h.5ZM147.29,236.47v.5h6.92v-1h-6.92v.5ZM154.21,236.47h-.5v45.47h1v-45.47h-.5ZM154.21,281.94v-.5H48.07v1h106.15v-.5ZM48.07,281.94h.5v-45.47h-1v45.47h.5Z"/>
  </g>
  <rect class="cls-2" x="134.25" y="262.23" width="6" height="5.99"/>
  <rect class="cls-6" x="135.4" y="263.38" width="3.7" height="3.7"/>
  <rect class="cls-2" x="112.26" y="262.23" width="6" height="5.99"/>
  <rect class="cls-2" x="90.27" y="262.23" width="6" height="5.99"/>
  <rect class="cls-2" x="68.28" y="262.23" width="6" height="5.99"/>
  <rect class="cls-6" x="113.41" y="263.38" width="3.7" height="3.7"/>
  <rect class="cls-6" x="91.42" y="263.38" width="3.7" height="3.7"/>
  <rect class="cls-6" x="69.43" y="263.38" width="3.7" height="3.7"/>
  <rect x="90" y="92" width="19" height="17"/>
</svg>