<svg width="733" height="839" viewBox="0 0 733 839" fill="none" xmlns="http://www.w3.org/2000/svg">
<path d="M481 125C484.314 125 487 127.686 487 131L487 705C487 708.314 484.314 711 481 711H251C247.686 711 245 708.314 245 705L245 131C245 127.686 247.686 125 251 125L481 125ZM299.5 675C292.596 675 287 680.596 287 687.5C287 694.404 292.596 700 299.5 700C306.404 700 312 694.404 312 687.5C312 680.596 306.404 675 299.5 675ZM430.5 675C423.596 675 418 680.596 418 687.5C418 694.404 423.596 700 430.5 700C437.404 700 443 694.404 443 687.5C443 680.596 437.404 675 430.5 675ZM300.5 135C293.596 135 288 140.596 288 147.5C288 154.404 293.596 160 300.5 160C307.404 160 313 154.404 313 147.5C313 140.596 307.404 135 300.5 135ZM431.5 135C424.596 135 419 140.596 419 147.5C419 154.404 424.596 160 431.5 160C438.404 160 444 154.404 444 147.5C444 140.596 438.404 135 431.5 135Z" fill="#01BC87"/>
<path d="M245 131H263C267.971 131 272 135.029 272 140V141C272 145.971 267.971 150 263 150H245V131Z" fill="#F6C545"/>
<path d="M245 134H245.5C249.09 134 252 136.91 252 140.5C252 144.09 249.09 147 245.5 147H245V134Z" fill="#D9D9D9"/>
<circle cx="262.5" cy="140.5" r="6.5" fill="#D9D9D9"/>
<path d="M487 704L469 704C464.029 704 460 699.971 460 695L460 694C460 689.029 464.029 685 469 685L487 685L487 704Z" fill="#F6C545"/>
<path d="M487 701L486.5 701C482.91 701 480 698.09 480 694.5C480 690.91 482.91 688 486.5 688L487 688L487 701Z" fill="#D9D9D9"/>
<circle cx="469.5" cy="694.5" r="6.5" transform="rotate(-180 469.5 694.5)" fill="#D9D9D9"/>
<path d="M245 160H263C267.971 160 272 164.029 272 169V170C272 174.971 267.971 179 263 179H245V160Z" fill="#F6C545"/>
<path d="M245 163H245.5C249.09 163 252 165.91 252 169.5C252 173.09 249.09 176 245.5 176H245V163Z" fill="#D9D9D9"/>
<circle cx="262.5" cy="169.5" r="6.5" fill="#D9D9D9"/>
<path d="M487 675L469 675C464.029 675 460 670.971 460 666L460 665C460 660.029 464.029 656 469 656L487 656L487 675Z" fill="#F6C545"/>
<path d="M487 672L486.5 672C482.91 672 480 669.09 480 665.5C480 661.91 482.91 659 486.5 659L487 659L487 672Z" fill="#D9D9D9"/>
<circle cx="469.5" cy="665.5" r="6.5" transform="rotate(-180 469.5 665.5)" fill="#D9D9D9"/>
<path d="M245 189H263C267.971 189 272 193.029 272 198V199C272 203.971 267.971 208 263 208H245V189Z" fill="#F6C545"/>
<path d="M245 192H245.5C249.09 192 252 194.91 252 198.5C252 202.09 249.09 205 245.5 205H245V192Z" fill="#D9D9D9"/>
<circle cx="262.5" cy="198.5" r="6.5" fill="#D9D9D9"/>
<path d="M487 646L469 646C464.029 646 460 641.971 460 637L460 636C460 631.029 464.029 627 469 627L487 627L487 646Z" fill="#F6C545"/>
<path d="M487 643L486.5 643C482.91 643 480 640.09 480 636.5C480 632.91 482.91 630 486.5 630L487 630L487 643Z" fill="#D9D9D9"/>
<circle cx="469.5" cy="636.5" r="6.5" transform="rotate(-180 469.5 636.5)" fill="#D9D9D9"/>
<path d="M245 218H263C267.971 218 272 222.029 272 227V228C272 232.971 267.971 237 263 237H245V218Z" fill="#F6C545"/>
<path d="M245 221H245.5C249.09 221 252 223.91 252 227.5C252 231.09 249.09 234 245.5 234H245V221Z" fill="#D9D9D9"/>
<circle cx="262.5" cy="227.5" r="6.5" fill="#D9D9D9"/>
<path d="M487 617L469 617C464.029 617 460 612.971 460 608L460 607C460 602.029 464.029 598 469 598L487 598L487 617Z" fill="#F6C545"/>
<path d="M487 614L486.5 614C482.91 614 480 611.09 480 607.5C480 603.91 482.91 601 486.5 601L487 601L487 614Z" fill="#D9D9D9"/>
<circle cx="469.5" cy="607.5" r="6.5" transform="rotate(-180 469.5 607.5)" fill="#D9D9D9"/>
<path d="M245 247H263C267.971 247 272 251.029 272 256V257C272 261.971 267.971 266 263 266H245V247Z" fill="#F6C545"/>
<path d="M245 250H245.5C249.09 250 252 252.91 252 256.5C252 260.09 249.09 263 245.5 263H245V250Z" fill="#D9D9D9"/>
<circle cx="262.5" cy="256.5" r="6.5" fill="#D9D9D9"/>
<path d="M487 588L469 588C464.03 588 460 583.971 460 579L460 578C460 573.029 464.03 569 469 569L487 569L487 588Z" fill="#F6C545"/>
<path d="M487 585L486.5 585C482.91 585 480 582.09 480 578.5C480 574.91 482.91 572 486.5 572L487 572L487 585Z" fill="#D9D9D9"/>
<circle cx="469.5" cy="578.5" r="6.5" transform="rotate(-180 469.5 578.5)" fill="#D9D9D9"/>
<path d="M245 277H263C267.971 277 272 281.029 272 286V287C272 291.971 267.971 296 263 296H245V277Z" fill="#F6C545"/>
<path d="M245 280H245.5C249.09 280 252 282.91 252 286.5C252 290.09 249.09 293 245.5 293H245V280Z" fill="#D9D9D9"/>
<circle cx="262.5" cy="286.5" r="6.5" fill="#D9D9D9"/>
<path d="M487 558L469 558C464.03 558 460 553.971 460 549L460 548C460 543.029 464.03 539 469 539L487 539L487 558Z" fill="#F6C545"/>
<path d="M487 555L486.5 555C482.91 555 480 552.09 480 548.5C480 544.91 482.91 542 486.5 542L487 542L487 555Z" fill="#D9D9D9"/>
<circle cx="469.5" cy="548.5" r="6.5" transform="rotate(-180 469.5 548.5)" fill="#D9D9D9"/>
<path d="M245 306H263C267.971 306 272 310.029 272 315V316C272 320.971 267.971 325 263 325H245V306Z" fill="#F6C545"/>
<path d="M245 309H245.5C249.09 309 252 311.91 252 315.5C252 319.09 249.09 322 245.5 322H245V309Z" fill="#D9D9D9"/>
<circle cx="262.5" cy="315.5" r="6.5" fill="#D9D9D9"/>
<path d="M487 529L469 529C464.03 529 460 524.971 460 520L460 519C460 514.029 464.03 510 469 510L487 510L487 529Z" fill="#F6C545"/>
<path d="M487 526L486.5 526C482.91 526 480 523.09 480 519.5C480 515.91 482.91 513 486.5 513L487 513L487 526Z" fill="#D9D9D9"/>
<circle cx="469.5" cy="519.5" r="6.5" transform="rotate(-180 469.5 519.5)" fill="#D9D9D9"/>
<path d="M245 335H263C267.971 335 272 339.029 272 344V345C272 349.971 267.971 354 263 354H245V335Z" fill="#F6C545"/>
<path d="M245 338H245.5C249.09 338 252 340.91 252 344.5C252 348.09 249.09 351 245.5 351H245V338Z" fill="#D9D9D9"/>
<circle cx="262.5" cy="344.5" r="6.5" fill="#D9D9D9"/>
<path d="M487 500L469 500C464.03 500 460 495.971 460 491L460 490C460 485.029 464.03 481 469 481L487 481L487 500Z" fill="#F6C545"/>
<path d="M487 497L486.5 497C482.91 497 480 494.09 480 490.5C480 486.91 482.91 484 486.5 484L487 484L487 497Z" fill="#D9D9D9"/>
<circle cx="469.5" cy="490.5" r="6.5" transform="rotate(-180 469.5 490.5)" fill="#D9D9D9"/>
<path d="M245 364H263C267.971 364 272 368.029 272 373V374C272 378.971 267.971 383 263 383H245V364Z" fill="#F6C545"/>
<path d="M245 366H245.5C249.09 366 252 368.91 252 372.5C252 376.09 249.09 379 245.5 379H245V366Z" fill="#D9D9D9"/>
<circle cx="262.5" cy="372.5" r="6.5" fill="#D9D9D9"/>
<path d="M487 471L469 471C464.03 471 460 466.971 460 462L460 461C460 456.029 464.03 452 469 452L487 452L487 471Z" fill="#F6C545"/>
<path d="M487 469L486.5 469C482.91 469 480 466.09 480 462.5C480 458.91 482.91 456 486.5 456L487 456L487 469Z" fill="#D9D9D9"/>
<circle cx="469.5" cy="462.5" r="6.5" transform="rotate(-180 469.5 462.5)" fill="#D9D9D9"/>
<path d="M245 393H263C267.971 393 272 397.029 272 402V403C272 407.971 267.971 412 263 412H245V393Z" fill="#F6C545"/>
<path d="M245 396H245.5C249.09 396 252 398.91 252 402.5C252 406.09 249.09 409 245.5 409H245V396Z" fill="#D9D9D9"/>
<circle cx="262.5" cy="402.5" r="6.5" fill="#D9D9D9"/>
<path d="M487 442L469 442C464.03 442 460 437.971 460 433L460 432C460 427.029 464.03 423 469 423L487 423L487 442Z" fill="#F6C545"/>
<path d="M487 439L486.5 439C482.91 439 480 436.09 480 432.5C480 428.91 482.91 426 486.5 426L487 426L487 439Z" fill="#D9D9D9"/>
<circle cx="469.5" cy="432.5" r="6.5" transform="rotate(-180 469.5 432.5)" fill="#D9D9D9"/>
<path d="M245 422H263C267.971 422 272 426.029 272 431V432C272 436.971 267.971 441 263 441H245V422Z" fill="#F6C545"/>
<path d="M245 424H245.5C249.09 424 252 426.91 252 430.5C252 434.09 249.09 437 245.5 437H245V424Z" fill="#D9D9D9"/>
<circle cx="262.5" cy="430.5" r="6.5" fill="#D9D9D9"/>
<path d="M487 413L469 413C464.03 413 460 408.971 460 404L460 403C460 398.029 464.03 394 469 394L487 394L487 413Z" fill="#F6C545"/>
<path d="M487 411L486.5 411C482.91 411 480 408.09 480 404.5C480 400.91 482.91 398 486.5 398L487 398L487 411Z" fill="#D9D9D9"/>
<circle cx="469.5" cy="404.5" r="6.5" transform="rotate(-180 469.5 404.5)" fill="#D9D9D9"/>
<path d="M245 452H263C267.971 452 272 456.029 272 461V462C272 466.971 267.971 471 263 471H245V452Z" fill="#F6C545"/>
<path d="M245 455H245.5C249.09 455 252 457.91 252 461.5C252 465.09 249.09 468 245.5 468H245V455Z" fill="#D9D9D9"/>
<circle cx="262.5" cy="461.5" r="6.5" fill="#D9D9D9"/>
<path d="M487 383L469 383C464.03 383 460 378.971 460 374L460 373C460 368.029 464.03 364 469 364L487 364L487 383Z" fill="#F6C545"/>
<path d="M487 380L486.5 380C482.91 380 480 377.09 480 373.5C480 369.91 482.91 367 486.5 367L487 367L487 380Z" fill="#D9D9D9"/>
<circle cx="469.5" cy="373.5" r="6.5" transform="rotate(-180 469.5 373.5)" fill="#D9D9D9"/>
<path d="M245 481H263C267.971 481 272 485.029 272 490V491C272 495.971 267.971 500 263 500H245V481Z" fill="#F6C545"/>
<path d="M245 484H245.5C249.09 484 252 486.91 252 490.5C252 494.09 249.09 497 245.5 497H245V484Z" fill="#D9D9D9"/>
<circle cx="262.5" cy="490.5" r="6.5" fill="#D9D9D9"/>
<path d="M487 354L469 354C464.03 354 460 349.971 460 345L460 344C460 339.029 464.03 335 469 335L487 335L487 354Z" fill="#F6C545"/>
<path d="M487 351L486.5 351C482.91 351 480 348.09 480 344.5C480 340.91 482.91 338 486.5 338L487 338L487 351Z" fill="#D9D9D9"/>
<circle cx="469.5" cy="344.5" r="6.5" transform="rotate(-180 469.5 344.5)" fill="#D9D9D9"/>
<path d="M245 510H263C267.971 510 272 514.029 272 519V520C272 524.971 267.971 529 263 529H245V510Z" fill="#F6C545"/>
<path d="M245 513H245.5C249.09 513 252 515.91 252 519.5C252 523.09 249.09 526 245.5 526H245V513Z" fill="#D9D9D9"/>
<circle cx="262.5" cy="519.5" r="6.5" fill="#D9D9D9"/>
<path d="M487 325L469 325C464.03 325 460 320.971 460 316L460 315C460 310.029 464.03 306 469 306L487 306L487 325Z" fill="#F6C545"/>
<path d="M487 322L486.5 322C482.91 322 480 319.09 480 315.5C480 311.91 482.91 309 486.5 309L487 309L487 322Z" fill="#D9D9D9"/>
<circle cx="469.5" cy="315.5" r="6.5" transform="rotate(-180 469.5 315.5)" fill="#D9D9D9"/>
<path d="M245 539H263C267.971 539 272 543.029 272 548V549C272 553.971 267.971 558 263 558H245V539Z" fill="#F6C545"/>
<path d="M245 542H245.5C249.09 542 252 544.91 252 548.5C252 552.09 249.09 555 245.5 555H245V542Z" fill="#D9D9D9"/>
<circle cx="262.5" cy="548.5" r="6.5" fill="#D9D9D9"/>
<path d="M487 296L469 296C464.03 296 460 291.971 460 287L460 286C460 281.029 464.03 277 469 277L487 277L487 296Z" fill="#F6C545"/>
<path d="M487 293L486.5 293C482.91 293 480 290.09 480 286.5C480 282.91 482.91 280 486.5 280L487 280L487 293Z" fill="#D9D9D9"/>
<circle cx="469.5" cy="286.5" r="6.5" transform="rotate(-180 469.5 286.5)" fill="#D9D9D9"/>
<path d="M245 568H263C267.971 568 272 572.029 272 577V578C272 582.971 267.971 587 263 587H245V568Z" fill="#F6C545"/>
<path d="M245 571H245.5C249.09 571 252 573.91 252 577.5C252 581.09 249.09 584 245.5 584H245V571Z" fill="#D9D9D9"/>
<circle cx="262.5" cy="577.5" r="6.5" fill="#D9D9D9"/>
<path d="M487 267L469 267C464.03 267 460 262.971 460 258L460 257C460 252.029 464.03 248 469 248L487 248L487 267Z" fill="#F6C545"/>
<path d="M487 264L486.5 264C482.91 264 480 261.09 480 257.5C480 253.91 482.91 251 486.5 251L487 251L487 264Z" fill="#D9D9D9"/>
<circle cx="469.5" cy="257.5" r="6.5" transform="rotate(-180 469.5 257.5)" fill="#D9D9D9"/>
<path d="M245 598H263C267.971 598 272 602.029 272 607V608C272 612.971 267.971 617 263 617H245V598Z" fill="#F6C545"/>
<path d="M245 601H245.5C249.09 601 252 603.91 252 607.5C252 611.09 249.09 614 245.5 614H245V601Z" fill="#D9D9D9"/>
<circle cx="262.5" cy="607.5" r="6.5" fill="#D9D9D9"/>
<path d="M487 237L469 237C464.03 237 460 232.971 460 228L460 227C460 222.029 464.03 218 469 218L487 218L487 237Z" fill="#F6C545"/>
<path d="M487 234L486.5 234C482.91 234 480 231.09 480 227.5C480 223.91 482.91 221 486.5 221L487 221L487 234Z" fill="#D9D9D9"/>
<circle cx="469.5" cy="227.5" r="6.5" transform="rotate(-180 469.5 227.5)" fill="#D9D9D9"/>
<path d="M245 627H263C267.971 627 272 631.029 272 636V637C272 641.971 267.971 646 263 646H245V627Z" fill="#F6C545"/>
<path d="M245 630H245.5C249.09 630 252 632.91 252 636.5C252 640.09 249.09 643 245.5 643H245V630Z" fill="#D9D9D9"/>
<circle cx="262.5" cy="636.5" r="6.5" fill="#D9D9D9"/>
<path d="M487 208L469 208C464.03 208 460 203.971 460 199L460 198C460 193.029 464.03 189 469 189L487 189L487 208Z" fill="#F6C545"/>
<path d="M487 205L486.5 205C482.91 205 480 202.09 480 198.5C480 194.91 482.91 192 486.5 192L487 192L487 205Z" fill="#D9D9D9"/>
<circle cx="469.5" cy="198.5" r="6.5" transform="rotate(-180 469.5 198.5)" fill="#D9D9D9"/>
<path d="M245 656H263C267.971 656 272 660.029 272 665V666C272 670.971 267.971 675 263 675H245V656Z" fill="#F6C545"/>
<path d="M245 659H245.5C249.09 659 252 661.91 252 665.5C252 669.09 249.09 672 245.5 672H245V659Z" fill="#D9D9D9"/>
<circle cx="262.5" cy="665.5" r="6.5" fill="#D9D9D9"/>
<path d="M487 179L469 179C464.03 179 460 174.971 460 170L460 169C460 164.029 464.03 160 469 160L487 160L487 179Z" fill="#F6C545"/>
<path d="M487 176L486.5 176C482.91 176 480 173.09 480 169.5C480 165.91 482.91 163 486.5 163L487 163L487 176Z" fill="#D9D9D9"/>
<circle cx="469.5" cy="169.5" r="6.5" transform="rotate(-180 469.5 169.5)" fill="#D9D9D9"/>
<path d="M245 685H263C267.971 685 272 689.029 272 694V695C272 699.971 267.971 704 263 704H245V685Z" fill="#F6C545"/>
<path d="M245 688H245.5C249.09 688 252 690.91 252 694.5C252 698.09 249.09 701 245.5 701H245V688Z" fill="#D9D9D9"/>
<circle cx="262.5" cy="694.5" r="6.5" fill="#D9D9D9"/>
<path d="M487 150L469 150C464.03 150 460 145.971 460 141L460 140C460 135.029 464.03 131 469 131L487 131L487 150Z" fill="#F6C545"/>
<path d="M487 147L486.5 147C482.91 147 480 144.09 480 140.5C480 136.91 482.91 134 486.5 134L487 134L487 147Z" fill="#D9D9D9"/>
<circle cx="469.5" cy="140.5" r="6.5" transform="rotate(-180 469.5 140.5)" fill="#D9D9D9"/>
<rect x="349" y="173" width="4" height="11" fill="#D9D9D9"/>
<rect x="356" y="173" width="4" height="11" fill="#D9D9D9"/>
<path d="M357.968 198.208C357.328 198.208 356.789 198.123 356.352 197.952C355.925 197.771 355.584 197.515 355.328 197.184C355.072 196.853 354.891 196.453 354.784 195.984C354.677 195.515 354.624 194.992 354.624 194.416V188.096H356.608V194.288C356.608 194.704 356.629 195.056 356.672 195.344C356.715 195.621 356.784 195.845 356.88 196.016C356.987 196.187 357.131 196.309 357.312 196.384C357.493 196.459 357.723 196.496 358 196.496C358.277 196.496 358.507 196.459 358.688 196.384C358.869 196.309 359.013 196.187 359.12 196.016C359.227 195.835 359.301 195.605 359.344 195.328C359.387 195.04 359.408 194.688 359.408 194.272V188.096H361.376V194.416C361.376 194.992 361.323 195.515 361.216 195.984C361.109 196.453 360.923 196.853 360.656 197.184C360.389 197.515 360.037 197.771 359.6 197.952C359.163 198.123 358.619 198.208 357.968 198.208ZM365.712 196.56C366.043 196.56 366.315 196.528 366.528 196.464C366.752 196.389 366.928 196.293 367.056 196.176C367.184 196.048 367.269 195.909 367.312 195.76C367.365 195.6 367.392 195.44 367.392 195.28C367.392 195.077 367.333 194.896 367.216 194.736C367.099 194.576 366.949 194.437 366.768 194.32C366.587 194.192 366.384 194.08 366.16 193.984C365.936 193.877 365.712 193.781 365.488 193.696C365.189 193.589 364.88 193.467 364.56 193.328C364.24 193.189 363.947 193.013 363.68 192.8C363.424 192.587 363.211 192.325 363.04 192.016C362.869 191.696 362.784 191.301 362.784 190.832C362.784 189.904 363.083 189.179 363.68 188.656C364.288 188.133 365.12 187.872 366.176 187.872C366.784 187.872 367.312 187.941 367.76 188.08C368.219 188.219 368.603 188.373 368.912 188.544L368.336 190.064C368.069 189.915 367.771 189.787 367.44 189.68C367.12 189.573 366.747 189.52 366.32 189.52C365.275 189.52 364.752 189.899 364.752 190.656C364.752 190.848 364.805 191.019 364.912 191.168C365.019 191.307 365.152 191.435 365.312 191.552C365.483 191.659 365.669 191.755 365.872 191.84C366.085 191.925 366.293 192.005 366.496 192.08C366.805 192.197 367.125 192.331 367.456 192.48C367.797 192.619 368.107 192.811 368.384 193.056C368.672 193.291 368.907 193.589 369.088 193.952C369.269 194.304 369.36 194.752 369.36 195.296C369.36 196.224 369.056 196.944 368.448 197.456C367.851 197.957 366.939 198.208 365.712 198.208C364.891 198.208 364.235 198.123 363.744 197.952C363.253 197.771 362.885 197.605 362.64 197.456L363.216 195.856C363.504 196.027 363.845 196.187 364.24 196.336C364.645 196.485 365.136 196.56 365.712 196.56ZM377.504 195.008C377.504 195.605 377.403 196.107 377.2 196.512C376.997 196.907 376.72 197.227 376.368 197.472C376.027 197.707 375.616 197.877 375.136 197.984C374.667 198.08 374.16 198.128 373.616 198.128C373.179 198.128 372.725 198.101 372.256 198.048C371.787 198.005 371.323 197.936 370.864 197.84V188.224C371.237 188.16 371.648 188.107 372.096 188.064C372.544 188.011 372.987 187.984 373.424 187.984C374.171 187.984 374.779 188.064 375.248 188.224C375.717 188.373 376.085 188.576 376.352 188.832C376.619 189.077 376.8 189.355 376.896 189.664C376.992 189.973 377.04 190.283 377.04 190.592C377.04 191.061 376.923 191.477 376.688 191.84C376.464 192.203 376.16 192.491 375.776 192.704C376.448 192.949 376.901 193.28 377.136 193.696C377.381 194.112 377.504 194.549 377.504 195.008ZM372.832 193.664V196.352C372.971 196.373 373.12 196.389 373.28 196.4C373.451 196.411 373.616 196.416 373.776 196.416C374 196.416 374.219 196.4 374.432 196.368C374.645 196.325 374.832 196.256 374.992 196.16C375.163 196.053 375.301 195.909 375.408 195.728C375.515 195.536 375.568 195.296 375.568 195.008C375.568 194.528 375.413 194.187 375.104 193.984C374.805 193.771 374.4 193.664 373.888 193.664H372.832ZM373.6 192.032C374.101 192.032 374.48 191.925 374.736 191.712C374.992 191.488 375.12 191.184 375.12 190.8C375.12 190.565 375.083 190.379 375.008 190.24C374.933 190.091 374.832 189.979 374.704 189.904C374.576 189.819 374.427 189.765 374.256 189.744C374.085 189.712 373.909 189.696 373.728 189.696C373.579 189.696 373.424 189.701 373.264 189.712C373.104 189.723 372.96 189.739 372.832 189.76V192.032H373.6Z" fill="white"/>
<rect x="364" y="173" width="4" height="11" fill="#D9D9D9"/>
<rect x="372" y="173" width="4" height="11" fill="#D9D9D9"/>
<rect x="379" y="173" width="4" height="11" fill="#D9D9D9"/>
<path d="M407.5 116.5V173.5L320.5 173L321.5 116.5L317 110L320 107.5L324.5 113.5H327L329 109L400.5 109L401.5 114H403.5L408.5 107.5L411.5 110L407.5 116.5Z" fill="#F4F6F5" stroke="#B9B9B9"/>
<rect x="389" y="125" width="8" height="18" fill="#D9D9D9"/>
<rect x="335" y="125" width="8" height="18" fill="#D9D9D9"/>
<path d="M283.724 435.176C283.724 433.131 284.149 431.545 284.998 430.418C285.83 429.291 287.199 428.728 289.106 428.728C291.03 428.728 292.425 429.3 293.292 430.444C294.141 431.571 294.566 433.174 294.566 435.254L294.566 436.398L300 436.398L300 439.596L284.114 439.596C284.045 439.284 283.984 438.937 283.932 438.556C283.88 438.157 283.845 437.759 283.828 437.36C283.793 436.961 283.767 436.571 283.75 436.19C283.733 435.809 283.724 435.471 283.724 435.176ZM286.506 434.812C286.506 435.003 286.515 435.271 286.532 435.618C286.532 435.947 286.549 436.207 286.584 436.398L291.784 436.398L291.784 435.098C291.784 434.075 291.585 433.304 291.186 432.784C290.77 432.264 290.068 432.004 289.08 432.004C288.144 432.004 287.485 432.264 287.104 432.784C286.705 433.287 286.506 433.963 286.506 434.812ZM284.27 420.616C284.894 420.616 285.388 420.815 285.752 421.214C286.116 421.613 286.298 422.089 286.298 422.644C286.298 423.199 286.116 423.675 285.752 424.074C285.388 424.455 284.894 424.646 284.27 424.646C283.629 424.646 283.126 424.455 282.762 424.074C282.398 423.675 282.216 423.199 282.216 422.644C282.216 422.089 282.398 421.613 282.762 421.214C283.126 420.815 283.629 420.616 284.27 420.616ZM299.48 415.858C299.792 416.517 300 417.141 300.104 417.73C300.225 418.302 300.286 418.831 300.286 419.316C300.286 420.148 300.165 420.85 299.922 421.422C299.679 421.977 299.333 422.427 298.882 422.774C298.414 423.103 297.851 423.337 297.192 423.476C296.533 423.615 295.779 423.684 294.93 423.684L290.432 423.684L290.432 427.064L287.78 427.064L287.78 420.486L295.346 420.486C296.074 420.486 296.62 420.356 296.984 420.096C297.331 419.819 297.504 419.368 297.504 418.744C297.504 418.449 297.469 418.094 297.4 417.678C297.313 417.262 297.149 416.794 296.906 416.274L299.48 415.858ZM293.89 413.856C293.006 413.856 292.174 413.717 291.394 413.44C290.614 413.163 289.938 412.738 289.366 412.166C288.777 411.594 288.317 410.875 287.988 410.008C287.641 409.124 287.468 408.075 287.468 406.862C287.468 406.134 287.52 405.475 287.624 404.886C287.728 404.297 287.901 403.699 288.144 403.092L290.718 403.794C290.597 404.141 290.493 404.531 290.406 404.964C290.302 405.38 290.25 405.917 290.25 406.576C290.25 407.339 290.345 407.98 290.536 408.5C290.709 409.003 290.961 409.41 291.29 409.722C291.602 410.034 291.983 410.259 292.434 410.398C292.885 410.537 293.37 410.606 293.89 410.606C295.017 410.606 295.901 410.294 296.542 409.67C297.183 409.029 297.504 407.945 297.504 406.42C297.504 405.917 297.469 405.397 297.4 404.86C297.331 404.305 297.218 403.803 297.062 403.352L299.688 402.884C299.861 403.335 300 403.881 300.104 404.522C300.225 405.163 300.286 405.917 300.286 406.784C300.286 408.032 300.121 409.107 299.792 410.008C299.463 410.892 299.012 411.62 298.44 412.192C297.868 412.764 297.192 413.189 296.412 413.466C295.632 413.726 294.791 413.856 293.89 413.856ZM293.864 389.728C294.835 389.728 295.719 389.867 296.516 390.144C297.296 390.421 297.972 390.811 298.544 391.314C299.116 391.817 299.558 392.423 299.87 393.134C300.182 393.827 300.338 394.607 300.338 395.474C300.338 396.341 300.182 397.129 299.87 397.84C299.558 398.533 299.116 399.14 298.544 399.66C297.972 400.163 297.296 400.553 296.516 400.83C295.719 401.107 294.835 401.246 293.864 401.246C292.911 401.246 292.044 401.107 291.264 400.83C290.467 400.535 289.791 400.137 289.236 399.634C288.664 399.114 288.231 398.499 287.936 397.788C287.624 397.077 287.468 396.306 287.468 395.474C287.468 394.625 287.624 393.853 287.936 393.16C288.231 392.449 288.664 391.843 289.236 391.34C289.791 390.82 290.467 390.421 291.264 390.144C292.044 389.867 292.911 389.728 293.864 389.728ZM293.89 397.996C294.982 397.996 295.866 397.805 296.542 397.424C297.218 397.025 297.556 396.393 297.556 395.526C297.556 394.694 297.218 394.07 296.542 393.654C295.866 393.221 294.982 393.004 293.89 393.004C292.798 393.004 291.923 393.203 291.264 393.602C290.588 393.983 290.25 394.607 290.25 395.474C290.25 396.306 290.588 396.939 291.264 397.372C291.923 397.788 292.798 397.996 293.89 397.996ZM288.144 364.716C288.699 364.716 289.236 364.82 289.756 365.028C290.259 365.236 290.753 365.513 291.238 365.86C291.723 366.207 292.191 366.597 292.642 367.03C293.093 367.463 293.526 367.905 293.942 368.356C294.15 368.581 294.401 368.841 294.696 369.136C294.973 369.431 295.268 369.708 295.58 369.968C295.875 370.228 296.178 370.453 296.49 370.644C296.802 370.817 297.088 370.904 297.348 370.904L297.348 363.988L300 363.988L300 374.492C299.827 374.544 299.61 374.57 299.35 374.57C299.09 374.553 298.908 374.544 298.804 374.544C297.937 374.544 297.14 374.388 296.412 374.076C295.684 373.747 295.017 373.339 294.41 372.854C293.786 372.351 293.214 371.823 292.694 371.268C292.157 370.696 291.645 370.167 291.16 369.682C290.675 369.179 290.207 368.772 289.756 368.46C289.305 368.131 288.846 367.966 288.378 367.966C287.719 367.966 287.217 368.165 286.87 368.564C286.506 368.963 286.324 369.465 286.324 370.072C286.324 370.575 286.445 371.103 286.688 371.658C286.931 372.213 287.338 372.759 287.91 373.296L285.674 374.882C284.946 374.189 284.409 373.391 284.062 372.49C283.715 371.571 283.542 370.661 283.542 369.76C283.542 369.101 283.637 368.469 283.828 367.862C284.019 367.255 284.305 366.718 284.686 366.25C285.067 365.782 285.553 365.409 286.142 365.132C286.714 364.855 287.381 364.716 288.144 364.716ZM289.6 342.304C289.929 342.235 290.337 342.131 290.822 341.992C291.307 341.853 291.845 341.706 292.434 341.55C293.023 341.377 293.656 341.195 294.332 341.004C295.008 340.796 295.701 340.597 296.412 340.406C295.511 340.406 294.549 340.415 293.526 340.432C292.486 340.449 291.429 340.467 290.354 340.484C289.279 340.501 288.196 340.519 287.104 340.536C285.995 340.553 284.929 340.562 283.906 340.562L283.906 337.598C285.223 337.65 286.584 337.702 287.988 337.754C289.375 337.806 290.761 337.867 292.148 337.936C293.517 338.005 294.869 338.092 296.204 338.196C297.539 338.283 298.804 338.387 300 338.508L300 341.16C298.908 341.541 297.738 341.923 296.49 342.304C295.225 342.685 294.02 343.067 292.876 343.448C293.968 343.829 295.155 344.228 296.438 344.644C297.721 345.06 298.908 345.441 300 345.788L300 348.44C298.804 348.579 297.539 348.7 296.204 348.804C294.852 348.908 293.491 349.003 292.122 349.09C290.735 349.159 289.349 349.22 287.962 349.272C286.558 349.324 285.206 349.367 283.906 349.402L283.906 346.438C284.929 346.455 285.986 346.473 287.078 346.49C288.17 346.507 289.262 346.525 290.354 346.542C291.429 346.559 292.486 346.577 293.526 346.594C294.549 346.611 295.511 346.62 296.412 346.62C295.857 346.464 295.251 346.291 294.592 346.1C293.933 345.892 293.283 345.701 292.642 345.528C292.001 345.337 291.411 345.164 290.874 345.008C290.337 344.852 289.912 344.731 289.6 344.644L289.6 342.304Z" fill="white"/>
<path d="M298.008 283.496C298.605 283.496 299.107 283.597 299.512 283.8C299.907 284.003 300.227 284.28 300.472 284.632C300.707 284.973 300.877 285.384 300.984 285.864C301.08 286.333 301.128 286.84 301.128 287.384C301.128 287.821 301.101 288.275 301.048 288.744C301.005 289.213 300.936 289.677 300.84 290.136L291.224 290.136C291.16 289.763 291.107 289.352 291.064 288.904C291.011 288.456 290.984 288.013 290.984 287.576C290.984 286.829 291.064 286.221 291.224 285.752C291.373 285.283 291.576 284.915 291.832 284.648C292.077 284.381 292.355 284.2 292.664 284.104C292.973 284.008 293.283 283.96 293.592 283.96C294.061 283.96 294.477 284.077 294.84 284.312C295.203 284.536 295.491 284.84 295.704 285.224C295.949 284.552 296.28 284.099 296.696 283.864C297.112 283.619 297.549 283.496 298.008 283.496ZM296.664 288.168L299.352 288.168C299.373 288.029 299.389 287.88 299.4 287.72C299.411 287.549 299.416 287.384 299.416 287.224C299.416 287 299.4 286.781 299.368 286.568C299.325 286.355 299.256 286.168 299.16 286.008C299.053 285.837 298.909 285.699 298.728 285.592C298.536 285.485 298.296 285.432 298.008 285.432C297.528 285.432 297.187 285.587 296.984 285.896C296.771 286.195 296.664 286.6 296.664 287.112L296.664 288.168ZM295.032 287.4C295.032 286.899 294.925 286.52 294.712 286.264C294.488 286.008 294.184 285.88 293.8 285.88C293.565 285.88 293.379 285.917 293.24 285.992C293.091 286.067 292.979 286.168 292.904 286.296C292.819 286.424 292.765 286.573 292.744 286.744C292.712 286.915 292.696 287.091 292.696 287.272C292.696 287.421 292.701 287.576 292.712 287.736C292.723 287.896 292.739 288.04 292.76 288.168L295.032 288.168L295.032 287.4ZM296.04 280.568C296.52 280.568 296.973 280.552 297.4 280.52C297.816 280.477 298.179 280.403 298.488 280.296C298.797 280.179 299.043 280.019 299.224 279.816C299.405 279.613 299.496 279.341 299.496 279C299.496 278.669 299.405 278.403 299.224 278.2C299.043 277.987 298.797 277.827 298.488 277.72C298.168 277.603 297.8 277.528 297.384 277.496C296.968 277.453 296.52 277.432 296.04 277.432C295.56 277.432 295.112 277.453 294.696 277.496C294.269 277.528 293.901 277.603 293.592 277.72C293.283 277.827 293.037 277.981 292.856 278.184C292.675 278.387 292.584 278.659 292.584 279C292.584 279.341 292.675 279.613 292.856 279.816C293.037 280.019 293.288 280.179 293.608 280.296C293.917 280.403 294.28 280.477 294.696 280.52C295.112 280.552 295.56 280.568 296.04 280.568ZM296.04 282.568C294.333 282.568 293.048 282.253 292.184 281.624C291.309 280.995 290.872 280.12 290.872 279C290.872 277.837 291.309 276.952 292.184 276.344C293.048 275.736 294.333 275.432 296.04 275.432C297.747 275.432 299.037 275.741 299.912 276.36C300.776 276.979 301.208 277.853 301.208 278.984C301.208 280.147 300.776 281.037 299.912 281.656C299.037 282.264 297.747 282.568 296.04 282.568ZM296.04 272.568C296.52 272.568 296.973 272.552 297.4 272.52C297.816 272.477 298.179 272.403 298.488 272.296C298.797 272.179 299.043 272.019 299.224 271.816C299.405 271.613 299.496 271.341 299.496 271C299.496 270.669 299.405 270.403 299.224 270.2C299.043 269.987 298.797 269.827 298.488 269.72C298.168 269.603 297.8 269.528 297.384 269.496C296.968 269.453 296.52 269.432 296.04 269.432C295.56 269.432 295.112 269.453 294.696 269.496C294.269 269.528 293.901 269.603 293.592 269.72C293.283 269.827 293.037 269.981 292.856 270.184C292.675 270.387 292.584 270.659 292.584 271C292.584 271.341 292.675 271.613 292.856 271.816C293.037 272.019 293.288 272.179 293.608 272.296C293.917 272.403 294.28 272.477 294.696 272.52C295.112 272.552 295.56 272.568 296.04 272.568ZM296.04 274.568C294.333 274.568 293.048 274.253 292.184 273.624C291.309 272.995 290.872 272.12 290.872 271C290.872 269.837 291.309 268.952 292.184 268.344C293.048 267.736 294.333 267.432 296.04 267.432C297.747 267.432 299.037 267.741 299.912 268.36C300.776 268.979 301.208 269.853 301.208 270.984C301.208 272.147 300.776 273.037 299.912 273.656C299.037 274.264 297.747 274.568 296.04 274.568ZM291.096 259.4L292.728 259.4L292.728 262.008L301 262.008L301 263.992L292.728 263.992L292.728 266.6L291.096 266.6L291.096 259.4ZM299.56 255.288C299.56 254.957 299.528 254.685 299.464 254.472C299.389 254.248 299.293 254.072 299.176 253.944C299.048 253.816 298.909 253.731 298.76 253.688C298.6 253.635 298.44 253.608 298.28 253.608C298.077 253.608 297.896 253.667 297.736 253.784C297.576 253.901 297.437 254.051 297.32 254.232C297.192 254.413 297.08 254.616 296.984 254.84C296.877 255.064 296.781 255.288 296.696 255.512C296.589 255.811 296.467 256.12 296.328 256.44C296.189 256.76 296.013 257.053 295.8 257.32C295.587 257.576 295.325 257.789 295.016 257.96C294.696 258.131 294.301 258.216 293.832 258.216C292.904 258.216 292.179 257.917 291.656 257.32C291.133 256.712 290.872 255.88 290.872 254.824C290.872 254.216 290.941 253.688 291.08 253.24C291.219 252.781 291.373 252.397 291.544 252.088L293.064 252.664C292.915 252.931 292.787 253.229 292.68 253.56C292.573 253.88 292.52 254.253 292.52 254.68C292.52 255.725 292.899 256.248 293.656 256.248C293.848 256.248 294.019 256.195 294.168 256.088C294.307 255.981 294.435 255.848 294.552 255.688C294.659 255.517 294.755 255.331 294.84 255.128C294.925 254.915 295.005 254.707 295.08 254.504C295.197 254.195 295.331 253.875 295.48 253.544C295.619 253.203 295.811 252.893 296.056 252.616C296.291 252.328 296.589 252.093 296.952 251.912C297.304 251.731 297.752 251.64 298.296 251.64C299.224 251.64 299.944 251.944 300.456 252.552C300.957 253.149 301.208 254.061 301.208 255.288C301.208 256.109 301.123 256.765 300.952 257.256C300.771 257.747 300.605 258.115 300.456 258.36L298.856 257.784C299.027 257.496 299.187 257.155 299.336 256.76C299.485 256.355 299.56 255.864 299.56 255.288ZM301 249.992L291.096 249.992L291.096 243.992L292.728 243.992L292.728 248.024L294.952 248.024L294.952 244.52L296.584 244.52L296.584 248.024L299.368 248.024L299.368 243.64L301 243.64L301 249.992ZM301 235.64L301 241.864L291.096 241.864L291.096 239.88L299.368 239.88L299.368 235.64L301 235.64Z" fill="white"/>
<path d="M296.36 198H290.136V188.096H292.12V196.368H296.36V198ZM298.008 198V188.096H304.008V189.728H299.976V191.952H303.48V193.584H299.976V196.368H304.36V198H298.008ZM307.832 196.4C307.885 196.411 307.944 196.416 308.008 196.416C308.072 196.416 308.131 196.416 308.184 196.416C308.632 196.416 309.005 196.331 309.304 196.16C309.613 195.989 309.859 195.755 310.04 195.456C310.232 195.157 310.365 194.805 310.44 194.4C310.525 193.984 310.568 193.531 310.568 193.04C310.568 192.613 310.536 192.197 310.472 191.792C310.408 191.387 310.296 191.029 310.136 190.72C309.976 190.411 309.757 190.165 309.48 189.984C309.203 189.792 308.845 189.696 308.408 189.696C308.323 189.696 308.227 189.701 308.12 189.712C308.013 189.712 307.917 189.723 307.832 189.744V196.4ZM312.568 193.04C312.568 193.957 312.451 194.741 312.216 195.392C311.992 196.032 311.677 196.555 311.272 196.96C310.867 197.365 310.381 197.664 309.816 197.856C309.261 198.037 308.648 198.128 307.976 198.128C307.624 198.128 307.277 198.107 306.936 198.064C306.605 198.032 306.248 197.973 305.864 197.888V188.224C306.312 188.128 306.733 188.064 307.128 188.032C307.523 188 307.891 187.984 308.232 187.984C308.883 187.984 309.475 188.08 310.008 188.272C310.552 188.464 311.011 188.768 311.384 189.184C311.757 189.589 312.045 190.112 312.248 190.752C312.461 191.381 312.568 192.144 312.568 193.04Z" fill="white"/>
<rect x="326" y="349" width="80" height="80" fill="#262626"/>
<rect x="296.5" y="503.5" width="138" height="115" rx="4.5" fill="#D9D9D9" stroke="#9D9D9D"/>
<rect x="297.5" y="453.5" width="34" height="27" rx="1.5" fill="#D9D9D9" stroke="#9D9D9D"/>
<rect x="309" y="301" width="32" height="21" fill="#262626"/>
<rect x="375" y="299" width="26" height="19" fill="#262626"/>
<rect x="372" y="229" width="46" height="32" fill="#262626"/>
<rect x="425" y="231" width="25" height="30" fill="#262626"/>
<rect x="418" y="182" width="20" height="29" fill="#262626"/>
<g clip-path="url(#clip0_1_2)">
<path d="M375.946 390.064C374.411 391.836 373.556 395.063 374.676 396.104C375.751 396.908 378.618 396.804 380.741 393.9C381.357 393.027 381.728 391.942 381.728 390.77C381.728 389.689 381.414 388.684 380.873 387.837L380.886 387.858C379.578 386.864 377.7 388.152 375.946 390.085V390.064ZM361.511 390.601C359.884 388.738 357.77 387.631 356.403 388.451C355.489 389.136 355.319 391.47 356.623 393.767C358.554 396.498 361.281 396.775 362.394 396.109C363.575 395.235 362.932 392.28 361.511 390.6V390.601ZM368.866 396.236C366.895 396.19 363.849 397.023 363.892 398.085C363.86 398.802 366.277 400.902 368.729 400.796C371.105 400.85 373.567 398.755 373.535 397.842C373.502 396.928 370.847 396.181 368.864 396.258L368.866 396.236ZM368.731 371.253C366.447 371.196 364.252 372.925 364.252 373.928C364.252 375.146 366.058 376.393 368.749 376.426C371.514 376.444 373.26 375.424 373.286 374.168C373.314 372.746 370.788 371.232 368.774 371.253H368.731ZM363.229 372.206C359.404 371.588 356.218 373.819 356.345 377.925C356.471 379.509 364.641 372.477 363.231 372.233L363.229 372.206ZM380.696 378.031C380.823 373.951 377.634 371.723 373.809 372.341C372.399 372.583 380.567 379.617 380.696 378.031ZM381.348 379.507C379.128 378.918 380.596 388.554 382.402 387.776C383.389 386.835 384.003 385.509 384.003 384.042C384.003 382.112 382.943 380.432 381.373 379.549L381.348 379.536V379.507ZM354.652 387.883C356.456 388.69 357.926 379.052 355.708 379.642C354.111 380.545 353.05 382.231 353.05 384.166C353.05 385.637 353.665 386.966 354.65 387.909L354.652 387.91V387.883ZM371.521 377.227C370.392 378.105 369.672 379.464 369.672 380.991C369.672 382.109 370.057 383.136 370.702 383.947L370.695 383.938C371.576 385.44 373.182 386.432 375.02 386.432C375.857 386.432 376.647 386.226 377.34 385.862L377.313 385.875C378.444 384.997 379.166 383.639 379.166 382.111C379.166 380.993 378.781 379.966 378.134 379.154L378.141 379.163C377.274 377.667 375.679 376.677 373.854 376.677C373.001 376.677 372.2 376.893 371.499 377.273L371.526 377.261L371.521 377.227ZM365.967 377.468C365.298 377.112 364.505 376.904 363.663 376.904C361.835 376.904 360.239 377.886 359.371 379.352L359.359 379.375C358.719 380.181 358.334 381.213 358.334 382.335C358.334 383.867 359.054 385.23 360.174 386.106L360.185 386.113C360.859 386.481 361.659 386.696 362.51 386.696C364.336 386.696 365.931 385.705 366.785 384.23L366.798 384.207C367.429 383.404 367.808 382.381 367.808 381.269C367.808 379.74 367.092 378.38 365.974 377.506L365.963 377.499L365.967 377.468ZM373.794 390.3C373.656 387.794 371.591 385.814 369.063 385.814C368.975 385.814 368.887 385.816 368.799 385.821H368.812C368.762 385.819 368.701 385.818 368.642 385.818C366.092 385.818 364.01 387.823 363.888 390.343V390.354V390.406C364.028 392.913 366.096 394.892 368.624 394.892C368.711 394.892 368.799 394.891 368.887 394.885H368.874C368.937 394.889 369.011 394.891 369.084 394.891C371.616 394.891 373.682 392.891 373.787 390.386V390.377V390.325L373.805 390.299L373.794 390.3ZM379.555 363.187C376.527 364.568 373.929 366.333 371.678 368.464L371.691 368.451C372.366 371.139 375.891 371.242 377.179 371.16C376.93 371.081 376.729 370.907 376.616 370.683L376.614 370.678C376.937 370.463 378.085 370.649 378.886 370.221C378.58 370.167 378.435 370.112 378.297 369.863C379.071 369.693 379.753 369.406 380.368 369.017L380.341 369.033C380.282 369.042 380.216 369.049 380.146 369.049C379.909 369.049 379.687 368.983 379.499 368.87L379.504 368.874C380.255 368.553 380.9 368.157 381.481 367.684L381.466 367.695C381.108 367.695 380.739 367.695 380.631 367.561C381.233 367.208 381.751 366.792 382.199 366.31L382.203 366.306C381.715 366.387 381.504 366.335 381.389 366.253C381.918 365.848 382.364 365.368 382.719 364.823L382.731 364.801C382.595 364.873 382.434 364.914 382.264 364.914C382.093 364.914 381.932 364.873 381.791 364.8L381.796 364.803C381.959 364.456 382.638 364.241 383.032 363.407C382.901 363.442 382.751 363.463 382.597 363.463C382.443 363.463 382.292 363.443 382.149 363.406L382.161 363.409C382.328 362.822 382.595 362.311 382.948 361.87L382.941 361.879C382.771 361.886 382.572 361.89 382.371 361.89C381.868 361.89 381.371 361.867 380.88 361.822L380.943 361.827L381.45 361.317C381.228 361.274 380.974 361.249 380.712 361.249C380.18 361.249 379.673 361.352 379.209 361.542L379.236 361.533C378.969 361.345 379.236 361.077 379.567 360.817C378.877 360.906 378.252 361.064 377.659 361.286L377.718 361.266C377.424 360.998 377.897 360.756 378.148 360.485C377.408 360.612 376.749 360.876 376.167 361.25L376.188 361.238C375.866 360.942 376.161 360.675 376.367 360.433C375.733 360.679 375.19 361.025 374.726 361.455L374.73 361.451C374.568 361.272 374.355 361.13 374.622 360.647C374.101 360.937 373.664 361.315 373.314 361.765L373.307 361.773C372.959 361.533 373.094 361.236 373.094 360.969C372.583 361.422 372.117 361.897 371.687 362.402L371.671 362.422C371.562 362.367 371.492 362.153 371.429 361.802C370.034 363.146 368.045 366.502 370.919 367.815C373.355 365.905 376.202 364.377 379.289 363.39L379.481 363.336L379.555 363.201V363.187ZM357.591 363.187C360.871 364.232 363.718 365.769 366.205 367.742L366.149 367.699C369.016 366.355 367.033 362.999 365.644 361.686C365.571 362.033 365.492 362.275 365.402 362.329C364.956 361.806 364.494 361.331 364.005 360.89L363.99 360.878C363.99 361.146 364.128 361.469 363.781 361.684C363.435 361.222 363.003 360.844 362.509 360.566L362.489 360.555C362.756 361.014 362.534 361.146 362.389 361.36C361.946 360.897 361.409 360.532 360.807 360.295L360.776 360.285C360.991 360.552 361.314 360.822 360.991 361.118C360.438 360.754 359.785 360.491 359.085 360.371L359.054 360.367C359.296 360.634 359.771 360.905 359.481 361.173C358.941 360.958 358.316 360.795 357.664 360.715L357.626 360.711C357.951 360.98 358.239 361.229 357.97 361.428C357.521 361.231 356.998 361.118 356.449 361.118C356.193 361.118 355.94 361.143 355.699 361.189L355.724 361.186L356.232 361.695C355.799 361.741 355.295 361.768 354.787 361.768C354.59 361.768 354.392 361.765 354.195 361.756L354.224 361.757C354.581 362.184 354.851 362.698 354.998 363.261L355.003 363.287C354.923 363.368 354.52 363.316 354.138 363.287C354.541 364.092 355.213 364.309 355.371 364.658C355.235 364.732 355.073 364.775 354.903 364.775C354.733 364.775 354.57 364.732 354.43 364.656L354.435 364.658C354.828 365.208 355.269 365.685 355.763 366.1L355.776 366.109C355.627 366.179 355.451 366.219 355.269 366.219C355.154 366.219 355.041 366.202 354.935 366.174L354.944 366.176C355.394 366.658 355.906 367.071 356.469 367.412L356.501 367.43C356.394 367.555 356.016 367.553 355.643 367.564C356.207 368.03 356.854 368.43 357.551 368.732L357.603 368.752C357.42 368.879 357.195 368.954 356.949 368.954C356.886 368.954 356.824 368.949 356.763 368.94H356.77C357.356 369.316 358.038 369.605 358.769 369.764L358.811 369.771C358.683 369.983 358.456 370.124 358.194 370.13C358.999 370.585 360.126 370.372 360.448 370.614C360.334 370.843 360.135 371.017 359.893 371.096L359.886 371.097C361.174 371.178 364.723 371.07 365.39 368.385C363.154 366.276 360.554 364.52 357.7 363.23L357.522 363.158L357.594 363.187H357.591ZM360.697 359.179C361.133 359.238 361.527 359.364 361.887 359.546L361.865 359.537C362.813 359.233 363.03 359.65 363.496 359.822C364.53 359.607 364.843 360.075 365.34 360.573L365.916 360.557C367.183 361.433 368.111 362.718 368.516 364.219L368.527 364.264C368.941 362.719 369.869 361.435 371.116 360.578L371.137 360.564L371.712 360.577C372.209 360.075 372.522 359.611 373.556 359.828C374.024 359.649 374.237 359.236 375.188 359.53C375.78 359.351 376.299 358.858 377.082 359.45C377.317 359.314 377.6 359.233 377.901 359.233C378.302 359.233 378.67 359.376 378.956 359.615L378.954 359.613C379.85 359.505 380.124 359.722 380.341 359.989C380.535 359.989 381.791 359.81 382.369 360.634C383.821 360.473 384.276 361.465 383.756 362.404C383.96 362.621 384.088 362.913 384.088 363.235C384.088 363.601 383.924 363.929 383.668 364.151L383.666 364.153C383.935 364.635 383.778 365.144 383.183 365.789C383.208 365.887 383.224 365.998 383.224 366.115C383.224 366.624 382.939 367.064 382.52 367.288L382.513 367.292C382.62 368.206 381.653 368.743 381.386 368.929C381.276 369.467 381.061 369.976 379.952 370.244C379.793 371.049 379.121 371.182 378.476 371.345C380.821 372.454 382.416 374.801 382.416 377.519C382.416 377.698 382.409 377.877 382.394 378.053L382.396 378.029L382.72 378.567C384.496 379.756 385.648 381.754 385.648 384.022C385.648 385.73 384.994 387.285 383.923 388.451L383.926 388.446C383.677 389.584 383.362 390.571 382.968 391.515L383.011 391.399C382.633 394.05 380.866 396.213 378.481 397.148L378.433 397.166C377.184 398.177 375.735 399.003 374.162 399.574L374.058 399.608C372.723 401.068 370.817 401.987 368.695 402.004H368.527C366.393 401.991 364.474 401.074 363.136 399.617L363.13 399.612C361.45 399.004 359.999 398.177 358.718 397.143L358.746 397.166C356.313 396.211 354.543 394.05 354.161 391.438L354.156 391.399C353.801 390.566 353.482 389.569 353.251 388.541L353.228 388.421C352.155 387.258 351.497 385.699 351.497 383.987C351.497 381.72 352.651 379.722 354.401 378.547L354.425 378.533L354.733 377.995C354.72 377.843 354.713 377.666 354.713 377.486C354.713 374.768 356.306 372.421 358.612 371.33L358.653 371.312C358.01 371.151 357.363 371.017 357.178 370.21C356.077 369.942 355.862 369.433 355.745 368.895C355.476 368.707 354.511 368.179 354.618 367.233C354.19 367 353.903 366.552 353.903 366.038C353.903 365.918 353.919 365.803 353.948 365.692L353.946 365.701C353.384 365.081 353.23 364.545 353.463 364.061C353.205 363.841 353.043 363.515 353.043 363.151C353.043 362.827 353.172 362.531 353.382 362.316C352.871 361.376 353.328 360.356 354.778 360.525C355.346 359.692 356.611 359.881 356.795 359.881C357.012 359.613 357.306 359.371 358.191 359.478C358.481 359.24 358.855 359.095 359.264 359.095C359.56 359.095 359.837 359.17 360.079 359.303L360.07 359.299C360.264 359.125 360.516 359.014 360.796 359.002H360.798L360.697 359.179Z" fill="#858374"/>
</g>
<circle cx="337.5" cy="359.5" r="3.5" fill="#858374"/>
<rect x="383" y="279" width="11" height="14" fill="#E6BF62"/>
<rect x="394" y="279" width="6" height="14" fill="#D9D9D9"/>
<rect x="377" y="279" width="6" height="14" fill="#D9D9D9"/>
<rect x="428" y="279" width="11" height="14" fill="#E6BF62"/>
<rect x="439" y="279" width="6" height="14" fill="#D9D9D9"/>
<rect x="422" y="279" width="6" height="14" fill="#D9D9D9"/>
<rect x="385.13" y="335" width="5.73913" height="6" fill="#E6BF62"/>
<rect x="390.87" y="335" width="3.13043" height="6" fill="#D9D9D9"/>
<rect x="382" y="335" width="3.13043" height="6" fill="#D9D9D9"/>
<rect x="385.13" y="324" width="5.73913" height="6" fill="#E6BF62"/>
<rect x="390.87" y="324" width="3.13043" height="6" fill="#D9D9D9"/>
<rect x="382" y="324" width="3.13043" height="6" fill="#D9D9D9"/>
<rect x="312.13" y="338" width="5.73913" height="6" fill="#E6BF62"/>
<rect x="317.87" y="338" width="3.13043" height="6" fill="#D9D9D9"/>
<rect x="309" y="338" width="3.13043" height="6" fill="#D9D9D9"/>
<rect x="417" y="330.13" width="5.73913" height="6" transform="rotate(90 417 330.13)" fill="#E6BF62"/>
<rect x="417" y="335.87" width="3.13043" height="6" transform="rotate(90 417 335.87)" fill="#D9D9D9"/>
<rect x="417" y="327" width="3.13043" height="6" transform="rotate(90 417 327)" fill="#D9D9D9"/>
<rect x="365" y="447.13" width="5.73913" height="6" transform="rotate(90 365 447.13)" fill="#E6BF62"/>
<rect x="365" y="452.87" width="3.13043" height="6" transform="rotate(90 365 452.87)" fill="#D9D9D9"/>
<rect x="365" y="444" width="3.13043" height="6" transform="rotate(90 365 444)" fill="#D9D9D9"/>
<rect x="432" y="330.13" width="5.73913" height="6" transform="rotate(90 432 330.13)" fill="#E6BF62"/>
<rect x="432" y="335.87" width="3.13043" height="6" transform="rotate(90 432 335.87)" fill="#D9D9D9"/>
<rect x="432" y="327" width="3.13043" height="6" transform="rotate(90 432 327)" fill="#D9D9D9"/>
<rect x="389" y="200" width="11" height="14" fill="#E6BF62"/>
<rect x="400" y="200" width="6" height="14" fill="#D9D9D9"/>
<rect x="383" y="200" width="6" height="14" fill="#D9D9D9"/>
<rect x="306" y="238" width="39" height="49" rx="2" fill="#D9D9D9"/>
<path d="M335.011 238C335.234 243.567 339.173 248 344 248C344.338 248 344.672 247.975 345 247.933V276.066C344.672 276.024 344.338 276 344 276C339.029 276 335 280.701 335 286.5C335 286.668 335.004 286.834 335.011 287H315.989C315.996 286.834 316 286.668 316 286.5C316 280.701 311.971 276 307 276C306.662 276 306.328 276.024 306 276.066V247.933C306.328 247.975 306.662 248 307 248C311.827 248 315.766 243.567 315.989 238H335.011Z" fill="#7B7B7B"/>
<rect x="311" y="243" width="29" height="39" rx="14.5" fill="#F4F6F5"/>
<rect x="293" y="175" width="15" height="9" fill="#FFEFD6"/>
<rect x="299" y="178" width="3" height="3" fill="#E0CCAD"/>
<path d="M299.5 670C309.165 670 317 677.835 317 687.5C317 697.165 309.165 705 299.5 705C289.835 705 282 697.165 282 687.5C282 677.835 289.835 670 299.5 670ZM299.5 675C292.596 675 287 680.596 287 687.5C287 694.404 292.596 700 299.5 700C306.404 700 312 694.404 312 687.5C312 680.596 306.404 675 299.5 675Z" fill="#F6C545"/>
<path d="M430.5 670C440.165 670 448 677.835 448 687.5C448 697.165 440.165 705 430.5 705C420.835 705 413 697.165 413 687.5C413 677.835 420.835 670 430.5 670ZM430.5 675C423.596 675 418 680.596 418 687.5C418 694.404 423.596 700 430.5 700C437.404 700 443 694.404 443 687.5C443 680.596 437.404 675 430.5 675Z" fill="#F6C545"/>
<path d="M300.5 130C310.165 130 318 137.835 318 147.5C318 157.165 310.165 165 300.5 165C290.835 165 283 157.165 283 147.5C283 137.835 290.835 130 300.5 130ZM300.5 135C293.596 135 288 140.596 288 147.5C288 154.404 293.596 160 300.5 160C307.404 160 313 154.404 313 147.5C313 140.596 307.404 135 300.5 135Z" fill="#F6C545"/>
<path d="M431.5 130C441.165 130 449 137.835 449 147.5C449 157.165 441.165 165 431.5 165C421.835 165 414 157.165 414 147.5C414 137.835 421.835 130 431.5 130ZM431.5 135C424.596 135 419 140.596 419 147.5C419 154.404 424.596 160 431.5 160C438.404 160 444 154.404 444 147.5C444 140.596 438.404 135 431.5 135Z" fill="#F6C545"/>
<path d="M435.5 624.5H296V655L350 697.5H382.5L437 655L435.5 624.5Z" fill="#00B27F" stroke="#888888" stroke-opacity="0.38" stroke-width="0.5"/>
<path d="M337.354 410.114C337.743 410.114 338.095 410.158 338.41 410.246C338.725 410.334 338.997 410.47 339.224 410.653C339.451 410.836 339.624 411.071 339.741 411.357C339.866 411.636 339.928 411.966 339.928 412.347C339.928 412.743 339.847 413.102 339.686 413.425C339.525 413.748 339.257 413.993 338.883 414.162C339.008 414.353 339.14 414.565 339.279 414.8C339.418 415.027 339.554 415.269 339.686 415.526C339.818 415.775 339.943 416.028 340.06 416.285C340.185 416.534 340.291 416.773 340.379 417H338.96C338.791 416.56 338.593 416.138 338.366 415.735C338.146 415.324 337.908 414.91 337.651 414.492H336.947V417H335.594V410.29C335.726 410.261 335.869 410.235 336.023 410.213C336.184 410.184 336.346 410.165 336.507 410.158C336.668 410.143 336.822 410.132 336.969 410.125C337.116 410.118 337.244 410.114 337.354 410.114ZM338.553 412.336C338.553 411.977 338.443 411.713 338.223 411.544C338.003 411.375 337.713 411.291 337.354 411.291C337.303 411.291 337.24 411.295 337.167 411.302C337.094 411.302 337.02 411.309 336.947 411.324V413.37H337.244C337.706 413.37 338.04 413.282 338.245 413.106C338.45 412.923 338.553 412.666 338.553 412.336ZM342.964 410.114C343.829 410.114 344.5 410.294 344.977 410.653C345.454 411.005 345.692 411.584 345.692 412.391C345.692 413.205 345.45 413.795 344.966 414.162C344.489 414.521 343.811 414.701 342.931 414.701H342.447V417H341.094V410.279C341.226 410.25 341.373 410.224 341.534 410.202C341.703 410.18 341.871 410.165 342.04 410.158C342.209 410.143 342.374 410.132 342.535 410.125C342.696 410.118 342.839 410.114 342.964 410.114ZM343.118 411.291C343.037 411.291 342.924 411.295 342.777 411.302C342.638 411.302 342.528 411.309 342.447 411.324V413.524H342.997C343.43 413.524 343.756 413.44 343.976 413.271C344.196 413.095 344.306 412.798 344.306 412.38C344.306 411.984 344.196 411.705 343.976 411.544C343.763 411.375 343.477 411.291 343.118 411.291ZM350.774 411.984C350.774 412.219 350.73 412.446 350.642 412.666C350.554 412.879 350.437 413.088 350.29 413.293C350.143 413.498 349.978 413.696 349.795 413.887C349.612 414.078 349.425 414.261 349.234 414.437C349.139 414.525 349.029 414.631 348.904 414.756C348.779 414.873 348.662 414.998 348.552 415.13C348.442 415.255 348.347 415.383 348.266 415.515C348.193 415.647 348.156 415.768 348.156 415.878H351.082V417H346.638C346.616 416.927 346.605 416.835 346.605 416.725C346.612 416.615 346.616 416.538 346.616 416.494C346.616 416.127 346.682 415.79 346.814 415.482C346.953 415.174 347.126 414.892 347.331 414.635C347.544 414.371 347.767 414.129 348.002 413.909C348.244 413.682 348.468 413.465 348.673 413.26C348.886 413.055 349.058 412.857 349.19 412.666C349.329 412.475 349.399 412.281 349.399 412.083C349.399 411.804 349.315 411.592 349.146 411.445C348.977 411.291 348.765 411.214 348.508 411.214C348.295 411.214 348.072 411.265 347.837 411.368C347.602 411.471 347.371 411.643 347.144 411.885L346.473 410.939C346.766 410.631 347.104 410.404 347.485 410.257C347.874 410.11 348.259 410.037 348.64 410.037C348.919 410.037 349.186 410.077 349.443 410.158C349.7 410.239 349.927 410.36 350.125 410.521C350.323 410.682 350.481 410.888 350.598 411.137C350.715 411.379 350.774 411.661 350.774 411.984ZM353.843 417.143C353.674 417.143 353.495 417.128 353.304 417.099C353.121 417.077 352.941 417.048 352.765 417.011C352.596 416.974 352.439 416.934 352.292 416.89C352.145 416.846 352.032 416.806 351.951 416.769L352.215 415.636C352.384 415.709 352.6 415.786 352.864 415.867C353.135 415.948 353.458 415.988 353.832 415.988C354.294 415.988 354.617 415.889 354.8 415.691C354.991 415.493 355.086 415.247 355.086 414.954C355.086 414.595 354.943 414.345 354.657 414.206C354.371 414.059 354.008 413.986 353.568 413.986H353.15V412.864H353.656C353.795 412.864 353.935 412.849 354.074 412.82C354.213 412.791 354.338 412.743 354.448 412.677C354.558 412.611 354.646 412.523 354.712 412.413C354.785 412.303 354.822 412.164 354.822 411.995C354.822 411.746 354.745 411.551 354.591 411.412C354.444 411.265 354.239 411.192 353.975 411.192C353.718 411.192 353.462 411.236 353.205 411.324C352.956 411.405 352.739 411.507 352.556 411.632L352.072 410.642C352.27 410.51 352.53 410.378 352.853 410.246C353.183 410.107 353.553 410.037 353.964 410.037C354.345 410.037 354.675 410.085 354.954 410.18C355.24 410.275 355.475 410.411 355.658 410.587C355.841 410.756 355.977 410.957 356.065 411.192C356.153 411.427 356.197 411.68 356.197 411.951C356.197 412.222 356.12 412.483 355.966 412.732C355.812 412.981 355.607 413.172 355.35 413.304C355.702 413.451 355.973 413.667 356.164 413.953C356.362 414.239 356.461 414.58 356.461 414.976C356.461 415.291 356.41 415.581 356.307 415.845C356.204 416.109 356.047 416.34 355.834 416.538C355.621 416.729 355.35 416.879 355.02 416.989C354.69 417.092 354.298 417.143 353.843 417.143ZM360.531 414.998C360.531 414.807 360.498 414.635 360.432 414.481C360.373 414.32 360.249 414.184 360.058 414.074C359.875 413.957 359.611 413.869 359.266 413.81C358.921 413.744 358.47 413.711 357.913 413.711C357.986 413.095 358.045 412.494 358.089 411.907C358.133 411.313 358.166 410.741 358.188 410.191H361.664V411.313H359.321C359.306 411.548 359.288 411.793 359.266 412.05C359.244 412.307 359.226 412.516 359.211 412.677C360.12 412.736 360.799 412.956 361.246 413.337C361.693 413.718 361.917 414.254 361.917 414.943C361.917 415.258 361.862 415.552 361.752 415.823C361.642 416.087 361.473 416.318 361.246 416.516C361.019 416.714 360.736 416.868 360.399 416.978C360.062 417.088 359.669 417.143 359.222 417.143C359.046 417.143 358.866 417.132 358.683 417.11C358.5 417.088 358.324 417.059 358.155 417.022C357.986 416.993 357.832 416.956 357.693 416.912C357.561 416.868 357.458 416.828 357.385 416.791L357.66 415.669C357.821 415.75 358.027 415.823 358.276 415.889C358.525 415.955 358.837 415.988 359.211 415.988C359.475 415.988 359.691 415.959 359.86 415.9C360.036 415.841 360.172 415.768 360.267 415.68C360.37 415.585 360.439 415.478 360.476 415.361C360.513 415.244 360.531 415.123 360.531 414.998ZM367.615 413.579C367.615 414.782 367.413 415.676 367.01 416.263C366.607 416.85 366.02 417.143 365.25 417.143C364.48 417.143 363.893 416.85 363.49 416.263C363.087 415.676 362.885 414.782 362.885 413.579C362.885 412.391 363.09 411.504 363.501 410.917C363.912 410.33 364.495 410.037 365.25 410.037C366.02 410.037 366.607 410.33 367.01 410.917C367.413 411.496 367.615 412.384 367.615 413.579ZM366.394 413.579C366.394 412.802 366.295 412.211 366.097 411.808C365.906 411.397 365.624 411.192 365.25 411.192C364.883 411.192 364.601 411.397 364.403 411.808C364.205 412.211 364.106 412.802 364.106 413.579C364.106 414.364 364.205 414.961 364.403 415.372C364.601 415.775 364.883 415.977 365.25 415.977C365.624 415.977 365.906 415.775 366.097 415.372C366.295 414.961 366.394 414.364 366.394 413.579ZM365.866 413.469C365.866 413.667 365.807 413.839 365.69 413.986C365.58 414.125 365.437 414.195 365.261 414.195C365.07 414.195 364.92 414.125 364.81 413.986C364.7 413.839 364.645 413.667 364.645 413.469C364.645 413.271 364.7 413.099 364.81 412.952C364.92 412.805 365.07 412.732 365.261 412.732C365.437 412.732 365.58 412.805 365.69 412.952C365.807 413.099 365.866 413.271 365.866 413.469Z" fill="#858374"/>
<defs>
<clipPath id="clip0_1_2">
<rect width="43" height="43" fill="white" transform="translate(347 359)"/>
</clipPath>
</defs>
</svg>
