<svg width="500" height="500" viewBox="0 0 500 500" fill="none" xmlns="http://www.w3.org/2000/svg">
<rect width="500" height="500" fill="white"/>
<path d="M149 115C149 106.716 155.716 100 164 100L337 100C345.284 100 352 106.716 352 115L352 389C352 397.284 345.284 404 337 404L164 404C155.716 404 149 397.284 149 389L149 115ZM313 378C313 385.18 318.82 391 326 391C333.18 391 339 385.18 339 378C339 370.82 333.18 365 326 365C318.82 365 313 370.82 313 378ZM313 124C313 131.18 318.82 137 326 137C333.18 137 339 131.18 339 124C339 116.82 333.18 111 326 111C318.82 111 313 116.82 313 124ZM161 378C161 385.18 166.82 391 174 391C181.18 391 187 385.18 187 378C187 370.82 181.18 365 174 365C166.82 365 161 370.82 161 378ZM161 124C161 131.18 166.82 137 174 137C181.18 137 187 131.18 187 124C187 116.82 181.18 111 174 111C166.82 111 161 116.82 161 124Z" fill="#191919"/>
<path fill-rule="evenodd" clip-rule="evenodd" d="M263.521 210.111L263.454 210.452L263.265 210.74L262.981 210.932L262.646 211.001L258.145 211.001L257.81 210.932L257.526 210.74L257.337 210.452L257.27 210.111L257.27 208.333L257.337 207.993L257.526 207.704L257.81 207.512L258.145 207.444L262.646 207.444L262.981 207.512L263.265 207.704L263.454 207.993L263.521 208.333L263.521 210.111Z" fill="#333333"/>
<path fill-rule="evenodd" clip-rule="evenodd" d="M263.521 205.031L263.454 205.371L263.265 205.66L262.981 205.852L262.646 205.92L258.145 205.92L257.81 205.852L257.526 205.66L257.337 205.371L257.27 205.031L257.27 203.253L257.337 202.912L257.526 202.624L257.81 202.432L258.145 202.364L262.646 202.364L262.981 202.432L263.265 202.624L263.454 202.912L263.521 203.253L263.521 205.031Z" fill="#333333"/>
<path fill-rule="evenodd" clip-rule="evenodd" d="M263.521 199.95L263.454 200.291L263.265 200.579L262.981 200.771L262.646 200.839L258.145 200.839L257.81 200.771L257.526 200.579L257.337 200.291L257.27 199.95L257.27 198.172L257.337 197.832L257.526 197.543L257.81 197.351L258.145 197.283L262.646 197.283L262.981 197.351L263.265 197.543L263.454 197.832L263.521 198.172L263.521 199.95Z" fill="#333333"/>
<path fill-rule="evenodd" clip-rule="evenodd" d="M263.521 194.87L263.454 195.21L263.265 195.499L262.981 195.691L262.646 195.759L258.145 195.759L257.81 195.691L257.526 195.499L257.337 195.21L257.27 194.87L257.27 193.092L257.337 192.751L257.526 192.463L257.81 192.271L258.145 192.203L262.646 192.203L262.981 192.271L263.265 192.463L263.454 192.751L263.521 193.092L263.521 194.87Z" fill="#333333"/>
<path fill-rule="evenodd" clip-rule="evenodd" d="M255.52 194.616L255.453 194.956L255.264 195.245L254.98 195.437L254.645 195.505L252.895 195.505L252.56 195.437L252.276 195.245L252.087 194.956L252.02 194.616L252.02 190.044L252.087 189.703L252.276 189.415L252.56 189.223L252.895 189.154L254.645 189.154L254.98 189.223L255.264 189.415L255.453 189.703L255.52 190.044L255.52 194.616Z" fill="#333333"/>
<path fill-rule="evenodd" clip-rule="evenodd" d="M250.52 194.616L250.453 194.956L250.264 195.245L249.98 195.437L249.645 195.505L247.895 195.505L247.56 195.437L247.276 195.245L247.087 194.956L247.02 194.616L247.02 190.044L247.087 189.703L247.276 189.415L247.56 189.223L247.895 189.154L249.645 189.154L249.98 189.223L250.264 189.415L250.453 189.703L250.52 190.044L250.52 194.616Z" fill="#333333"/>
<path fill-rule="evenodd" clip-rule="evenodd" d="M245.52 194.616L245.453 194.956L245.264 195.245L244.98 195.437L244.645 195.505L242.895 195.505L242.56 195.437L242.276 195.245L242.087 194.956L242.02 194.616L242.02 190.044L242.087 189.703L242.276 189.415L242.56 189.223L242.895 189.154L244.645 189.154L244.98 189.223L245.264 189.415L245.453 189.703L245.52 190.044L245.52 194.616Z" fill="#333333"/>
<path fill-rule="evenodd" clip-rule="evenodd" d="M240.27 194.87L240.203 195.21L240.014 195.499L239.73 195.691L239.394 195.759L234.894 195.759L234.559 195.691L234.275 195.499L234.086 195.21L234.019 194.87L234.019 193.092L234.086 192.751L234.275 192.463L234.559 192.271L234.894 192.203L239.394 192.203L239.73 192.271L240.014 192.463L240.203 192.751L240.27 193.092L240.27 194.87Z" fill="#333333"/>
<path fill-rule="evenodd" clip-rule="evenodd" d="M240.27 199.95L240.203 200.291L240.014 200.579L239.73 200.771L239.394 200.839L234.894 200.839L234.559 200.771L234.275 200.579L234.086 200.291L234.019 199.95L234.019 198.172L234.086 197.832L234.275 197.543L234.559 197.351L234.894 197.283L239.394 197.283L239.73 197.351L240.014 197.543L240.203 197.832L240.27 198.172L240.27 199.95Z" fill="#333333"/>
<path fill-rule="evenodd" clip-rule="evenodd" d="M240.27 205.031L240.203 205.371L240.014 205.66L239.73 205.852L239.394 205.92L234.894 205.92L234.559 205.852L234.275 205.66L234.086 205.371L234.019 205.031L234.019 203.253L234.086 202.912L234.275 202.624L234.559 202.432L234.894 202.364L239.394 202.364L239.73 202.432L240.014 202.624L240.203 202.912L240.27 203.253L240.27 205.031Z" fill="#333333"/>
<path fill-rule="evenodd" clip-rule="evenodd" d="M240.27 210.111L240.203 210.452L240.014 210.74L239.73 210.932L239.394 211.001L234.894 211.001L234.559 210.932L234.275 210.74L234.086 210.452L234.019 210.111L234.019 208.333L234.086 207.993L234.275 207.704L234.559 207.512L234.894 207.444L239.394 207.444L239.73 207.512L240.014 207.704L240.203 207.993L240.27 208.333L240.27 210.111Z" fill="#333333"/>
<path fill-rule="evenodd" clip-rule="evenodd" d="M245.52 213.16L245.453 213.5L245.264 213.789L244.98 213.981L244.645 214.049L242.895 214.049L242.56 213.981L242.276 213.789L242.087 213.5L242.02 213.16L242.02 208.587L242.087 208.247L242.276 207.958L242.56 207.766L242.895 207.698L244.645 207.698L244.98 207.766L245.264 207.958L245.453 208.247L245.52 208.587L245.52 213.16Z" fill="#333333"/>
<path fill-rule="evenodd" clip-rule="evenodd" d="M250.52 213.16L250.453 213.5L250.264 213.789L249.98 213.981L249.645 214.049L247.895 214.049L247.56 213.981L247.276 213.789L247.087 213.5L247.02 213.16L247.02 208.587L247.087 208.247L247.276 207.958L247.56 207.766L247.895 207.698L249.645 207.698L249.98 207.766L250.264 207.958L250.453 208.247L250.52 208.587L250.52 213.16Z" fill="#333333"/>
<path fill-rule="evenodd" clip-rule="evenodd" d="M255.52 213.16L255.453 213.5L255.264 213.789L254.98 213.981L254.645 214.049L252.895 214.049L252.56 213.981L252.276 213.789L252.087 213.5L252.02 213.16L252.02 208.587L252.087 208.247L252.276 207.958L252.56 207.766L252.895 207.698L254.645 207.698L254.98 207.766L255.264 207.958L255.453 208.247L255.52 208.587L255.52 213.16Z" fill="#333333"/>
<path fill-rule="evenodd" clip-rule="evenodd" d="M274.531 295.661L284.616 295.661L284.616 323.483L274.531 323.483L274.531 295.661Z" fill="#333333"/>
<path fill-rule="evenodd" clip-rule="evenodd" d="M254.515 295.661L264.6 295.661L264.6 323.483L254.515 323.483L254.515 295.661Z" fill="#333333"/>
<path fill-rule="evenodd" clip-rule="evenodd" d="M234.55 295.661L244.635 295.661L244.635 323.483L234.55 323.483L234.55 295.661Z" fill="#333333"/>
<path fill-rule="evenodd" clip-rule="evenodd" d="M214.534 295.661L224.618 295.661L224.618 323.483L214.534 323.483L214.534 295.661Z" fill="#333333"/>
<path fill-rule="evenodd" clip-rule="evenodd" d="M296.052 370.519L311.053 370.519L311.053 401L296.052 401L296.052 370.519Z" fill="#333333"/>
<path fill-rule="evenodd" clip-rule="evenodd" d="M188.097 370.519L203.098 370.519L203.098 401L188.097 401L188.097 370.519Z" fill="#333333"/>
<path fill-rule="evenodd" clip-rule="evenodd" d="M269.271 226.709L269.168 227.235L268.876 227.68L268.438 227.977L267.921 228.081L265.221 228.081L264.704 227.977L264.266 227.68L263.974 227.235L263.871 226.709L263.871 222.95L263.974 222.425L264.266 221.98L264.704 221.683L265.221 221.578L267.921 221.578L268.438 221.683L268.876 221.98L269.168 222.425L269.271 222.95L269.271 226.709Z" fill="#333333"/>
<path fill-rule="evenodd" clip-rule="evenodd" d="M259.071 226.709L258.968 227.235L258.675 227.68L258.237 227.977L257.72 228.081L255.02 228.081L254.503 227.977L254.065 227.68L253.773 227.235L253.67 226.709L253.67 222.95L253.773 222.425L254.065 221.98L254.503 221.683L255.02 221.578L257.72 221.578L258.237 221.683L258.675 221.98L258.968 222.425L259.071 222.95L259.071 226.709Z" fill="#333333"/>
<path fill-rule="evenodd" clip-rule="evenodd" d="M253.4 180.914L253.229 181.789L252.741 182.53L252.011 183.026L251.15 183.2L246.65 183.2L245.789 183.026L245.059 182.53L244.571 181.789L244.4 180.914L244.4 175.833L244.571 174.958L245.059 174.217L245.789 173.721L246.65 173.547L251.15 173.547L252.011 173.721L252.741 174.217L253.229 174.958L253.4 175.833L253.4 180.914Z" fill="#333333"/>
<path fill-rule="evenodd" clip-rule="evenodd" d="M237.899 180.914L237.728 181.789L237.24 182.53L236.51 183.026L235.649 183.2L231.149 183.2L230.288 183.026L229.558 182.53L229.07 181.789L228.899 180.914L228.899 175.833L229.07 174.958L229.558 174.217L230.288 173.721L231.149 173.547L235.649 173.547L236.51 173.721L237.24 174.217L237.728 174.958L237.899 175.833L237.899 180.914Z" fill="#333333"/>
<path fill-rule="evenodd" clip-rule="evenodd" d="M269.251 233.954L269.768 234.059L270.206 234.356L270.498 234.801L270.601 235.326L270.601 238.069L270.498 238.595L270.206 239.04L269.768 239.337L269.251 239.441L265.551 239.441L265.034 239.337L264.596 239.04L264.304 238.595L264.201 238.069L264.201 235.326L264.304 234.801L264.596 234.356L265.034 234.059L265.551 233.954L269.251 233.954Z" fill="#333333"/>
<path fill-rule="evenodd" clip-rule="evenodd" d="M269.251 244.318L269.768 244.423L270.206 244.72L270.498 245.165L270.601 245.69L270.601 248.434L270.498 248.959L270.206 249.404L269.768 249.701L269.251 249.805L265.551 249.805L265.034 249.701L264.596 249.404L264.304 248.959L264.201 248.434L264.201 245.69L264.304 245.165L264.596 244.72L265.034 244.423L265.551 244.318L269.251 244.318Z" fill="#333333"/>
<path fill-rule="evenodd" clip-rule="evenodd" d="M233.349 222.95L233.452 222.425L233.744 221.98L234.182 221.683L234.699 221.578L237.399 221.578L237.916 221.683L238.354 221.98L238.646 222.425L238.749 222.95L238.749 226.709L238.646 227.235L238.354 227.68L237.916 227.977L237.399 228.081L234.699 228.081L234.182 227.977L233.744 227.68L233.452 227.235L233.349 226.709L233.349 222.95Z" fill="#333333"/>
<path fill-rule="evenodd" clip-rule="evenodd" d="M243.55 222.95L243.653 222.425L243.945 221.98L244.383 221.683L244.9 221.578L247.6 221.578L248.117 221.683L248.555 221.98L248.847 222.425L248.95 222.95L248.95 226.709L248.847 227.235L248.555 227.68L248.117 227.977L247.6 228.081L244.9 228.081L244.383 227.977L243.945 227.68L243.653 227.235L243.55 226.709L243.55 222.95Z" fill="#333333"/>
<path fill-rule="evenodd" clip-rule="evenodd" d="M316.704 202.252L311.703 209.873L301.703 209.873L301.703 194.631L311.703 194.631L316.704 202.252Z" fill="#333333"/>
<path fill-rule="evenodd" clip-rule="evenodd" d="M326.204 209.873L314.703 209.873L319.704 202.252L314.703 194.631L326.204 194.631L326.204 209.873Z" fill="#333333"/>
<path fill-rule="evenodd" clip-rule="evenodd" d="M259.771 184.805L259.235 184.697L258.781 184.389L258.477 183.928L258.37 183.383L258.37 180.538L258.477 179.993L258.781 179.532L259.235 179.224L259.771 179.115L263.171 179.115L263.707 179.224L264.161 179.532L264.464 179.993L264.571 180.538L264.571 183.383L264.464 183.928L264.161 184.389L263.707 184.697L263.171 184.805L259.771 184.805Z" fill="#333333"/>
<path fill-rule="evenodd" clip-rule="evenodd" d="M259.771 175.051L259.235 174.942L258.781 174.634L258.477 174.173L258.37 173.628L258.37 170.783L258.477 170.239L258.781 169.777L259.235 169.469L259.771 169.361L263.171 169.361L263.707 169.469L264.161 169.777L264.464 170.239L264.571 170.783L264.571 173.628L264.464 174.173L264.161 174.634L263.707 174.942L263.171 175.051L259.771 175.051Z" fill="#333333"/>
<path d="M250.65 201.439C250.65 199.728 249.285 198.34 247.6 198.34C245.915 198.34 244.55 199.728 244.55 201.439C244.55 203.151 245.915 204.539 247.6 204.539C249.285 204.539 250.65 203.151 250.65 201.439Z" fill="#333333"/>
<path d="M230.149 190.871C230.149 189.16 228.783 187.772 227.099 187.772C225.414 187.772 224.049 189.16 224.049 190.871C224.049 192.583 225.414 193.97 227.099 193.97C228.783 193.97 230.149 192.583 230.149 190.871Z" fill="#333333"/>
<path d="M207.948 294.412C207.948 292.7 206.582 291.313 204.898 291.313C203.213 291.313 201.847 292.7 201.847 294.412C201.847 296.124 203.213 297.511 204.898 297.511C206.582 297.511 207.948 296.124 207.948 294.412Z" fill="#333333"/>
<path d="M246.25 266.924L246.25 224.829Z" fill="#333333"/>
<path d="M246.25 266.924L246.25 224.829" stroke="#333333" stroke-width="0.944882" stroke-linecap="round" stroke-linejoin="round"/>
<path d="M248.77 210.873L248.77 222.269Z" fill="#333333"/>
<path d="M248.77 210.873L248.77 222.269" stroke="#333333" stroke-width="0.944882" stroke-linecap="round" stroke-linejoin="round"/>
<path d="M248.77 222.269L246.25 224.829Z" fill="#333333"/>
<path d="M248.77 222.269L246.25 224.829" stroke="#333333" stroke-width="0.944882" stroke-linecap="round" stroke-linejoin="round"/>
<path d="M279.574 309.571L279.574 300.784Z" fill="#333333"/>
<path d="M279.574 309.571L279.574 300.784" stroke="#333333" stroke-width="0.944882" stroke-linecap="round" stroke-linejoin="round"/>
<path d="M279.574 300.784L246.25 266.925Z" fill="#333333"/>
<path d="M279.574 300.784L246.25 266.925" stroke="#333333" stroke-width="0.944882" stroke-linecap="round" stroke-linejoin="round"/>
<path d="M271.271 326.795L287.876 326.795Z" fill="#333333"/>
<path d="M271.271 326.795L287.876 326.795" stroke="#333333" stroke-width="0.944882" stroke-linecap="round" stroke-linejoin="round"/>
<path d="M253.77 210.873L253.77 222.188Z" fill="#333333"/>
<path d="M253.77 210.873L253.77 222.188" stroke="#333333" stroke-width="0.944882" stroke-linecap="round" stroke-linejoin="round"/>
<path d="M256.37 260.342L256.37 224.829Z" fill="#333333"/>
<path d="M256.37 260.342L256.37 224.829" stroke="#333333" stroke-width="0.944882" stroke-linecap="round" stroke-linejoin="round"/>
<path d="M287.876 326.795L287.876 292.353Z" fill="#333333"/>
<path d="M287.876 326.795L287.876 292.353" stroke="#333333" stroke-width="0.944882" stroke-linecap="round" stroke-linejoin="round"/>
<path d="M253.77 222.187L256.37 224.829Z" fill="#333333"/>
<path d="M253.77 222.187L256.37 224.829" stroke="#333333" stroke-width="0.944882" stroke-linecap="round" stroke-linejoin="round"/>
<path d="M259.558 314.892L271.271 326.795Z" fill="#333333"/>
<path d="M259.558 314.892L271.271 326.795" stroke="#333333" stroke-width="0.944882" stroke-linecap="round" stroke-linejoin="round"/>
<path d="M287.876 292.354L256.37 260.342Z" fill="#333333"/>
<path d="M287.876 292.354L256.37 260.342" stroke="#333333" stroke-width="0.944882" stroke-linecap="round" stroke-linejoin="round"/>
<path d="M259.558 309.571L259.558 314.892Z" fill="#333333"/>
<path d="M259.558 309.571L259.558 314.892" stroke="#333333" stroke-width="0.944882" stroke-linecap="round" stroke-linejoin="round"/>
<path d="M266.571 224.829L266.78 224.616Z" fill="#333333"/>
<path d="M266.571 224.829L266.78 224.616" stroke="#333333" stroke-width="0.944882" stroke-linecap="round" stroke-linejoin="round"/>
<path d="M248.508 178.373L248.9 178.373Z" fill="#333333"/>
<path d="M248.508 178.373L248.9 178.373" stroke="#333333" stroke-width="0.944882" stroke-linecap="round" stroke-linejoin="round"/>
<path d="M237.144 193.981L237.144 189.919Z" fill="#333333"/>
<path d="M237.144 193.981L237.144 189.919" stroke="#333333" stroke-width="0.944882" stroke-linecap="round" stroke-linejoin="round"/>
<path d="M292.386 290.455L292.386 328.693Z" fill="#333333"/>
<path d="M292.386 290.455L292.386 328.693" stroke="#333333" stroke-width="0.944882" stroke-linecap="round" stroke-linejoin="round"/>
<path d="M261.471 181.96L252.43 181.96Z" fill="#333333"/>
<path d="M261.471 181.96L252.43 181.96" stroke="#333333" stroke-width="0.944882" stroke-linecap="round" stroke-linejoin="round"/>
<path d="M233.147 193.981L237.144 193.981Z" fill="#333333"/>
<path d="M233.147 193.981L237.144 193.981" stroke="#333333" stroke-width="0.944882" stroke-linecap="round" stroke-linejoin="round"/>
<path d="M253.77 183.322L248.9 178.373Z" fill="#333333"/>
<path d="M253.77 183.322L248.9 178.373" stroke="#333333" stroke-width="0.944882" stroke-linecap="round" stroke-linejoin="round"/>
<path d="M267.401 236.698L267.401 236.799Z" fill="#333333"/>
<path d="M267.401 236.698L267.401 236.799" stroke="#333333" stroke-width="0.944882" stroke-linecap="round" stroke-linejoin="round"/>
<path d="M252.43 181.96L248.9 178.373Z" fill="#333333"/>
<path d="M252.43 181.96L248.9 178.373" stroke="#333333" stroke-width="0.944882" stroke-linecap="round" stroke-linejoin="round"/>
<path d="M267.401 236.698L268.501 235.58Z" fill="#333333"/>
<path d="M267.401 236.698L268.501 235.58" stroke="#333333" stroke-width="0.944882" stroke-linecap="round" stroke-linejoin="round"/>
<path d="M253.77 192.329L253.77 183.322Z" fill="#333333"/>
<path d="M253.77 192.329L253.77 183.322" stroke="#333333" stroke-width="0.944882" stroke-linecap="round" stroke-linejoin="round"/>
<path d="M260.881 258.444L292.386 290.455Z" fill="#333333"/>
<path d="M260.881 258.444L292.386 290.455" stroke="#333333" stroke-width="0.944882" stroke-linecap="round" stroke-linejoin="round"/>
<path d="M239.592 228.429L236.049 224.829Z" fill="#333333"/>
<path d="M239.592 228.429L236.049 224.829" stroke="#333333" stroke-width="0.944882" stroke-linecap="round" stroke-linejoin="round"/>
<path d="M239.592 309.571L239.592 228.429Z" fill="#333333"/>
<path d="M239.592 309.571L239.592 228.429" stroke="#333333" stroke-width="0.944882" stroke-linecap="round" stroke-linejoin="round"/>
<path d="M237.144 189.919L248.508 178.374Z" fill="#333333"/>
<path d="M237.144 189.919L248.508 178.374" stroke="#333333" stroke-width="0.944882" stroke-linecap="round" stroke-linejoin="round"/>
<path d="M230.759 196.407L233.147 193.981Z" fill="#333333"/>
<path d="M230.759 196.407L233.147 193.981" stroke="#333333" stroke-width="0.944882" stroke-linecap="round" stroke-linejoin="round"/>
<path d="M230.759 219.454L230.759 196.407Z" fill="#333333"/>
<path d="M230.759 219.454L230.759 196.407" stroke="#333333" stroke-width="0.944882" stroke-linecap="round" stroke-linejoin="round"/>
<path d="M239.592 318.36L239.592 309.571Z" fill="#333333"/>
<path d="M239.592 318.36L239.592 309.571" stroke="#333333" stroke-width="0.944882" stroke-linecap="round" stroke-linejoin="round"/>
<path d="M267.401 236.799L260.881 243.424Z" fill="#333333"/>
<path d="M267.401 236.799L260.881 243.424" stroke="#333333" stroke-width="0.944882" stroke-linecap="round" stroke-linejoin="round"/>
<path d="M268.501 235.58L268.501 226.79Z" fill="#333333"/>
<path d="M268.501 235.58L268.501 226.79" stroke="#333333" stroke-width="0.944882" stroke-linecap="round" stroke-linejoin="round"/>
<path d="M268.501 226.791L266.571 224.829Z" fill="#333333"/>
<path d="M268.501 226.791L266.571 224.829" stroke="#333333" stroke-width="0.944882" stroke-linecap="round" stroke-linejoin="round"/>
<path d="M252.405 331.378L239.592 318.36Z" fill="#333333"/>
<path d="M252.405 331.378L239.592 318.36" stroke="#333333" stroke-width="0.944882" stroke-linecap="round" stroke-linejoin="round"/>
<path d="M236.049 224.829L230.759 219.454Z" fill="#333333"/>
<path d="M236.049 224.829L230.759 219.454" stroke="#333333" stroke-width="0.944882" stroke-linecap="round" stroke-linejoin="round"/>
<path d="M289.744 331.378L252.405 331.378Z" fill="#333333"/>
<path d="M289.744 331.378L252.405 331.378" stroke="#333333" stroke-width="0.944882" stroke-linecap="round" stroke-linejoin="round"/>
<path d="M260.881 243.424L260.881 258.444Z" fill="#333333"/>
<path d="M260.881 243.424L260.881 258.444" stroke="#333333" stroke-width="0.944882" stroke-linecap="round" stroke-linejoin="round"/>
<path d="M292.386 328.693L289.744 331.378Z" fill="#333333"/>
<path d="M292.386 328.693L289.744 331.378" stroke="#333333" stroke-width="0.944882" stroke-linecap="round" stroke-linejoin="round"/>
<path d="M263.521 209.222L260.396 209.222Z" fill="#333333"/>
<path d="M263.521 209.222L260.396 209.222" stroke="#333333" stroke-width="0.944882" stroke-linecap="round" stroke-linejoin="round"/>
<path d="M274.961 239.481L274.961 220.846Z" fill="#333333"/>
<path d="M274.961 239.481L274.961 220.846" stroke="#333333" stroke-width="0.944882" stroke-linecap="round" stroke-linejoin="round"/>
<path d="M274.961 220.846L263.521 209.222Z" fill="#333333"/>
<path d="M274.961 220.846L263.521 209.222" stroke="#333333" stroke-width="0.944882" stroke-linecap="round" stroke-linejoin="round"/>
<path d="M267.501 247.062L274.961 239.482Z" fill="#333333"/>
<path d="M267.501 247.062L274.961 239.482" stroke="#333333" stroke-width="0.944882" stroke-linecap="round" stroke-linejoin="round"/>
<path d="M299.843 209.222L306.703 202.252Z" fill="#333333"/>
<path d="M299.843 209.222L306.703 202.252" stroke="#333333" stroke-width="0.944882" stroke-linecap="round" stroke-linejoin="round"/>
<path d="M267.401 247.062L267.501 247.062Z" fill="#333333"/>
<path d="M267.401 247.062L267.501 247.062" stroke="#333333" stroke-width="0.944882" stroke-linecap="round" stroke-linejoin="round"/>
<path d="M260.396 209.222L299.843 209.222Z" fill="#333333"/>
<path d="M260.396 209.222L299.843 209.222" stroke="#333333" stroke-width="0.944882" stroke-linecap="round" stroke-linejoin="round"/>
<path fill-rule="evenodd" clip-rule="evenodd" d="M242.611 195.989L242.71 195.772L242.775 195.272L242.775 193.59L242.8 193.501L242.788 193.411L242.897 193.166L242.972 192.909L243.04 192.848L243.078 192.765L243.3 192.619L243.5 192.443L243.605 192.42L243.666 192.38L244.015 192.33L244.28 192.33L244.95 192.53L245.408 193.066L245.52 193.59L245.52 197.981L245.532 197.979L245.746 197.879L246.437 197.772L246.794 197.879L247.008 197.979L247.02 197.981L247.02 193.59L247.045 193.501L247.033 193.411L247.142 193.166L247.217 192.909L247.285 192.848L247.323 192.765L247.545 192.619L247.745 192.443L247.85 192.42L247.911 192.38L248.26 192.33L248.275 192.33L248.945 192.53L249.403 193.066L249.515 193.59L249.515 195.018L249.58 195.518L250.084 196.617L250.926 197.472L251.892 197.93L252.007 197.984L252.499 198.05L253.525 198.05L253.537 198.053L253.549 198.05L253.871 198.154L254.195 198.25L254.203 198.26L254.215 198.264L254.432 198.528L254.653 198.787L254.657 198.802L254.672 198.856L254.756 199.155L254.765 199.232L254.765 200.353L254.83 200.853L255.012 201.249L255.036 201.446L255.01 201.609L255.034 201.771L254.929 202.134L254.83 202.35L254.765 202.85L254.765 203.893L254.568 204.574L254.04 205.039L253.525 205.153L252.499 205.153L252.288 205.181L252.007 205.219L251.794 205.319L251.103 205.426L250.746 205.319L250.533 205.219L250.041 205.153L247.499 205.153L247.007 205.219L246.794 205.319L246.117 205.428L245.923 205.404L245.533 205.219L245.041 205.153L243.938 205.153L243.862 205.144L243.609 205.032L243.345 204.953L243.293 204.893L243.221 204.861L243.068 204.627L242.887 204.416L242.867 204.325L242.832 204.271L242.83 204.149L242.775 203.893L242.775 202.85L242.756 202.707L242.71 202.35L242.611 202.134L242.506 201.432L242.611 201.069L242.71 200.853L242.775 200.353L242.775 197.77L242.756 197.627L242.71 197.27L242.611 197.053L242.506 196.351L242.611 195.989Z" fill="#333333"/>
<path fill-rule="evenodd" clip-rule="evenodd" d="M154.005 114.101L154.031 113.793L154.142 112.502L154.18 112.286L154.494 111.095L154.575 110.789L154.649 110.582L155.293 109.178L155.401 108.988L156.276 107.718L156.415 107.55L157.494 106.454L157.659 106.313L158.909 105.424L159.096 105.314L160.478 104.659L160.681 104.584L162.155 104.183L162.367 104.144L163.941 104.005L164.049 104L333.95 104L334.058 104.005L335.633 104.144L335.845 104.183L337.319 104.584L337.522 104.659L338.904 105.314L339.091 105.424L340.341 106.313L340.506 106.454L341.585 107.55L341.724 107.718L342.599 108.988L342.707 109.178L343.351 110.582L343.425 110.789L343.82 112.286L343.858 112.502L343.995 114.101L344 114.211L344 388.448L343.995 388.558L343.858 390.157L343.82 390.373L343.425 391.87L343.351 392.077L342.707 393.481L342.599 393.671L341.724 394.941L341.585 395.109L340.506 396.205L340.341 396.346L339.091 397.235L338.904 397.345L337.522 397.999L337.319 398.075L336.106 398.405L335.845 398.476L335.633 398.515L334.803 398.588L334.058 398.654L333.95 398.659L314.793 398.659L314.123 398.459L313.665 397.922L313.553 397.399L313.553 388.953L313.75 388.271L314.278 387.807L314.969 387.705L315.605 388L315.67 388.062L317.006 389.418L318.726 390.688L320.62 391.669L322.642 392.336L324.741 392.674L326.867 392.674L328.966 392.336L329.166 392.27L330.988 391.669L332.882 390.688L334.603 389.418L336.106 387.891L337.355 386.143L338.321 384.219L338.977 382.164L339.31 380.032L339.31 377.871L338.977 375.739L338.321 373.684L337.356 371.76L337.196 371.536L336.106 370.012L334.603 368.485L332.882 367.216L330.988 366.234L328.966 365.567L326.867 365.229L324.941 365.229L324.941 138.954L327.067 138.954L328.966 138.648L329.166 138.615L330.988 138.015L331.188 137.949L333.082 136.967L334.803 135.698L336.306 134.171L337.555 132.423L338.521 130.499L339.177 128.444L339.51 126.312L339.51 124.151L339.177 122.018L338.521 119.964L337.556 118.039L337.319 117.708L336.306 116.292L334.803 114.765L333.082 113.495L331.188 112.514L329.166 111.847L327.067 111.509L324.941 111.509L322.842 111.847L320.82 112.514L318.926 113.494L317.206 114.765L315.702 116.292L314.453 118.039L313.487 119.964L312.831 122.018L312.575 123.656L312.498 124.151L312.498 126.312L312.575 126.806L312.831 128.444L313.487 130.499L314.453 132.423L315.702 134.171L317.206 135.698L318.926 136.967L320.82 137.949L322.842 138.615L324.941 138.954L324.941 365.229L324.741 365.229L322.642 365.567L320.62 366.234L318.726 367.215L317.006 368.485L315.473 370.041L314.86 370.382L314.163 370.331L313.604 369.905L313.451 369.633L313.408 369.528L312.855 368.688L312.028 368.126L311.299 367.979L306.053 367.979L306.053 384.499L305.856 385.18L305.328 385.646L304.813 385.759L303.553 385.759L303.553 387.04L303.356 387.72L302.828 388.186L302.313 388.3L301.053 388.3L301.053 383.219L301.053 367.979L295.806 367.979L295.077 368.126L294.25 368.688L293.697 369.528L293.552 370.269L293.552 383.219L301.053 383.219L301.053 388.3L293.552 388.3L293.552 397.399L293.355 398.08L292.827 398.545L292.312 398.659L251.91 398.659L251.91 335.193L290.239 335.193L291.194 334.933L291.892 334.524L292.05 334.431L293.552 332.905L294.692 331.747L295.391 331.036L295.806 330.306L295.885 330.166L296.013 329.681L296.04 329.578L296.141 329.195L296.141 289.953L296.013 289.468L295.885 288.983L295.391 288.113L294.692 287.402L294.106 286.808L264.999 257.233L264.664 256.609L264.636 256.342L264.636 253.611L264.833 252.93L265.361 252.464L265.876 252.351L269.617 252.351L270.366 252.24L271.522 251.666L272.432 250.741L272.973 249.615L272.997 249.566L273.106 248.805L273.106 247.284L273.303 246.604L273.469 246.393L277.267 242.535L277.967 241.825L278.461 240.954L278.589 240.469L278.616 240.367L278.717 239.984L278.717 220.344L278.589 219.859L278.461 219.374L277.967 218.503L277.267 217.793L276.681 217.199L274.703 215.189L274.368 214.566L274.418 213.858L274.837 213.289L275.492 213.041L275.58 213.038L300.337 213.038L300.752 212.925L300.815 212.908L301.292 212.778L301.616 212.588L301.707 212.552L301.903 212.536L302.151 212.469L311.703 212.469L312.028 212.436L312.204 212.418L313.125 212.03L313.829 211.312L318.83 203.692L319.209 202.761L319.21 201.748L318.83 200.812L313.829 193.191L313.51 192.795L312.681 192.232L311.703 192.035L301.703 192.035L300.725 192.232L299.896 192.795L299.343 193.637L299.148 194.631L299.148 204.011L299.062 204.309L298.996 204.614L298.959 204.665L298.951 204.691L298.785 204.902L298.651 205.038L298.038 205.378L297.774 205.407L267.266 205.407L266.596 205.207L266.138 204.67L266.026 204.147L266.026 202.85L266.007 202.707L265.961 202.35L265.862 202.134L265.757 201.432L265.862 201.069L265.961 200.853L266.026 200.353L266.026 197.77L266.007 197.627L265.961 197.27L265.862 197.053L265.757 196.351L265.862 195.989L265.961 195.772L266.026 195.272L266.026 192.689L266.007 192.546L265.961 192.189L265.457 191.091L264.615 190.235L263.534 189.723L263.458 189.687L262.934 189.218L262.742 188.535L262.945 187.856L263.476 187.395L263.788 187.301L264.393 187.203L265.492 186.634L266.37 185.744L266.931 184.624L266.987 184.268L267.076 183.695L267.076 180.226L267.004 179.76L266.931 179.296L266.37 178.176L266.167 177.97L265.832 177.347L265.882 176.639L266.167 176.189L266.365 175.987L266.926 174.868L266.945 174.746L266.945 169.665L266.926 169.544L266.365 168.425L265.492 167.538L264.391 166.968L263.971 166.9L263.971 169.665L266.945 169.665L266.945 174.746L258.97 174.746L258.97 169.665L258.97 166.9L258.55 166.968L257.449 167.538L256.576 168.425L256.015 169.544L255.996 169.665L258.97 169.665L258.97 174.746L256.687 174.746L256.016 174.546L255.644 174.168L255.572 174.054L255.366 173.494L254.547 172.381L253.452 171.549L252.171 171.064L251.959 171.04L251.605 171.002L246.195 171.002L245.629 171.064L245.4 171.15L244.881 171.347L244.348 171.549L243.253 172.381L242.434 173.494L242.367 173.677L242.309 173.833L241.89 174.401L241.236 174.649L240.553 174.499L240.059 173.997L239.985 173.833L239.862 173.496L239.042 172.386L237.949 171.553L236.669 171.069L236.103 171.007L235.899 171.007L235.899 185.267L235.702 185.947L235.536 186.158L234.139 187.576L233.645 188.447L233.517 188.932L233.419 189.305L233.211 189.651L233.055 189.91L232.542 190.196L231.698 190.425L230.841 190.927L230.695 191.077L230.695 185.74L230.899 185.74L230.899 180.914L230.899 175.833L230.899 171.007L230.695 171.007L230.129 171.069L228.849 171.553L227.756 172.386L226.937 173.496L226.46 174.797L226.399 175.372L226.399 175.833L230.899 175.833L230.899 180.914L226.399 180.914L226.399 181.375L226.46 181.95L226.937 183.251L227.756 184.361L228.849 185.193L230.129 185.678L230.695 185.74L230.695 191.077L230.142 191.638L227.754 194.064L227.26 194.935L227.132 195.42L227.004 195.905L227.004 218.952L227.004 219.956L227.132 220.442L227.26 220.927L227.754 221.797L230.481 224.567L230.816 225.19L230.844 225.458L230.844 227.081L230.953 227.842L231.518 229.017L232.428 229.942L233.584 230.516L234.333 230.626L234.597 230.626L235.267 230.827L235.725 231.363L235.837 231.886L235.837 291.856L235.64 292.536L235.112 293.002L234.597 293.115L234.303 293.115L233.573 293.263L233.211 293.509L232.744 293.826L232.19 294.667L232.045 295.41L232.045 323.734L232.19 324.475L232.744 325.318L233.573 325.88L234.303 326.028L241.316 326.028L241.986 326.228L242.193 326.397L250.099 334.431L250.955 334.933L251.91 335.193L251.91 398.659L224.865 398.659L224.865 326.023L225.594 325.876L226.421 325.314L226.973 324.473L227.118 323.733L227.118 312.111L227.118 307.031L227.118 295.41L226.973 294.669L226.421 293.829L225.594 293.268L224.865 293.121L222.077 293.121L222.077 307.031L227.118 307.031L227.118 312.111L222.077 312.111L222.077 326.023L224.865 326.023L224.865 398.659L214.287 398.659L214.287 326.023L217.076 326.023L217.076 312.111L217.076 307.031L217.076 293.121L214.287 293.121L213.558 293.268L212.731 293.829L212.179 294.669L212.034 295.41L212.034 307.031L217.076 307.031L217.076 312.111L212.034 312.111L212.034 323.733L212.179 324.473L212.731 325.314L213.558 325.876L214.287 326.023L214.287 398.659L206.838 398.659L206.168 398.459L205.71 397.922L205.598 397.399L205.598 388.3L205.598 383.219L205.598 370.269L205.453 369.528L204.9 368.688L204.073 368.126L203.344 367.979L198.097 367.979L198.097 383.219L205.598 383.219L205.598 388.3L196.837 388.3L196.167 388.1L195.709 387.563L195.597 387.04L195.597 385.759L194.337 385.759L193.667 385.559L193.209 385.023L193.097 384.499L193.097 367.979L187.851 367.979L187.122 368.126L186.295 368.688L185.742 369.528L185.714 369.596L185.276 370.149L184.613 370.374L183.936 370.198L183.692 370.006L182.194 368.485L180.474 367.215L178.58 366.234L176.558 365.568L174.459 365.229L172.533 365.229L172.533 138.954L174.659 138.954L176.558 138.648L176.758 138.615L178.58 138.015L178.78 137.949L180.674 136.967L182.394 135.698L183.898 134.171L185.147 132.423L186.113 130.499L186.769 128.444L187.102 126.312L187.102 124.151L186.769 122.018L186.113 119.964L185.148 118.039L184.613 117.292L183.898 116.292L182.394 114.765L180.674 113.495L178.78 112.514L176.758 111.847L174.659 111.509L172.533 111.509L170.434 111.847L168.412 112.514L166.518 113.494L164.798 114.765L163.294 116.292L162.045 118.039L161.079 119.964L160.423 122.018L160.167 123.656L160.09 124.151L160.09 126.312L160.167 126.806L160.423 128.444L161.079 130.499L162.045 132.423L163.294 134.171L164.798 135.698L166.518 136.967L168.412 137.949L170.434 138.615L172.533 138.954L172.533 365.229L172.333 365.229L170.234 365.568L168.212 366.234L166.318 367.215L164.598 368.485L163.094 370.012L161.845 371.76L160.879 373.684L160.223 375.739L159.967 377.377L159.89 377.871L159.89 380.032L159.967 380.527L160.223 382.164L160.879 384.219L161.845 386.144L163.094 387.891L164.598 389.418L166.318 390.688L168.212 391.669L170.234 392.336L172.333 392.674L174.459 392.674L176.558 392.336L176.758 392.27L178.58 391.669L180.474 390.688L182.194 389.418L183.48 388.113L184.093 387.772L184.79 387.823L185.35 388.248L185.594 388.913L185.597 389.004L185.597 397.399L185.4 398.08L184.872 398.545L184.357 398.659L164.05 398.659L163.942 398.654L163.094 398.579L162.367 398.515L162.155 398.476L160.681 398.075L160.478 397.999L160.223 397.878L159.096 397.345L158.909 397.235L157.659 396.346L157.494 396.205L156.415 395.109L156.276 394.941L155.401 393.671L155.293 393.481L154.649 392.077L154.575 391.87L154.18 390.373L154.142 390.157L154.026 388.809L154.005 388.558L154 388.448L154 387.833L154 114.826L154 114.211L154.005 114.101Z" fill="#333333"/>
<rect x="270" y="227.13" width="5.73913" height="6" transform="rotate(90 270 227.13)" fill="#E6BF62"/>
<rect x="270" y="232.87" width="3.13043" height="6" transform="rotate(90 270 232.87)" fill="#D9D9D9"/>
<rect x="270" y="224" width="3.13043" height="6" transform="rotate(90 270 224)" fill="#D9D9D9"/>
<rect x="243.87" y="228" width="5.73913" height="6" transform="rotate(180 243.87 228)" fill="#E6BF62"/>
<rect x="238.13" y="228" width="3.13043" height="6" transform="rotate(180 238.13 228)" fill="#D9D9D9"/>
<rect x="247" y="228" width="3.13043" height="6" transform="rotate(180 247 228)" fill="#D9D9D9"/>
<rect x="243.826" y="182" width="7.65217" height="8" transform="rotate(180 243.826 182)" fill="#E6BF62"/>
<rect x="236.174" y="182" width="4.17391" height="8" transform="rotate(180 236.174 182)" fill="#D9D9D9"/>
<rect x="248" y="182" width="4.17391" height="8" transform="rotate(180 248 182)" fill="#D9D9D9"/>
<path d="M195.271 167.424V165.083H198.343L198.343 155.61H195.271V153.269L204.232 153.269V155.61L201.16 155.61L201.16 165.083L204.232 165.083V167.424L195.271 167.424Z" fill="white"/>
<path d="M209.096 153.306C209.206 153.635 209.352 154.037 209.499 154.549C209.645 155.062 209.828 155.574 210.011 156.159C210.194 156.744 210.376 157.329 210.559 157.914C210.742 158.5 210.925 159.048 211.071 159.56C211.254 159.012 211.437 158.426 211.657 157.805C211.84 157.219 212.059 156.634 212.242 156.086C212.425 155.537 212.608 155.025 212.754 154.513C212.9 154.037 213.046 153.635 213.156 153.306L215.497 153.306C215.607 154.549 215.716 155.756 215.79 156.927C215.899 158.097 215.973 159.268 216.046 160.401C216.119 161.535 216.155 162.706 216.229 163.876C216.265 165.047 216.302 166.217 216.338 167.461L213.778 167.461L213.924 156.488L212.205 162.45H210.157L208.475 156.488L208.584 167.461H206.024C206.061 166.29 206.134 165.12 206.17 163.84C206.207 162.559 206.28 161.352 206.353 160.109C206.426 158.865 206.5 157.695 206.573 156.525C206.646 155.354 206.756 154.293 206.865 153.306H209.206H209.096Z" fill="white"/>
<path d="M222.483 167.716C221.569 167.716 220.8 167.607 220.179 167.351C219.557 167.095 219.081 166.729 218.716 166.253C218.35 165.778 218.094 165.229 217.948 164.534C217.801 163.84 217.728 163.108 217.728 162.303L217.728 153.306H220.544L220.544 162.12C220.544 162.706 220.544 163.218 220.618 163.62C220.691 164.022 220.764 164.352 220.91 164.608C221.056 164.864 221.239 165.01 221.532 165.12C221.788 165.229 222.117 165.266 222.519 165.266C222.922 165.266 223.251 165.229 223.507 165.12C223.763 165.01 223.983 164.827 224.129 164.571C224.275 164.315 224.385 163.986 224.458 163.583C224.531 163.181 224.531 162.669 224.531 162.084L224.531 153.269L227.347 153.269L227.347 162.267C227.347 163.071 227.274 163.84 227.128 164.498C226.982 165.156 226.726 165.741 226.323 166.217C225.921 166.692 225.446 167.058 224.824 167.314C224.202 167.57 223.434 167.68 222.483 167.68V167.716Z" fill="white"/>
<path d="M244.94 165.376C245.416 165.376 245.818 165.339 246.111 165.229C246.403 165.12 246.659 165.01 246.842 164.827C247.025 164.644 247.135 164.461 247.208 164.242C247.281 164.022 247.317 163.803 247.317 163.583C247.317 163.291 247.244 163.035 247.061 162.815C246.879 162.596 246.696 162.376 246.44 162.194C246.184 162.011 245.891 161.864 245.562 161.718C245.233 161.572 244.94 161.425 244.611 161.316C244.172 161.169 243.733 160.987 243.294 160.804C242.855 160.621 242.416 160.365 242.051 160.036C241.685 159.743 241.356 159.341 241.136 158.902C240.917 158.463 240.771 157.878 240.771 157.219C240.771 155.903 241.209 154.879 242.051 154.11C242.892 153.379 244.099 152.977 245.598 152.977C246.476 152.977 247.208 153.086 247.866 153.269C248.524 153.452 249.073 153.672 249.512 153.928L248.707 156.086C248.342 155.866 247.903 155.683 247.427 155.537C246.952 155.391 246.44 155.317 245.818 155.317C244.318 155.317 243.587 155.866 243.587 156.927C243.587 157.183 243.66 157.439 243.806 157.658C243.953 157.878 244.135 158.061 244.391 158.207C244.611 158.353 244.904 158.499 245.196 158.646C245.489 158.792 245.781 158.865 246.074 158.975C246.513 159.158 246.988 159.341 247.464 159.524C247.939 159.743 248.378 159.999 248.78 160.328C249.183 160.657 249.512 161.096 249.768 161.608C250.024 162.12 250.17 162.742 250.17 163.547C250.17 164.864 249.731 165.888 248.89 166.619C248.049 167.351 246.732 167.716 244.977 167.716C243.806 167.716 242.855 167.607 242.16 167.351C241.465 167.095 240.953 166.875 240.588 166.656L241.392 164.388C241.795 164.644 242.307 164.864 242.855 165.083C243.441 165.302 244.135 165.412 244.94 165.412V165.376Z" fill="white"/>
<path d="M252.475 167.424L252.475 153.306L261.033 153.306V155.647L255.291 155.647V158.829H260.302V161.17H255.291L255.291 165.12L261.545 165.12V167.461L252.475 167.461V167.424Z" fill="white"/>
<path d="M270.543 167.424C269.921 165.851 269.226 164.278 268.458 162.742C267.69 161.17 266.885 159.633 266.044 158.061V167.424H263.52V153.306H265.788C266.227 153.964 266.629 154.696 267.068 155.5C267.507 156.268 267.909 157.073 268.312 157.841C268.714 158.609 269.08 159.377 269.445 160.109C269.775 160.84 270.067 161.462 270.323 162.011V153.306L272.847 153.306V167.424L270.579 167.424H270.543Z" fill="white"/>
<path d="M279.138 165.376C279.613 165.376 280.016 165.339 280.308 165.229C280.601 165.12 280.857 165.01 281.04 164.827C281.223 164.644 281.332 164.461 281.406 164.242C281.479 164.022 281.515 163.803 281.515 163.583C281.515 163.291 281.442 163.035 281.259 162.815C281.076 162.596 280.893 162.376 280.637 162.194C280.381 162.011 280.089 161.864 279.76 161.718C279.43 161.572 279.138 161.425 278.809 161.316C278.37 161.169 277.931 160.987 277.492 160.804C277.053 160.621 276.614 160.365 276.248 160.036C275.883 159.743 275.553 159.341 275.334 158.902C275.115 158.463 274.968 157.878 274.968 157.219C274.968 155.903 275.407 154.879 276.248 154.11C277.09 153.379 278.297 152.977 279.796 152.977C280.674 152.977 281.406 153.086 282.064 153.269C282.722 153.452 283.271 153.672 283.71 153.928L282.905 156.086C282.539 155.866 282.1 155.683 281.625 155.537C281.149 155.391 280.637 155.317 280.016 155.317C278.516 155.317 277.785 155.866 277.785 156.927C277.785 157.183 277.858 157.439 278.004 157.658C278.15 157.878 278.333 158.061 278.589 158.207C278.809 158.353 279.101 158.499 279.394 158.646C279.686 158.792 279.979 158.865 280.272 158.975C280.711 159.158 281.186 159.341 281.662 159.524C282.137 159.743 282.576 159.999 282.978 160.328C283.381 160.657 283.71 161.096 283.966 161.608C284.222 162.12 284.368 162.742 284.368 163.547C284.368 164.864 283.929 165.888 283.088 166.619C282.247 167.351 280.93 167.716 279.174 167.716C278.004 167.716 277.053 167.607 276.358 167.351C275.663 167.095 275.151 166.875 274.785 166.656L275.59 164.388C275.992 164.644 276.504 164.864 277.053 165.083C277.638 165.302 278.333 165.412 279.138 165.412V165.376Z" fill="white"/>
<path d="M285.868 160.365C285.868 157.914 286.307 156.086 287.221 154.842C288.135 153.598 289.379 152.977 290.952 152.977C292.524 152.977 293.878 153.598 294.755 154.842C295.633 156.086 296.072 157.914 296.072 160.365C296.072 162.815 295.633 164.644 294.755 165.888C293.878 167.131 292.634 167.753 291.025 167.753C289.415 167.753 288.099 167.131 287.221 165.888C286.343 164.644 285.904 162.815 285.904 160.365H285.868ZM288.721 160.365C288.721 161.06 288.721 161.682 288.794 162.303C288.867 162.925 288.94 163.437 289.123 163.876C289.269 164.315 289.489 164.681 289.781 164.937C290.074 165.193 290.44 165.339 290.952 165.339C291.464 165.339 291.793 165.193 292.085 164.937C292.378 164.681 292.598 164.315 292.78 163.876C292.927 163.437 293.036 162.925 293.11 162.303C293.183 161.682 293.183 161.06 293.183 160.401C293.183 159.743 293.183 159.085 293.11 158.463C293.073 157.878 292.963 157.329 292.78 156.89C292.598 156.451 292.415 156.086 292.122 155.829C291.829 155.573 291.427 155.427 290.952 155.427C290.476 155.427 290.074 155.573 289.781 155.829C289.489 156.086 289.269 156.451 289.123 156.89C288.977 157.329 288.867 157.878 288.794 158.463C288.721 159.048 288.721 159.706 288.721 160.365Z" fill="white"/>
<path d="M301.558 153.16C302.363 153.16 303.095 153.233 303.753 153.416C304.411 153.598 304.96 153.891 305.435 154.257C305.911 154.623 306.277 155.135 306.533 155.72C306.789 156.305 306.898 157 306.898 157.768C306.898 158.536 306.716 159.341 306.386 159.999C306.057 160.657 305.509 161.169 304.704 161.535C304.96 161.938 305.253 162.376 305.509 162.852C305.765 163.327 306.094 163.839 306.35 164.352C306.606 164.864 306.898 165.412 307.118 165.924C307.374 166.436 307.593 166.948 307.776 167.424L304.85 167.424C304.485 166.509 304.082 165.632 303.643 164.79C303.168 163.949 302.692 163.108 302.144 162.23H300.681V167.424H297.864V153.525C298.12 153.452 298.45 153.416 298.779 153.342C299.108 153.306 299.437 153.269 299.766 153.233C300.095 153.233 300.425 153.196 300.717 153.16C301.01 153.16 301.302 153.16 301.522 153.16H301.558ZM304.046 157.768C304.046 157.036 303.826 156.488 303.351 156.122C302.912 155.756 302.29 155.61 301.558 155.61C301.449 155.61 301.339 155.61 301.156 155.61C300.973 155.61 300.864 155.61 300.717 155.683V159.926H301.339C302.29 159.926 302.985 159.743 303.424 159.377C303.863 159.012 304.046 158.463 304.046 157.805V157.768Z" fill="white"/>
<path d="M196.002 141.602C195.564 141.602 195.198 141.675 194.905 141.821C194.613 141.968 194.357 142.187 194.174 142.48C193.991 142.772 193.845 143.102 193.771 143.467C193.698 143.833 193.662 144.272 193.662 144.747C193.662 145.845 193.845 146.613 194.174 147.125C194.503 147.637 195.015 147.893 195.673 147.893C195.783 147.893 195.893 147.893 196.039 147.893C196.149 147.893 196.295 147.893 196.405 147.856V144.565H198.197L198.197 149.1C197.978 149.173 197.648 149.283 197.209 149.356C196.771 149.466 196.222 149.502 195.564 149.502C195.015 149.502 194.503 149.392 194.027 149.21C193.588 149.027 193.186 148.698 192.857 148.332C192.528 147.929 192.272 147.454 192.125 146.869C191.943 146.284 191.869 145.589 191.869 144.821C191.869 144.052 191.979 143.358 192.162 142.772C192.382 142.187 192.638 141.675 193.003 141.273C193.369 140.87 193.771 140.578 194.247 140.358C194.722 140.176 195.234 140.066 195.783 140.066C196.149 140.066 196.441 140.066 196.734 140.139C197.027 140.212 197.246 140.249 197.465 140.322C197.685 140.395 197.831 140.468 197.978 140.541C198.124 140.614 198.197 140.688 198.27 140.724L197.795 142.151C197.575 142.004 197.319 141.895 196.99 141.785C196.661 141.675 196.368 141.639 196.039 141.639L196.002 141.602Z" fill="white"/>
<path d="M201.891 140.139C202.403 140.139 202.879 140.212 203.281 140.321C203.683 140.431 204.049 140.614 204.378 140.87C204.671 141.126 204.927 141.419 205.073 141.784C205.219 142.15 205.329 142.589 205.329 143.101C205.329 143.613 205.219 144.089 205 144.528C204.781 144.967 204.415 145.296 203.939 145.515C204.122 145.771 204.268 146.064 204.451 146.356C204.634 146.649 204.817 146.978 205 147.307C205.183 147.637 205.329 147.966 205.512 148.331C205.658 148.661 205.805 148.99 205.914 149.282H204.012C203.793 148.697 203.537 148.149 203.244 147.6C202.952 147.051 202.623 146.503 202.293 145.954H201.342L201.342 149.282H199.55L199.55 140.358C199.55 140.358 199.916 140.285 200.135 140.248C200.355 140.248 200.574 140.175 200.757 140.175C200.977 140.175 201.16 140.175 201.379 140.175C201.562 140.175 201.745 140.175 201.891 140.175V140.139ZM203.464 143.101C203.464 142.626 203.318 142.26 203.025 142.041C202.732 141.821 202.33 141.711 201.855 141.711C201.781 141.711 201.708 141.711 201.599 141.711C201.489 141.711 201.416 141.711 201.306 141.748V144.454H201.708C202.33 144.454 202.769 144.345 203.025 144.089C203.281 143.833 203.427 143.504 203.427 143.065L203.464 143.101Z" fill="white"/>
<path d="M206.463 144.747C206.463 143.175 206.756 142.004 207.341 141.199C207.926 140.395 208.731 139.992 209.755 139.992C210.779 139.992 211.62 140.395 212.169 141.199C212.717 142.004 213.01 143.175 213.01 144.747C213.01 146.32 212.717 147.49 212.169 148.295C211.62 149.1 210.815 149.502 209.755 149.502C208.694 149.502 207.889 149.1 207.304 148.295C206.719 147.49 206.463 146.32 206.463 144.747ZM208.292 144.747C208.292 145.186 208.292 145.588 208.328 145.991C208.365 146.393 208.438 146.722 208.548 146.978C208.657 147.271 208.804 147.49 208.987 147.637C209.17 147.783 209.426 147.893 209.718 147.893C210.011 147.893 210.267 147.82 210.45 147.637C210.633 147.454 210.779 147.234 210.889 146.942C210.998 146.649 211.071 146.32 211.108 145.954C211.145 145.588 211.145 145.15 211.145 144.711C211.145 144.272 211.145 143.869 211.108 143.467C211.108 143.101 210.998 142.736 210.889 142.48C210.779 142.187 210.633 141.968 210.45 141.821C210.267 141.638 210.011 141.565 209.718 141.565C209.426 141.565 209.17 141.638 208.987 141.821C208.804 142.004 208.657 142.224 208.548 142.516C208.438 142.809 208.365 143.138 208.328 143.504C208.292 143.869 208.292 144.308 208.292 144.747Z" fill="white"/>
<path d="M216.082 149.283C215.863 148.624 215.607 147.856 215.351 147.015C215.095 146.174 214.839 145.333 214.619 144.491C214.4 143.65 214.18 142.845 213.997 142.114C213.815 141.346 213.668 140.761 213.595 140.285H215.497C215.57 140.761 215.643 141.309 215.753 141.931C215.863 142.553 216.009 143.175 216.155 143.833C216.302 144.491 216.448 145.15 216.594 145.772C216.741 146.393 216.923 146.978 217.07 147.491C217.216 146.978 217.399 146.43 217.545 145.772C217.692 145.15 217.838 144.491 217.984 143.833C218.13 143.175 218.24 142.516 218.35 141.895C218.46 141.273 218.569 140.724 218.643 140.249H220.544C220.435 140.834 220.288 141.492 220.106 142.224C219.923 142.955 219.74 143.687 219.52 144.491C219.301 145.296 219.045 146.101 218.789 146.905C218.533 147.747 218.24 148.515 217.984 149.283H216.119H216.082Z" fill="white"/>
<path d="M221.605 149.283L221.605 140.212H227.091V141.712H223.397V143.76H226.616V145.259H223.397V147.82H227.421L227.421 149.319H221.605V149.283Z" fill="white"/>
<path d="M239.637 149.465C238.357 149.465 237.369 149.063 236.711 148.222C236.052 147.417 235.687 146.247 235.687 144.711C235.687 143.943 235.796 143.284 235.979 142.699C236.199 142.114 236.455 141.602 236.82 141.199C237.186 140.797 237.625 140.505 238.137 140.285C238.649 140.066 239.198 139.956 239.783 139.956C240.112 139.956 240.405 139.956 240.661 140.029C240.917 140.066 241.136 140.139 241.356 140.212C241.539 140.285 241.721 140.358 241.831 140.431C241.941 140.505 242.051 140.578 242.124 140.614L241.648 142.041C241.429 141.894 241.136 141.785 240.844 141.675C240.551 141.565 240.149 141.529 239.746 141.529C239.454 141.529 239.198 141.565 238.905 141.675C238.613 141.785 238.393 141.931 238.174 142.187C237.954 142.443 237.808 142.736 237.662 143.138C237.515 143.54 237.479 144.052 237.479 144.637C237.479 145.662 237.662 146.466 238.027 147.015C238.393 147.564 238.978 147.856 239.783 147.856C240.258 147.856 240.624 147.82 240.953 147.71C241.283 147.6 241.502 147.49 241.685 147.381L242.124 148.807C241.868 148.953 241.539 149.1 241.1 149.246C240.661 149.392 240.149 149.429 239.6 149.429L239.637 149.465Z" fill="white"/>
<path d="M243.038 144.747C243.038 143.175 243.331 142.004 243.916 141.199C244.501 140.395 245.306 139.992 246.33 139.992C247.354 139.992 248.195 140.395 248.744 141.199C249.293 142.004 249.585 143.175 249.585 144.747C249.585 146.32 249.293 147.49 248.744 148.295C248.195 149.1 247.391 149.502 246.33 149.502C245.269 149.502 244.465 149.1 243.879 148.295C243.294 147.49 243.038 146.32 243.038 144.747ZM244.867 144.747C244.867 145.186 244.867 145.588 244.903 145.991C244.94 146.393 245.013 146.722 245.123 146.978C245.233 147.271 245.379 147.49 245.562 147.637C245.745 147.783 246.001 147.893 246.293 147.893C246.586 147.893 246.842 147.82 247.025 147.637C247.208 147.454 247.354 147.234 247.464 146.942C247.573 146.649 247.647 146.32 247.683 145.954C247.72 145.588 247.72 145.15 247.72 144.711C247.72 144.272 247.72 143.869 247.683 143.467C247.683 143.101 247.573 142.736 247.464 142.48C247.354 142.187 247.208 141.968 247.025 141.821C246.842 141.638 246.586 141.565 246.293 141.565C246.001 141.565 245.745 141.638 245.562 141.821C245.379 142.004 245.233 142.224 245.123 142.516C245.013 142.809 244.94 143.138 244.903 143.504C244.867 143.869 244.867 144.308 244.867 144.747Z" fill="white"/>
<path d="M252.292 140.249C252.365 140.468 252.438 140.724 252.548 141.053C252.657 141.382 252.767 141.712 252.877 142.077C252.987 142.443 253.096 142.809 253.243 143.211C253.352 143.577 253.462 143.943 253.572 144.272C253.682 143.906 253.791 143.54 253.938 143.138C254.084 142.736 254.194 142.37 254.303 142.041C254.413 141.675 254.523 141.346 254.633 141.053C254.742 140.761 254.815 140.468 254.889 140.285H256.388C256.461 141.09 256.534 141.858 256.571 142.589C256.644 143.358 256.681 144.089 256.717 144.821C256.754 145.552 256.79 146.284 256.827 147.052C256.827 147.783 256.864 148.551 256.9 149.356H255.254L255.327 142.333L254.23 146.174H252.914L251.853 142.333L251.926 149.356H250.28C250.28 148.624 250.353 147.856 250.39 147.052C250.39 146.247 250.463 145.442 250.5 144.674C250.536 143.87 250.573 143.102 250.646 142.37C250.719 141.639 250.756 140.944 250.829 140.322H252.328L252.292 140.249Z" fill="white"/>
<path d="M260.558 140.139C261.691 140.139 262.606 140.358 263.228 140.834C263.849 141.309 264.179 142.077 264.179 143.138C264.179 144.198 263.849 145.003 263.228 145.479C262.606 145.954 261.691 146.21 260.521 146.21H259.863V149.282H258.071V140.358C258.071 140.358 258.436 140.285 258.656 140.248C258.875 140.248 259.095 140.212 259.314 140.175C259.534 140.175 259.753 140.175 259.972 140.175C260.192 140.175 260.375 140.175 260.558 140.175V140.139ZM260.741 141.711C260.741 141.711 260.485 141.711 260.302 141.711C260.119 141.711 259.972 141.711 259.863 141.748V144.674H260.594C261.179 144.674 261.618 144.564 261.911 144.345C262.204 144.125 262.35 143.723 262.35 143.174C262.35 142.662 262.204 142.26 261.911 142.041C261.618 141.821 261.253 141.711 260.777 141.711H260.741Z" fill="white"/>
<path d="M269.848 149.283L269.409 147.198H266.995L266.593 149.283H264.727C265.166 147.491 265.605 145.881 266.044 144.418C266.483 142.955 266.922 141.565 267.324 140.249H269.299C269.738 141.565 270.14 142.992 270.579 144.455C271.018 145.954 271.42 147.564 271.823 149.283H269.884H269.848ZM268.238 142.004C268.129 142.333 268.056 142.663 267.982 142.992C267.909 143.284 267.836 143.614 267.763 143.906C267.69 144.199 267.617 144.491 267.544 144.821C267.47 145.113 267.434 145.442 267.361 145.772H269.116C269.043 145.442 269.007 145.15 268.933 144.821C268.86 144.528 268.824 144.235 268.751 143.906C268.677 143.577 268.604 143.321 268.531 142.992C268.458 142.699 268.348 142.37 268.275 142.004H268.238Z" fill="white"/>
<path d="M278.845 140.249V141.748H276.468V149.319H274.639V141.748H272.262V140.249H278.845Z" fill="white"/>
<path d="M280.016 149.283V147.783H281.991V141.711H280.016V140.212H285.758V141.711H283.783V147.783H285.758V149.283H280.016Z" fill="white"/>
<path d="M293.402 146.539C293.402 147.088 293.293 147.527 293.11 147.893C292.927 148.258 292.671 148.551 292.342 148.77C292.012 148.99 291.647 149.136 291.208 149.246C290.769 149.356 290.293 149.392 289.818 149.392C289.416 149.392 289.013 149.392 288.574 149.319C288.135 149.282 287.733 149.209 287.294 149.136V140.358C287.623 140.285 288.026 140.248 288.428 140.212C288.83 140.175 289.233 140.139 289.635 140.139C290.33 140.139 290.879 140.212 291.317 140.358C291.756 140.504 292.086 140.687 292.342 140.907C292.598 141.126 292.744 141.382 292.854 141.675C292.963 141.967 293 142.223 293 142.516C293 142.955 292.89 143.321 292.671 143.65C292.451 143.979 292.195 144.235 291.83 144.454C292.451 144.674 292.854 144.967 293.073 145.369C293.293 145.771 293.402 146.137 293.402 146.576V146.539ZM289.818 143.833C290.293 143.833 290.623 143.723 290.842 143.54C291.061 143.357 291.208 143.065 291.208 142.699C291.208 142.479 291.208 142.297 291.098 142.187C290.988 142.077 290.952 141.967 290.805 141.894C290.696 141.821 290.549 141.784 290.403 141.748C290.257 141.711 290.074 141.711 289.928 141.711C289.781 141.711 289.635 141.711 289.489 141.711C289.342 141.711 289.196 141.711 289.086 141.748V143.833H289.781H289.818ZM289.123 145.332V147.783C289.123 147.783 289.379 147.783 289.525 147.819C289.672 147.819 289.818 147.819 289.964 147.819C290.184 147.819 290.367 147.819 290.549 147.783C290.732 147.783 290.915 147.673 291.061 147.6C291.208 147.527 291.354 147.381 291.427 147.198C291.537 147.015 291.573 146.795 291.573 146.539C291.573 146.1 291.427 145.771 291.171 145.588C290.879 145.405 290.513 145.296 290.037 145.296H289.086L289.123 145.332Z" fill="white"/>
<path d="M300.571 149.283H294.865V140.212H296.694V147.783H300.571V149.283Z" fill="white"/>
<path d="M302.071 149.283V140.212H307.557V141.711H303.863V143.76H307.081V145.259H303.863V147.82H307.886V149.319H302.071V149.283Z" fill="white"/>
<path d="M245.855 286.513C245.196 286.732 244.428 286.988 243.587 287.244C242.746 287.5 241.904 287.756 241.063 287.976C240.222 288.195 239.417 288.415 238.686 288.598C237.918 288.78 237.332 288.927 236.857 289V287.098C237.332 287.025 237.881 286.952 238.503 286.842C239.125 286.732 239.746 286.586 240.405 286.44C241.063 286.293 241.722 286.147 242.343 286.001C242.965 285.854 243.55 285.672 244.062 285.525C243.55 285.379 243.002 285.196 242.343 285.05C241.722 284.904 241.063 284.757 240.405 284.611C239.746 284.465 239.088 284.355 238.466 284.245C237.845 284.135 237.296 284.026 236.82 283.953V282.051C237.406 282.16 238.064 282.307 238.795 282.49C239.527 282.672 240.259 282.855 241.063 283.075C241.868 283.294 242.672 283.55 243.477 283.806C244.318 284.062 245.086 284.355 245.855 284.611V286.476V286.513Z" fill="white"/>
<path d="M246.037 277.588C246.037 278.869 245.635 279.856 244.794 280.515C243.989 281.173 242.819 281.539 241.283 281.539C240.514 281.539 239.856 281.429 239.271 281.246C238.686 281.027 238.174 280.771 237.771 280.405C237.369 280.039 237.076 279.6 236.857 279.088C236.637 278.576 236.528 278.027 236.528 277.442C236.528 277.113 236.528 276.82 236.601 276.564C236.637 276.308 236.711 276.089 236.784 275.869C236.857 275.687 236.93 275.504 237.003 275.394C237.076 275.284 237.15 275.175 237.186 275.101L238.613 275.577C238.466 275.796 238.357 276.089 238.247 276.382C238.137 276.674 238.101 277.076 238.101 277.479C238.101 277.771 238.137 278.027 238.247 278.32C238.357 278.613 238.503 278.832 238.759 279.052C239.015 279.271 239.307 279.417 239.71 279.564C240.112 279.71 240.624 279.746 241.209 279.746C242.234 279.746 243.038 279.564 243.587 279.198C244.135 278.832 244.428 278.247 244.428 277.442C244.428 276.967 244.391 276.601 244.282 276.272C244.172 275.943 244.062 275.723 243.953 275.54L245.379 275.101C245.525 275.357 245.672 275.687 245.818 276.125C245.964 276.564 246.001 277.076 246.001 277.625L246.037 277.588Z" fill="white"/>
<path d="M246.037 270.273C246.037 271.553 245.635 272.541 244.794 273.199C243.989 273.858 242.819 274.223 241.283 274.223C240.514 274.223 239.856 274.114 239.271 273.931C238.686 273.711 238.174 273.455 237.771 273.09C237.369 272.724 237.076 272.285 236.857 271.773C236.637 271.261 236.528 270.712 236.528 270.127C236.528 269.798 236.528 269.505 236.601 269.249C236.637 268.993 236.711 268.774 236.784 268.554C236.857 268.371 236.93 268.189 237.003 268.079C237.076 267.969 237.15 267.859 237.186 267.786L238.613 268.262C238.466 268.481 238.357 268.774 238.247 269.066C238.137 269.359 238.101 269.761 238.101 270.164C238.101 270.456 238.137 270.712 238.247 271.005C238.357 271.297 238.503 271.517 238.759 271.736C239.015 271.956 239.307 272.102 239.71 272.248C240.112 272.395 240.624 272.431 241.209 272.431C242.234 272.431 243.038 272.248 243.587 271.883C244.135 271.517 244.428 270.932 244.428 270.127C244.428 269.652 244.391 269.286 244.282 268.957C244.172 268.627 244.062 268.408 243.953 268.225L245.379 267.786C245.525 268.042 245.672 268.371 245.818 268.81C245.964 269.249 246.001 269.761 246.001 270.31L246.037 270.273Z" fill="white"/>
<path d="M217.436 284.684C217.436 285.123 217.509 285.489 217.655 285.781C217.801 286.074 218.021 286.33 218.313 286.513C218.606 286.696 218.935 286.842 219.301 286.915C219.667 286.988 220.106 287.025 220.581 287.025C221.678 287.025 222.446 286.842 222.958 286.513C223.47 286.184 223.727 285.672 223.727 285.013C223.727 284.903 223.727 284.794 223.727 284.647C223.727 284.538 223.727 284.391 223.69 284.282H220.398V282.49H224.933C225.007 282.709 225.116 283.038 225.19 283.477C225.299 283.916 225.336 284.465 225.336 285.123C225.336 285.672 225.226 286.184 225.043 286.659C224.86 287.098 224.531 287.5 224.165 287.83C223.763 288.159 223.288 288.415 222.702 288.561C222.117 288.744 221.422 288.817 220.654 288.817C219.886 288.817 219.191 288.707 218.606 288.524C218.021 288.305 217.509 288.049 217.106 287.683C216.704 287.317 216.411 286.915 216.192 286.44C216.009 285.964 215.899 285.452 215.899 284.903C215.899 284.538 215.899 284.245 215.973 283.953C216.046 283.66 216.082 283.44 216.155 283.221C216.229 283.002 216.302 282.855 216.375 282.709C216.448 282.563 216.521 282.49 216.558 282.416L217.984 282.892C217.838 283.111 217.728 283.367 217.618 283.697C217.509 284.026 217.472 284.318 217.472 284.647L217.436 284.684Z" fill="white"/>
<path d="M225.116 276.747C224.129 277.15 223.105 277.588 222.117 278.101C221.13 278.576 220.106 279.088 219.118 279.673H225.116V281.283H216.046V279.82C216.485 279.564 216.923 279.271 217.436 279.015C217.948 278.759 218.423 278.466 218.935 278.21C219.447 277.954 219.923 277.698 220.398 277.479C220.874 277.259 221.276 277.076 221.642 276.93H216.082V275.321H225.153V276.784L225.116 276.747Z" fill="white"/>
<path d="M220.581 267.713C221.422 267.713 222.117 267.823 222.739 268.042C223.324 268.262 223.8 268.554 224.165 268.92C224.531 269.286 224.824 269.725 224.97 270.237C225.153 270.749 225.226 271.297 225.226 271.919C225.226 272.248 225.226 272.541 225.189 272.87C225.153 273.199 225.116 273.492 225.007 273.858H216.155C216.082 273.455 216.009 273.053 215.972 272.687C215.972 272.321 215.936 271.992 215.936 271.663C215.936 271.078 216.009 270.529 216.192 270.017C216.375 269.542 216.631 269.103 217.033 268.774C217.399 268.444 217.874 268.152 218.46 267.969C219.045 267.786 219.74 267.676 220.544 267.676L220.581 267.713ZM223.653 272.029C223.653 272.029 223.653 271.919 223.653 271.883V271.736C223.653 271.334 223.58 270.968 223.434 270.712C223.288 270.42 223.068 270.2 222.775 270.054C222.519 269.871 222.19 269.761 221.788 269.688C221.386 269.615 220.983 269.578 220.544 269.578C220.142 269.578 219.776 269.578 219.411 269.651C219.045 269.725 218.716 269.798 218.423 269.944C218.13 270.09 217.911 270.273 217.728 270.529C217.545 270.785 217.472 271.114 217.472 271.517C217.472 271.59 217.472 271.7 217.472 271.773C217.472 271.883 217.472 271.956 217.509 272.029H223.58H223.653Z" fill="white"/>
<path d="M283.417 285.854C283.417 285.562 283.417 285.306 283.307 285.086C283.234 284.903 283.161 284.721 283.051 284.611C282.942 284.501 282.795 284.428 282.686 284.355C282.539 284.318 282.393 284.282 282.247 284.282C282.064 284.282 281.881 284.318 281.735 284.428C281.588 284.538 281.442 284.684 281.332 284.83C281.223 284.977 281.113 285.196 281.04 285.379C280.967 285.562 280.857 285.781 280.784 286.001C280.674 286.257 280.564 286.549 280.455 286.842C280.345 287.135 280.162 287.391 279.979 287.647C279.796 287.903 279.54 288.086 279.248 288.232C278.955 288.378 278.589 288.451 278.187 288.451C277.346 288.451 276.687 288.159 276.212 287.61C275.736 287.061 275.48 286.293 275.48 285.342C275.48 284.794 275.554 284.318 275.663 283.879C275.773 283.44 275.919 283.111 276.102 282.819L277.492 283.331C277.346 283.587 277.236 283.843 277.126 284.135C277.017 284.428 276.98 284.794 276.98 285.16C276.98 286.11 277.309 286.586 278.004 286.586C278.187 286.586 278.333 286.549 278.48 286.44C278.626 286.33 278.736 286.22 278.845 286.074C278.955 285.928 279.028 285.745 279.101 285.562C279.174 285.379 279.248 285.196 279.321 285.013C279.43 284.721 279.54 284.428 279.687 284.135C279.833 283.843 279.979 283.55 280.199 283.294C280.418 283.038 280.674 282.819 281.003 282.672C281.332 282.526 281.735 282.416 282.247 282.416C283.088 282.416 283.746 282.709 284.222 283.258C284.697 283.806 284.917 284.647 284.917 285.781C284.917 286.549 284.844 287.135 284.661 287.573C284.478 288.012 284.368 288.342 284.222 288.598L282.759 288.086C282.905 287.83 283.051 287.5 283.198 287.135C283.344 286.769 283.417 286.33 283.417 285.781V285.854Z" fill="white"/>
<path d="M284.917 277.588C284.917 278.869 284.514 279.856 283.673 280.515C282.869 281.173 281.698 281.539 280.162 281.539C279.394 281.539 278.736 281.429 278.15 281.246C277.565 281.027 277.053 280.771 276.651 280.405C276.248 280.039 275.956 279.6 275.736 279.088C275.517 278.576 275.407 278.027 275.407 277.442C275.407 277.113 275.407 276.82 275.48 276.564C275.517 276.308 275.59 276.089 275.663 275.869C275.736 275.687 275.81 275.504 275.883 275.394C275.956 275.284 276.029 275.175 276.066 275.101L277.492 275.577C277.346 275.796 277.236 276.089 277.126 276.382C277.017 276.674 276.98 277.076 276.98 277.479C276.98 277.771 277.017 278.027 277.126 278.32C277.236 278.613 277.382 278.832 277.638 279.052C277.894 279.271 278.187 279.417 278.589 279.564C278.992 279.71 279.504 279.746 280.089 279.746C281.113 279.746 281.918 279.564 282.466 279.198C283.015 278.832 283.307 278.247 283.307 277.442C283.307 276.967 283.271 276.601 283.161 276.272C283.051 275.943 282.942 275.723 282.832 275.54L284.258 275.101C284.405 275.357 284.551 275.687 284.697 276.125C284.844 276.564 284.88 277.076 284.88 277.625L284.917 277.588Z" fill="white"/>
<path d="M284.734 267.896V273.602H275.663V271.773H283.234V267.896H284.734Z" fill="white"/>
<path d="M265.276 285.854C265.276 285.562 265.276 285.306 265.166 285.086C265.093 284.903 265.02 284.721 264.91 284.611C264.8 284.501 264.654 284.428 264.544 284.355C264.398 284.318 264.252 284.282 264.106 284.282C263.923 284.282 263.74 284.318 263.593 284.428C263.447 284.538 263.301 284.684 263.191 284.83C263.081 284.977 262.972 285.196 262.899 285.379C262.825 285.562 262.716 285.781 262.643 286.001C262.533 286.257 262.423 286.549 262.313 286.842C262.204 287.135 262.021 287.391 261.838 287.647C261.655 287.903 261.399 288.086 261.106 288.232C260.814 288.378 260.448 288.451 260.046 288.451C259.204 288.451 258.546 288.159 258.071 287.61C257.595 287.061 257.339 286.293 257.339 285.342C257.339 284.794 257.412 284.318 257.522 283.879C257.632 283.44 257.778 283.111 257.961 282.819L259.351 283.331C259.204 283.587 259.095 283.843 258.985 284.135C258.875 284.428 258.839 284.794 258.839 285.16C258.839 286.11 259.168 286.586 259.863 286.586C260.046 286.586 260.192 286.549 260.338 286.44C260.485 286.33 260.594 286.22 260.704 286.074C260.814 285.928 260.887 285.745 260.96 285.562C261.033 285.379 261.106 285.196 261.18 285.013C261.289 284.721 261.399 284.428 261.545 284.135C261.692 283.843 261.838 283.55 262.057 283.294C262.277 283.038 262.533 282.819 262.862 282.672C263.191 282.526 263.593 282.416 264.106 282.416C264.947 282.416 265.605 282.709 266.081 283.258C266.556 283.806 266.776 284.647 266.776 285.781C266.776 286.549 266.702 287.135 266.519 287.573C266.337 288.012 266.227 288.342 266.081 288.598L264.618 288.086C264.764 287.83 264.91 287.5 265.056 287.135C265.203 286.769 265.276 286.33 265.276 285.781V285.854Z" fill="white"/>
<path d="M262.057 275.028C262.898 275.028 263.593 275.138 264.215 275.357C264.8 275.577 265.276 275.869 265.642 276.235C266.007 276.601 266.3 277.04 266.446 277.552C266.629 278.064 266.702 278.612 266.702 279.234C266.702 279.563 266.702 279.856 266.666 280.185C266.629 280.514 266.593 280.807 266.483 281.173H257.632C257.558 280.77 257.485 280.368 257.449 280.002C257.449 279.637 257.412 279.307 257.412 278.978C257.412 278.393 257.485 277.844 257.668 277.332C257.851 276.857 258.107 276.418 258.509 276.089C258.875 275.76 259.351 275.467 259.936 275.284C260.521 275.101 261.216 274.991 262.021 274.991L262.057 275.028ZM265.13 279.344C265.13 279.344 265.13 279.234 265.13 279.198V279.051C265.13 278.649 265.056 278.283 264.91 278.027C264.764 277.735 264.544 277.515 264.252 277.369C263.996 277.186 263.667 277.076 263.264 277.003C262.862 276.93 262.46 276.893 262.021 276.893C261.618 276.893 261.253 276.893 260.887 276.967C260.521 277.04 260.192 277.113 259.899 277.259C259.607 277.405 259.387 277.588 259.204 277.844C259.021 278.1 258.948 278.43 258.948 278.832C258.948 278.905 258.948 279.015 258.948 279.088C258.948 279.198 258.948 279.271 258.985 279.344H265.056H265.13Z" fill="white"/>
<path d="M266.593 269.359L264.508 269.798V272.212L266.593 272.614V274.48C264.8 274.041 263.191 273.602 261.728 273.163C260.265 272.724 258.875 272.285 257.559 271.883V269.908C258.875 269.469 260.302 269.067 261.765 268.628C263.264 268.189 264.874 267.786 266.593 267.384V269.323V269.359ZM259.278 270.968C259.607 271.078 259.936 271.151 260.265 271.224C260.558 271.298 260.887 271.371 261.179 271.444C261.472 271.517 261.765 271.59 262.094 271.663C262.386 271.737 262.716 271.773 263.045 271.846V270.091C262.716 270.164 262.423 270.2 262.094 270.274C261.801 270.347 261.509 270.383 261.179 270.456C260.85 270.53 260.594 270.603 260.265 270.676C259.972 270.749 259.643 270.859 259.278 270.932V270.968Z" fill="white"/>
<path d="M308.142 229.638L307.703 227.553H305.289L304.887 229.638H303.021C303.46 227.846 303.899 226.237 304.338 224.774C304.777 223.311 305.216 221.921 305.618 220.604H307.593C308.032 221.921 308.435 223.347 308.874 224.81C309.312 226.31 309.715 227.919 310.117 229.638H308.179H308.142ZM306.533 222.323C306.423 222.652 306.35 222.982 306.277 223.311C306.204 223.603 306.13 223.932 306.057 224.225C305.984 224.518 305.911 224.81 305.838 225.139C305.765 225.432 305.728 225.761 305.655 226.09H307.41C307.337 225.761 307.301 225.469 307.228 225.139C307.154 224.847 307.118 224.554 307.045 224.225C306.972 223.896 306.898 223.64 306.825 223.311C306.752 223.018 306.642 222.689 306.569 222.323H306.533Z" fill="white"/>
<path d="M317.103 225.103C317.103 225.944 316.993 226.639 316.774 227.261C316.554 227.846 316.262 228.322 315.896 228.687C315.53 229.053 315.091 229.346 314.579 229.492C314.067 229.675 313.519 229.748 312.897 229.748C312.568 229.748 312.275 229.748 311.946 229.712C311.617 229.675 311.324 229.638 310.958 229.529V220.677C311.361 220.604 311.763 220.531 312.129 220.495C312.494 220.495 312.824 220.458 313.153 220.458C313.738 220.458 314.287 220.531 314.799 220.714C315.274 220.897 315.713 221.153 316.042 221.555C316.371 221.921 316.664 222.396 316.847 222.982C317.03 223.567 317.14 224.262 317.14 225.066L317.103 225.103ZM312.787 228.175C312.787 228.175 312.897 228.175 312.933 228.175H313.08C313.482 228.175 313.848 228.102 314.104 227.956C314.396 227.81 314.616 227.59 314.762 227.298C314.945 227.042 315.055 226.712 315.128 226.31C315.201 225.908 315.238 225.505 315.238 225.066C315.238 224.664 315.238 224.298 315.164 223.933C315.091 223.567 315.018 223.238 314.872 222.945C314.726 222.653 314.543 222.433 314.287 222.25C314.031 222.067 313.701 221.994 313.299 221.994C313.226 221.994 313.116 221.994 313.043 221.994C312.933 221.994 312.86 221.994 312.787 222.031V228.102V228.175Z" fill="white"/>
<path d="M324.418 225.103C324.418 225.944 324.308 226.639 324.089 227.261C323.869 227.846 323.577 228.322 323.211 228.687C322.845 229.053 322.406 229.346 321.894 229.492C321.382 229.675 320.834 229.748 320.212 229.748C319.883 229.748 319.59 229.748 319.261 229.712C318.932 229.675 318.639 229.638 318.273 229.529V220.677C318.676 220.604 319.078 220.531 319.444 220.495C319.81 220.495 320.139 220.458 320.468 220.458C321.053 220.458 321.602 220.531 322.114 220.714C322.589 220.897 323.028 221.153 323.357 221.555C323.687 221.921 323.979 222.396 324.162 222.982C324.345 223.567 324.455 224.262 324.455 225.066L324.418 225.103ZM320.102 228.175C320.102 228.175 320.212 228.175 320.248 228.175H320.395C320.797 228.175 321.163 228.102 321.419 227.956C321.711 227.81 321.931 227.59 322.077 227.298C322.26 227.042 322.37 226.712 322.443 226.31C322.516 225.908 322.553 225.505 322.553 225.066C322.553 224.664 322.553 224.298 322.48 223.933C322.406 223.567 322.333 223.238 322.187 222.945C322.041 222.653 321.858 222.433 321.602 222.25C321.346 222.067 321.017 221.994 320.614 221.994C320.541 221.994 320.431 221.994 320.358 221.994C320.248 221.994 320.175 221.994 320.102 222.031V228.102V228.175Z" fill="white"/>
<path d="M327.966 220.495C328.478 220.495 328.953 220.568 329.356 220.677C329.758 220.787 330.124 220.97 330.453 221.226C330.746 221.482 331.002 221.775 331.148 222.14C331.294 222.506 331.404 222.945 331.404 223.457C331.404 223.969 331.294 224.445 331.075 224.884C330.855 225.322 330.49 225.652 330.014 225.871C330.197 226.127 330.343 226.42 330.526 226.712C330.709 227.005 330.892 227.334 331.075 227.663C331.258 227.992 331.404 228.322 331.587 228.687C331.733 229.017 331.879 229.346 331.989 229.638H330.087C329.868 229.053 329.612 228.504 329.319 227.956C329.027 227.407 328.697 226.859 328.368 226.31H327.417V229.638H325.625V220.714C325.625 220.714 325.991 220.641 326.21 220.604C326.43 220.604 326.649 220.531 326.832 220.531C327.052 220.531 327.234 220.531 327.454 220.531C327.637 220.531 327.82 220.531 327.966 220.531V220.495ZM329.539 223.421C329.539 222.945 329.392 222.579 329.1 222.36C328.807 222.14 328.405 222.031 327.929 222.031C327.856 222.031 327.783 222.031 327.673 222.031C327.564 222.031 327.49 222.031 327.381 222.067V224.774H327.783C328.405 224.774 328.844 224.664 329.1 224.408C329.356 224.152 329.502 223.823 329.502 223.384L329.539 223.421Z" fill="white"/>
<path d="M217.948 122.766L214.692 119.51L216.667 117.535L219.923 120.791L221.825 122.692L225.08 125.948L223.105 127.923L219.849 124.667L217.948 122.766Z" fill="white"/>
<path d="M217.948 182.383L214.692 179.128L216.667 177.153L219.923 180.408L221.825 182.31L225.08 185.565L223.105 187.54L219.849 184.285L217.948 182.383Z" fill="white"/>
<path d="M217.948 203.121L214.692 199.866L216.667 197.891L219.923 201.146L221.825 203.048L225.08 206.304L223.105 208.279L219.849 205.023L217.948 203.121Z" fill="white"/>
<path d="M277.638 182.383L274.383 179.128L276.358 177.153L279.613 180.408L281.515 182.31L284.77 185.565L282.795 187.54L279.54 184.285L277.638 182.383Z" fill="white"/>
<path d="M277.638 203.121L274.383 199.866L276.358 197.891L279.613 201.146L281.515 203.048L284.77 206.303L282.795 208.279L279.54 205.023L277.638 203.121Z" fill="white"/>
<path d="M277.638 223.859L274.383 220.604L276.358 218.629L279.613 221.884L281.515 223.786L284.77 227.042L282.795 229.017L279.54 225.761L277.638 223.859Z" fill="white"/>
<path d="M238.686 122.766L235.431 119.51L237.406 117.535L240.661 120.791L242.563 122.692L245.818 125.948L243.843 127.923L240.588 124.667L238.686 122.766Z" fill="white"/>
<path d="M249.731 113L249.731 133.738L270.47 133.738L270.47 113L249.731 113ZM262.057 122.766L260.155 124.667L256.9 127.923L254.925 125.948L258.18 122.692L260.082 120.791L263.337 117.535L265.312 119.51L262.057 122.766Z" fill="white"/>
<path d="M279.54 122.766L276.285 119.51L278.26 117.535L281.515 120.791L283.417 122.692L286.672 125.948L284.697 127.923L281.442 124.667L279.54 122.766Z" fill="white"/>
<path d="M179.58 180.664C179.69 180.445 179.8 180.152 179.946 179.823C180.092 179.494 180.238 179.128 180.385 178.726C180.531 178.323 180.677 177.957 180.787 177.555C180.933 177.153 181.043 176.824 181.153 176.494H183.018C182.835 177.007 182.652 177.482 182.47 177.957C182.287 178.433 182.104 178.872 181.884 179.347C181.665 179.823 181.445 180.262 181.226 180.701C181.007 181.14 180.751 181.615 180.458 182.09L180.458 185.529H178.629L178.629 182.09C178.081 181.14 177.605 180.225 177.203 179.311C176.8 178.396 176.398 177.445 176.032 176.458H177.971C178.19 177.153 178.446 177.884 178.702 178.616C178.958 179.347 179.251 180.006 179.544 180.627L179.58 180.664Z" fill="white"/>
<path d="M221.276 228.358C221.093 227.846 220.874 227.297 220.581 226.712C220.325 226.09 220.032 225.505 219.74 224.883C219.447 225.469 219.191 226.054 218.899 226.676C218.606 227.297 218.387 227.846 218.167 228.358H216.229C216.338 228.102 216.485 227.773 216.667 227.407C216.85 227.041 217.07 226.639 217.289 226.2C217.509 225.761 217.765 225.322 218.021 224.883C218.277 224.445 218.533 224.006 218.752 223.567L216.375 219.287H218.313L219.74 222.177L221.239 219.287H223.068L220.764 223.53C221.02 223.933 221.276 224.371 221.532 224.847C221.788 225.322 222.007 225.761 222.227 226.2C222.446 226.639 222.629 227.041 222.812 227.407C222.995 227.773 223.105 228.102 223.214 228.358H221.276Z" fill="white"/>
<path d="M166.852 232.199C166.45 232.857 166.047 233.442 165.682 234.027C165.316 234.576 164.987 235.125 164.694 235.637C164.401 236.149 164.109 236.624 163.853 237.1C163.597 237.575 163.341 238.051 163.085 238.489H166.962L166.962 239.989H161L161 238.965C161.219 238.563 161.439 238.087 161.695 237.648C161.951 237.173 162.207 236.697 162.5 236.149C162.792 235.637 163.121 235.051 163.487 234.43C163.853 233.808 164.219 233.149 164.658 232.418H161.183L161.183 230.918H166.815V232.162L166.852 232.199Z" fill="white"/>
<path d="M205.695 220.019L179.763 220.019V223.677L205.695 223.677V220.019Z" fill="white"/>
<path d="M204.086 227.334L213.559 221.848L204.086 216.398L204.086 227.334Z" fill="white"/>
<path d="M181.592 195.952H177.934L177.934 221.884H181.592L181.592 195.952Z" fill="white"/>
<path d="M185.249 197.525L179.763 188.052L174.313 197.525L185.249 197.525Z" fill="white"/>
<path d="M179.763 232.747C173.765 232.747 168.864 227.846 168.864 221.848C168.864 215.85 173.765 210.948 179.763 210.948C185.761 210.948 190.662 215.85 190.662 221.848C190.662 227.846 185.761 232.747 179.763 232.747ZM179.763 214.606C175.776 214.606 172.521 217.861 172.521 221.848C172.521 225.835 175.776 229.09 179.763 229.09C183.75 229.09 187.005 225.835 187.005 221.848C187.005 217.861 183.75 214.606 179.763 214.606Z" fill="white"/>
<mask id="path-197-inside-1_2011_2789" fill="white">
<path d="M191 330.407L209.196 330.407L209.196 339.501L288.049 339.501L288.049 330.407L309.278 330.407L309.278 388L191 388L191 330.407Z"/>
</mask>
<path d="M191 330.407L209.196 330.407L209.196 339.501L288.049 339.501L288.049 330.407L309.278 330.407L309.278 388L191 388L191 330.407Z" fill="white"/>
<path d="M191 330.407L191 329.907L190.5 329.907L190.5 330.407L191 330.407ZM209.196 330.407L209.696 330.407L209.696 329.907L209.196 329.907L209.196 330.407ZM209.196 339.501L208.696 339.501L208.696 340.001L209.196 340.001L209.196 339.501ZM288.049 339.501L288.049 340.001L288.549 340.001L288.549 339.501L288.049 339.501ZM288.049 330.407L288.049 329.907L287.549 329.907L287.549 330.407L288.049 330.407ZM309.278 330.407L309.778 330.407L309.778 329.907L309.278 329.907L309.278 330.407ZM309.278 388L309.278 388.5L309.778 388.5L309.778 388L309.278 388ZM191 388L190.5 388L190.5 388.5L191 388.5L191 388ZM191 330.407L191 330.907L209.196 330.907L209.196 330.407L209.196 329.907L191 329.907L191 330.407ZM209.196 330.407L208.696 330.407L208.696 339.501L209.196 339.501L209.696 339.501L209.696 330.407L209.196 330.407ZM209.196 339.501L209.196 340.001L288.049 340.001L288.049 339.501L288.049 339.001L209.196 339.001L209.196 339.501ZM288.049 339.501L288.549 339.501L288.549 330.407L288.049 330.407L287.549 330.407L287.549 339.501L288.049 339.501ZM288.049 330.407L288.049 330.907L309.278 330.907L309.278 330.407L309.278 329.907L288.049 329.907L288.049 330.407ZM309.278 330.407L308.778 330.407L308.778 388L309.278 388L309.778 388L309.778 330.407L309.278 330.407ZM309.278 388L309.278 387.5L191 387.5L191 388L191 388.5L309.278 388.5L309.278 388ZM191 388L191.5 388L191.5 330.407L191 330.407L190.5 330.407L190.5 388L191 388Z" fill="#D3D3D3" mask="url(#path-197-inside-1_2011_2789)"/>
<mask id="path-199-inside-2_2011_2789" fill="white">
<path d="M197.065 336.47L205.309 336.47L205.309 343.649L296.292 343.649L296.292 336.47L303.213 336.47L303.213 381.937L197.065 381.937L197.065 336.47Z"/>
</mask>
<path d="M197.065 336.47L205.309 336.47L205.309 343.649L296.292 343.649L296.292 336.47L303.213 336.47L303.213 381.937L197.065 381.937L197.065 336.47Z" fill="white"/>
<path d="M197.065 336.47L197.065 335.97L196.565 335.97L196.565 336.47L197.065 336.47ZM205.309 336.47L205.809 336.47L205.809 335.97L205.309 335.97L205.309 336.47ZM205.309 343.649L204.809 343.649L204.809 344.149L205.309 344.149L205.309 343.649ZM296.292 343.649L296.292 344.149L296.792 344.149L296.792 343.649L296.292 343.649ZM296.292 336.47L296.292 335.97L295.792 335.97L295.792 336.47L296.292 336.47ZM303.213 336.47L303.713 336.47L303.713 335.97L303.213 335.97L303.213 336.47ZM303.213 381.937L303.213 382.437L303.713 382.437L303.713 381.937L303.213 381.937ZM197.065 381.937L196.565 381.937L196.565 382.437L197.065 382.437L197.065 381.937ZM197.065 336.47L197.065 336.97L205.309 336.97L205.309 336.47L205.309 335.97L197.065 335.97L197.065 336.47ZM205.309 336.47L204.809 336.47L204.809 343.649L205.309 343.649L205.809 343.649L205.809 336.47L205.309 336.47ZM205.309 343.649L205.309 344.149L296.292 344.149L296.292 343.649L296.292 343.149L205.309 343.149L205.309 343.649ZM296.292 343.649L296.792 343.649L296.792 336.47L296.292 336.47L295.792 336.47L295.792 343.649L296.292 343.649ZM296.292 336.47L296.292 336.97L303.213 336.97L303.213 336.47L303.213 335.97L296.292 335.97L296.292 336.47ZM303.213 336.47L302.713 336.47L302.713 381.937L303.213 381.937L303.713 381.937L303.713 336.47L303.213 336.47ZM303.213 381.937L303.213 381.437L197.065 381.437L197.065 381.937L197.065 382.437L303.213 382.437L303.213 381.937ZM197.065 381.937L197.565 381.937L197.565 336.47L197.065 336.47L196.565 336.47L196.565 381.937L197.065 381.937Z" fill="#D3D3D3" mask="url(#path-199-inside-2_2011_2789)"/>
<rect x="289.242" y="368.221" width="5.99697" height="5.99381" transform="rotate(180 289.242 368.221)" fill="#B5B5B5"/>
<rect x="288.093" y="367.072" width="3.69798" height="3.69588" transform="rotate(180 288.093 367.072)" fill="#DCDCDC" stroke="#919191" stroke-width="0.3"/>
<rect x="267.254" y="368.221" width="5.99697" height="5.99381" transform="rotate(180 267.254 368.221)" fill="#B5B5B5"/>
<rect x="245.265" y="368.221" width="5.99697" height="5.99381" transform="rotate(180 245.265 368.221)" fill="#B5B5B5"/>
<rect x="223.276" y="368.221" width="5.99697" height="5.99381" transform="rotate(180 223.276 368.221)" fill="#B5B5B5"/>
<rect x="266.104" y="367.072" width="3.69798" height="3.69588" transform="rotate(180 266.104 367.072)" fill="#DCDCDC" stroke="#919191" stroke-width="0.3"/>
<rect x="244.115" y="367.072" width="3.69798" height="3.69588" transform="rotate(180 244.115 367.072)" fill="#DCDCDC" stroke="#919191" stroke-width="0.3"/>
<rect x="222.126" y="367.072" width="3.69798" height="3.69588" transform="rotate(180 222.126 367.072)" fill="#DCDCDC" stroke="#919191" stroke-width="0.3"/>
<rect x="239" y="209" width="17" height="19" transform="rotate(-90 239 209)" fill="black"/>
</svg>
